# MagicaVoxel @ Ephtracy

# group
g szczypior

# material
mtllib szczypior.mtl
usemtl palette

# normals
vn -1 0 0
vn 1 0 0
vn 0 0 1
vn 0 0 -1
vn 0 -1 0
vn 0 1 0

# texcoords
vt 0.00195313 0.5
vt 0.291016 0.5
vt 0.869141 0.5
vt 0.904297 0.5

# verts
v -3 0 2
v -3 0 -1
v -3 5 2
v -3 5 -1
v -2 0 3
v -2 0 2
v -2 0 -1
v -2 0 -2
v -2 5 3
v -2 5 2
v -2 5 1
v -2 5 -0
v -2 5 -1
v -2 5 -2
v -2 6 -0
v -2 6 -1
v -2 15 2
v -2 15 1
v -2 17 -0
v -2 17 -1
v -1 0 4
v -1 0 3
v -1 0 -2
v -1 0 -3
v -1 1 1
v -1 1 -0
v -1 3 1
v -1 3 -0
v -1 5 4
v -1 5 3
v -1 5 2
v -1 5 1
v -1 5 -0
v -1 5 -1
v -1 5 -2
v -1 5 -3
v -1 6 3
v -1 6 2
v -1 6 -0
v -1 6 -1
v -1 6 -2
v -1 14 3
v -1 14 2
v -1 15 1
v -1 17 -0
v -1 17 -1
v -1 17 -2
v -1 18 1
v -1 18 -0
v 0 1 2
v 0 1 1
v 0 1 -0
v 0 1 -1
v 0 3 2
v 0 3 1
v 0 3 -0
v 0 3 -1
v 0 5 1
v 0 5 -0
v 0 6 2
v 0 6 1
v 0 6 -1
v 0 7 -0
v 0 7 -1
v 0 14 2
v 0 14 1
v 0 14 -0
v 0 14 -1
v 1 1 3
v 1 1 2
v 1 1 1
v 1 1 -0
v 1 1 -1
v 1 1 -2
v 1 3 3
v 1 3 2
v 1 3 1
v 1 3 -0
v 1 3 -1
v 1 3 -2
v 1 5 3
v 1 5 2
v 1 5 1
v 1 5 -0
v 1 5 -2
v 1 6 2
v 1 6 1
v 1 6 -1
v 1 6 -2
v 1 7 -0
v 1 7 -1
v 1 13 3
v 1 13 2
v 1 14 1
v 1 14 -0
v 1 14 -1
v 1 17 1
v 1 17 -0
v 1 17 -1
v 1 17 -2
v 2 1 2
v 2 1 1
v 2 1 -0
v 2 1 -1
v 2 3 2
v 2 3 1
v 2 3 -0
v 2 3 -1
v 2 5 2
v 2 5 1
v 2 5 -0
v 2 6 -0
v 2 6 -1
v 2 10 2
v 2 10 1
v 2 15 -0
v 2 15 -1
v 3 1 1
v 3 1 -0
v 3 3 1
v 3 3 -0
v 3 5 1
v 3 5 -0
v -2 1 1
v -2 1 -0
v -2 3 1
v -2 3 -0
v -2 5 1
v -2 5 -0
v -1 1 2
v -1 1 1
v -1 1 -0
v -1 1 -1
v -1 3 2
v -1 3 1
v -1 3 -0
v -1 3 -1
v -1 5 2
v -1 5 1
v -1 5 -0
v -1 6 2
v -1 6 -0
v -1 6 -1
v -1 14 2
v -1 15 2
v -1 15 1
v -1 17 -0
v -1 17 -1
v 0 1 3
v 0 1 2
v 0 1 1
v 0 1 -0
v 0 1 -1
v 0 1 -2
v 0 3 3
v 0 3 2
v 0 3 1
v 0 3 -0
v 0 3 -1
v 0 3 -2
v 0 5 3
v 0 5 1
v 0 5 -0
v 0 5 -2
v 0 6 3
v 0 6 2
v 0 6 1
v 0 6 -1
v 0 6 -2
v 0 7 -0
v 0 7 -1
v 0 14 3
v 0 14 2
v 0 14 1
v 0 14 -0
v 0 14 -1
v 0 17 -1
v 0 17 -2
v 0 18 1
v 0 18 -0
v 1 1 2
v 1 1 1
v 1 1 -0
v 1 1 -1
v 1 3 2
v 1 3 1
v 1 3 -0
v 1 3 -1
v 1 5 2
v 1 5 1
v 1 5 -0
v 1 6 2
v 1 6 1
v 1 6 -1
v 1 7 -0
v 1 7 -1
v 1 13 2
v 1 14 2
v 1 14 1
v 1 14 -0
v 1 14 -1
v 2 0 4
v 2 0 3
v 2 0 -2
v 2 0 -3
v 2 1 1
v 2 1 -0
v 2 3 1
v 2 3 -0
v 2 5 4
v 2 5 3
v 2 5 2
v 2 5 1
v 2 5 -0
v 2 5 -1
v 2 5 -2
v 2 5 -3
v 2 6 -0
v 2 6 -1
v 2 6 -2
v 2 10 2
v 2 10 1
v 2 13 3
v 2 13 2
v 2 15 -0
v 2 15 -1
v 2 17 1
v 2 17 -0
v 2 17 -1
v 2 17 -2
v 3 0 3
v 3 0 2
v 3 0 -1
v 3 0 -2
v 3 5 3
v 3 5 2
v 3 5 1
v 3 5 -0
v 3 5 -1
v 3 5 -2
v 3 6 -0
v 3 6 -1
v 3 10 2
v 3 10 1
v 3 15 -0
v 3 15 -1
v 4 0 2
v 4 0 -1
v 4 5 2
v 4 5 -1
v -1 0 4
v -1 5 4
v 2 0 4
v 2 5 4
v -2 0 3
v -2 5 3
v -1 0 3
v -1 5 3
v -1 6 3
v -1 14 3
v 0 5 3
v 0 6 3
v 0 14 3
v 1 5 3
v 1 13 3
v 2 0 3
v 2 5 3
v 2 13 3
v 3 0 3
v 3 5 3
v -3 0 2
v -3 5 2
v -2 0 2
v -2 5 2
v -2 15 2
v -1 5 2
v -1 6 2
v -1 14 2
v -1 15 2
v 0 1 2
v 0 3 2
v 0 6 2
v 0 14 2
v 1 1 2
v 1 3 2
v 1 5 2
v 1 6 2
v 1 13 2
v 1 14 2
v 2 5 2
v 2 10 2
v 3 0 2
v 3 5 2
v 3 10 2
v 4 0 2
v 4 5 2
v -1 1 1
v -1 3 1
v -1 5 1
v -1 15 1
v -1 18 1
v 0 1 1
v 0 3 1
v 0 5 1
v 0 6 1
v 0 14 1
v 0 18 1
v 1 1 1
v 1 3 1
v 1 5 1
v 1 6 1
v 1 14 1
v 1 17 1
v 2 1 1
v 2 3 1
v 2 5 1
v 2 10 1
v 2 17 1
v -2 1 -0
v -2 3 -0
v -2 5 -0
v -2 6 -0
v -2 17 -0
v -1 1 -0
v -1 3 -0
v -1 5 -0
v -1 6 -0
v -1 17 -0
v 0 1 -0
v 0 3 -0
v 0 5 -0
v 0 7 -0
v 0 14 -0
v 1 1 -0
v 1 3 -0
v 1 5 -0
v 1 7 -0
v 1 14 -0
v 2 1 -0
v 2 3 -0
v 2 5 -0
v 2 6 -0
v 2 15 -0
v 3 1 -0
v 3 3 -0
v 3 5 -0
v 3 6 -0
v 3 15 -0
v -1 1 -1
v -1 3 -1
v -1 6 -1
v -1 17 -1
v 0 1 -1
v 0 3 -1
v 0 6 -1
v 0 7 -1
v 0 14 -1
v 0 17 -1
v 1 1 -1
v 1 3 -1
v 1 6 -1
v 1 7 -1
v 1 14 -1
v 1 17 -1
v 2 1 -1
v 2 3 -1
v 2 6 -1
v 2 15 -1
v 2 17 -1
v 0 1 -2
v 0 3 -2
v 0 5 -2
v 1 1 -2
v 1 3 -2
v 1 5 -2
v 0 1 3
v 0 3 3
v 0 5 3
v 1 1 3
v 1 3 3
v 1 5 3
v -1 1 2
v -1 3 2
v -1 5 2
v -1 6 2
v -1 14 2
v 0 1 2
v 0 3 2
v 0 6 2
v 0 14 2
v 1 1 2
v 1 3 2
v 1 5 2
v 1 6 2
v 1 13 2
v 2 1 2
v 2 3 2
v 2 5 2
v 2 10 2
v 2 13 2
v -2 1 1
v -2 3 1
v -2 5 1
v -2 15 1
v -1 1 1
v -1 3 1
v -1 5 1
v -1 15 1
v 0 1 1
v 0 3 1
v 0 5 1
v 0 6 1
v 0 14 1
v 1 1 1
v 1 3 1
v 1 5 1
v 1 6 1
v 1 14 1
v 2 1 1
v 2 3 1
v 2 5 1
v 2 10 1
v 3 1 1
v 3 3 1
v 3 5 1
v 3 10 1
v -1 1 -0
v -1 3 -0
v -1 5 -0
v -1 6 -0
v -1 17 -0
v -1 18 -0
v 0 1 -0
v 0 3 -0
v 0 5 -0
v 0 7 -0
v 0 14 -0
v 0 18 -0
v 1 1 -0
v 1 3 -0
v 1 5 -0
v 1 7 -0
v 1 14 -0
v 1 17 -0
v 2 1 -0
v 2 3 -0
v 2 5 -0
v 2 6 -0
v 2 15 -0
v 2 17 -0
v -3 0 -1
v -3 5 -1
v -2 0 -1
v -2 5 -1
v -2 6 -1
v -2 17 -1
v -1 5 -1
v -1 6 -1
v -1 17 -1
v 0 1 -1
v 0 3 -1
v 0 6 -1
v 0 7 -1
v 0 14 -1
v 1 1 -1
v 1 3 -1
v 1 6 -1
v 1 7 -1
v 1 14 -1
v 2 5 -1
v 2 6 -1
v 2 15 -1
v 3 0 -1
v 3 5 -1
v 3 6 -1
v 3 15 -1
v 4 0 -1
v 4 5 -1
v -2 0 -2
v -2 5 -2
v -1 0 -2
v -1 5 -2
v -1 6 -2
v -1 17 -2
v 0 5 -2
v 0 6 -2
v 0 17 -2
v 1 5 -2
v 1 6 -2
v 1 17 -2
v 2 0 -2
v 2 5 -2
v 2 6 -2
v 2 17 -2
v 3 0 -2
v 3 5 -2
v -1 0 -3
v -1 5 -3
v 2 0 -3
v 2 5 -3
v -1 0 4
v 2 0 4
v -2 0 3
v -1 0 3
v 2 0 3
v 3 0 3
v -3 0 2
v -2 0 2
v 3 0 2
v 4 0 2
v -3 0 -1
v -2 0 -1
v 3 0 -1
v 4 0 -1
v -2 0 -2
v -1 0 -2
v 2 0 -2
v 3 0 -2
v -1 0 -3
v 2 0 -3
v 0 1 3
v 1 1 3
v -1 1 2
v 0 1 2
v 1 1 2
v 2 1 2
v -2 1 1
v -1 1 1
v 0 1 1
v 1 1 1
v 2 1 1
v 3 1 1
v -2 1 -0
v -1 1 -0
v 0 1 -0
v 1 1 -0
v 2 1 -0
v 3 1 -0
v -1 1 -1
v 0 1 -1
v 1 1 -1
v 2 1 -1
v 0 1 -2
v 1 1 -2
v -1 5 4
v 2 5 4
v -2 5 3
v -1 5 3
v 0 5 3
v 1 5 3
v 2 5 3
v 3 5 3
v -3 5 2
v -2 5 2
v -1 5 2
v 2 5 2
v 3 5 2
v 4 5 2
v -2 5 1
v 3 5 1
v -2 5 -0
v 3 5 -0
v -3 5 -1
v -2 5 -1
v -1 5 -1
v 2 5 -1
v 3 5 -1
v 4 5 -1
v -2 5 -2
v -1 5 -2
v 0 5 -2
v 1 5 -2
v 2 5 -2
v 3 5 -2
v -1 5 -3
v 2 5 -3
v 2 10 2
v 3 10 2
v 2 10 1
v 3 10 1
v 1 13 3
v 2 13 3
v 1 13 2
v 2 13 2
v -1 14 3
v 0 14 3
v -1 14 2
v 0 14 2
v 1 14 2
v 0 14 1
v 1 14 1
v 0 14 -0
v 1 14 -0
v 0 14 -1
v 1 14 -1
v -2 15 2
v -1 15 2
v -2 15 1
v -1 15 1
v 2 15 -0
v 3 15 -0
v 2 15 -1
v 3 15 -1
v 1 17 1
v 2 17 1
v -2 17 -0
v -1 17 -0
v 1 17 -0
v 2 17 -0
v -2 17 -1
v -1 17 -1
v 0 17 -1
v 1 17 -1
v 2 17 -1
v -1 17 -2
v 0 17 -2
v 1 17 -2
v 2 17 -2
v -1 18 1
v 0 18 1
v -1 18 -0
v 0 18 -0

# faces
f 3/3/1 2/3/1 1/3/1
f 4/3/1 2/3/1 3/3/1
f 9/3/1 6/3/1 5/3/1
f 10/3/1 6/3/1 9/3/1
f 13/3/1 8/3/1 7/3/1
f 14/3/1 8/3/1 13/3/1
f 15/2/1 13/2/1 12/2/1
f 16/2/1 13/2/1 15/2/1
f 17/4/1 11/4/1 10/4/1
f 18/4/1 11/4/1 17/4/1
f 19/4/1 16/4/1 15/4/1
f 20/4/1 16/4/1 19/4/1
f 27/1/1 26/1/1 25/1/1
f 28/1/1 26/1/1 27/1/1
f 29/3/1 22/3/1 21/3/1
f 30/3/1 22/3/1 29/3/1
f 32/2/1 28/2/1 27/2/1
f 33/2/1 28/2/1 32/2/1
f 35/3/1 24/3/1 23/3/1
f 36/3/1 24/3/1 35/3/1
f 37/2/1 31/2/1 30/2/1
f 38/2/1 31/2/1 37/2/1
f 39/4/1 33/4/1 32/4/1
f 40/2/1 35/2/1 34/2/1
f 41/2/1 35/2/1 40/2/1
f 42/4/1 38/4/1 37/4/1
f 43/4/1 38/4/1 42/4/1
f 44/4/1 39/4/1 32/4/1
f 45/4/1 39/4/1 44/4/1
f 46/4/1 41/4/1 40/4/1
f 47/4/1 41/4/1 46/4/1
f 48/4/1 45/4/1 44/4/1
f 49/4/1 45/4/1 48/4/1
f 54/1/1 51/1/1 50/1/1
f 55/1/1 51/1/1 54/1/1
f 56/1/1 53/1/1 52/1/1
f 57/1/1 53/1/1 56/1/1
f 58/2/1 55/2/1 54/2/1
f 59/2/1 57/2/1 56/2/1
f 60/2/1 58/2/1 54/2/1
f 61/2/1 58/2/1 60/2/1
f 62/2/1 57/2/1 59/2/1
f 63/2/1 62/2/1 59/2/1
f 64/2/1 62/2/1 63/2/1
f 65/4/1 61/4/1 60/4/1
f 66/4/1 61/4/1 65/4/1
f 67/4/1 64/4/1 63/4/1
f 68/4/1 64/4/1 67/4/1
f 75/1/1 70/1/1 69/1/1
f 76/1/1 70/1/1 75/1/1
f 77/1/1 72/1/1 71/1/1
f 78/1/1 72/1/1 77/1/1
f 79/1/1 74/1/1 73/1/1
f 80/1/1 74/1/1 79/1/1
f 81/2/1 76/2/1 75/2/1
f 82/2/1 76/2/1 81/2/1
f 83/2/1 78/2/1 77/2/1
f 84/2/1 78/2/1 83/2/1
f 85/2/1 80/2/1 79/2/1
f 86/4/1 82/4/1 81/4/1
f 87/4/1 84/4/1 83/4/1
f 88/2/1 85/2/1 79/2/1
f 89/2/1 85/2/1 88/2/1
f 90/4/1 84/4/1 87/4/1
f 91/4/1 89/4/1 88/4/1
f 92/4/1 86/4/1 81/4/1
f 93/4/1 86/4/1 92/4/1
f 94/4/1 90/4/1 87/4/1
f 95/4/1 90/4/1 94/4/1
f 96/4/1 89/4/1 91/4/1
f 97/4/1 95/4/1 94/4/1
f 98/4/1 95/4/1 97/4/1
f 99/4/1 89/4/1 96/4/1
f 100/4/1 89/4/1 99/4/1
f 105/1/1 102/1/1 101/1/1
f 106/1/1 102/1/1 105/1/1
f 107/1/1 104/1/1 103/1/1
f 108/1/1 104/1/1 107/1/1
f 109/2/1 106/2/1 105/2/1
f 110/2/1 106/2/1 109/2/1
f 111/2/1 108/2/1 107/2/1
f 112/2/1 108/2/1 111/2/1
f 113/2/1 108/2/1 112/2/1
f 114/4/1 110/4/1 109/4/1
f 115/4/1 110/4/1 114/4/1
f 116/4/1 113/4/1 112/4/1
f 117/4/1 113/4/1 116/4/1
f 120/3/1 119/3/1 118/3/1
f 121/3/1 119/3/1 120/3/1
f 122/3/1 121/3/1 120/3/1
f 123/3/1 121/3/1 122/3/1
f 124/3/2 125/3/2 126/3/2
f 126/3/2 125/3/2 127/3/2
f 126/3/2 127/3/2 128/3/2
f 128/3/2 127/3/2 129/3/2
f 130/1/2 131/1/2 134/1/2
f 134/1/2 131/1/2 135/1/2
f 132/1/2 133/1/2 136/1/2
f 136/1/2 133/1/2 137/1/2
f 134/2/2 135/2/2 138/2/2
f 138/2/2 135/2/2 139/2/2
f 136/2/2 137/2/2 140/2/2
f 138/4/2 139/4/2 141/4/2
f 140/2/2 137/2/2 142/2/2
f 142/2/2 137/2/2 143/2/2
f 141/4/2 139/4/2 144/4/2
f 144/4/2 139/4/2 145/4/2
f 145/4/2 139/4/2 146/4/2
f 142/4/2 143/4/2 147/4/2
f 147/4/2 143/4/2 148/4/2
f 149/1/2 150/1/2 155/1/2
f 155/1/2 150/1/2 156/1/2
f 151/1/2 152/1/2 157/1/2
f 157/1/2 152/1/2 158/1/2
f 153/1/2 154/1/2 159/1/2
f 159/1/2 154/1/2 160/1/2
f 155/2/2 156/2/2 161/2/2
f 157/2/2 158/2/2 162/2/2
f 162/2/2 158/2/2 163/2/2
f 159/2/2 160/2/2 164/2/2
f 161/2/2 156/2/2 165/2/2
f 165/2/2 156/2/2 166/2/2
f 162/4/2 163/4/2 167/4/2
f 159/2/2 164/2/2 168/2/2
f 168/2/2 164/2/2 169/2/2
f 167/4/2 163/4/2 170/4/2
f 168/4/2 169/4/2 171/4/2
f 165/4/2 166/4/2 172/4/2
f 172/4/2 166/4/2 173/4/2
f 167/4/2 170/4/2 174/4/2
f 174/4/2 170/4/2 175/4/2
f 171/4/2 169/4/2 176/4/2
f 176/4/2 169/4/2 177/4/2
f 177/4/2 169/4/2 178/4/2
f 174/4/2 175/4/2 179/4/2
f 179/4/2 175/4/2 180/4/2
f 181/1/2 182/1/2 185/1/2
f 185/1/2 182/1/2 186/1/2
f 183/1/2 184/1/2 187/1/2
f 187/1/2 184/1/2 188/1/2
f 185/2/2 186/2/2 189/2/2
f 189/2/2 186/2/2 190/2/2
f 187/2/2 188/2/2 191/2/2
f 189/2/2 190/2/2 192/2/2
f 192/2/2 190/2/2 193/2/2
f 191/2/2 188/2/2 194/2/2
f 191/2/2 194/2/2 195/2/2
f 195/2/2 194/2/2 196/2/2
f 192/4/2 193/4/2 197/4/2
f 197/4/2 193/4/2 198/4/2
f 198/4/2 193/4/2 199/4/2
f 195/4/2 196/4/2 200/4/2
f 200/4/2 196/4/2 201/4/2
f 206/1/2 207/1/2 208/1/2
f 208/1/2 207/1/2 209/1/2
f 202/3/2 203/3/2 210/3/2
f 210/3/2 203/3/2 211/3/2
f 208/2/2 209/2/2 213/2/2
f 213/2/2 209/2/2 214/2/2
f 204/3/2 205/3/2 216/3/2
f 216/3/2 205/3/2 217/3/2
f 213/4/2 214/4/2 218/4/2
f 215/2/2 216/2/2 219/2/2
f 219/2/2 216/2/2 220/2/2
f 211/4/2 212/4/2 221/4/2
f 213/4/2 218/4/2 222/4/2
f 211/4/2 221/4/2 223/4/2
f 223/4/2 221/4/2 224/4/2
f 222/4/2 218/4/2 225/4/2
f 219/4/2 220/4/2 226/4/2
f 222/4/2 225/4/2 227/4/2
f 227/4/2 225/4/2 228/4/2
f 226/4/2 220/4/2 229/4/2
f 229/4/2 220/4/2 230/4/2
f 231/3/2 232/3/2 235/3/2
f 235/3/2 232/3/2 236/3/2
f 233/3/2 234/3/2 239/3/2
f 239/3/2 234/3/2 240/3/2
f 238/2/2 239/2/2 241/2/2
f 241/2/2 239/2/2 242/2/2
f 236/4/2 237/4/2 243/4/2
f 243/4/2 237/4/2 244/4/2
f 241/4/2 242/4/2 245/4/2
f 245/4/2 242/4/2 246/4/2
f 247/3/2 248/3/2 249/3/2
f 249/3/2 248/3/2 250/3/2
f 253/3/3 252/3/3 251/3/3
f 254/3/3 252/3/3 253/3/3
f 257/3/3 256/3/3 255/3/3
f 258/3/3 256/3/3 257/3/3
f 261/2/3 259/2/3 258/2/3
f 262/4/3 260/4/3 259/4/3
f 262/2/3 259/2/3 261/2/3
f 263/4/3 260/4/3 262/4/3
f 267/4/3 265/4/3 264/4/3
f 268/4/3 265/4/3 267/4/3
f 269/3/3 267/3/3 266/3/3
f 270/3/3 267/3/3 269/3/3
f 273/3/3 272/3/3 271/3/3
f 274/3/3 272/3/3 273/3/3
f 276/4/3 275/4/3 274/4/3
f 277/4/3 275/4/3 276/4/3
f 278/4/3 275/4/3 277/4/3
f 279/4/3 275/4/3 278/4/3
f 284/1/3 281/1/3 280/1/3
f 285/2/3 282/2/3 281/2/3
f 285/1/3 281/1/3 284/1/3
f 286/2/3 282/2/3 285/2/3
f 287/4/3 283/4/3 282/4/3
f 287/2/3 282/2/3 286/2/3
f 288/4/3 283/4/3 287/4/3
f 289/4/3 283/4/3 288/4/3
f 293/4/3 291/4/3 290/4/3
f 294/4/3 291/4/3 293/4/3
f 295/3/3 293/3/3 292/3/3
f 296/3/3 293/3/3 295/3/3
f 302/1/3 298/1/3 297/1/3
f 303/2/3 299/2/3 298/2/3
f 303/1/3 298/1/3 302/1/3
f 304/4/3 301/4/3 300/4/3
f 304/2/3 299/2/3 303/2/3
f 304/4/3 300/4/3 299/4/3
f 305/4/3 301/4/3 304/4/3
f 306/4/3 301/4/3 305/4/3
f 307/4/3 301/4/3 306/4/3
f 314/1/3 309/1/3 308/1/3
f 315/2/3 310/2/3 309/2/3
f 315/1/3 309/1/3 314/1/3
f 316/4/3 313/4/3 312/4/3
f 316/2/3 310/2/3 315/2/3
f 316/4/3 311/4/3 310/4/3
f 316/4/3 312/4/3 311/4/3
f 317/4/3 313/4/3 316/4/3
f 318/4/3 313/4/3 317/4/3
f 324/1/3 320/1/3 319/1/3
f 325/2/3 321/2/3 320/2/3
f 325/1/3 320/1/3 324/1/3
f 325/2/3 322/2/3 321/2/3
f 326/2/3 322/2/3 325/2/3
f 327/4/3 323/4/3 322/4/3
f 327/2/3 322/2/3 326/2/3
f 328/4/3 323/4/3 327/4/3
f 334/1/3 330/1/3 329/1/3
f 335/2/3 331/2/3 330/2/3
f 335/1/3 330/1/3 334/1/3
f 335/2/3 332/2/3 331/2/3
f 336/2/3 332/2/3 335/2/3
f 337/4/3 333/4/3 332/4/3
f 337/2/3 332/2/3 336/2/3
f 338/4/3 333/4/3 337/4/3
f 344/1/3 340/1/3 339/1/3
f 345/2/3 342/2/3 341/2/3
f 345/1/3 340/1/3 344/1/3
f 345/2/3 341/2/3 340/2/3
f 346/2/3 342/2/3 345/2/3
f 347/4/3 343/4/3 342/4/3
f 347/2/3 342/2/3 346/2/3
f 348/4/3 343/4/3 347/4/3
f 353/1/3 350/1/3 349/1/3
f 354/2/3 351/2/3 350/2/3
f 354/1/3 350/1/3 353/1/3
f 355/4/3 352/4/3 351/4/3
f 355/2/3 351/2/3 354/2/3
f 356/4/3 352/4/3 355/4/3
f 357/4/3 352/4/3 356/4/3
f 358/4/3 352/4/3 357/4/3
f 365/1/3 360/1/3 359/1/3
f 366/2/3 361/2/3 360/2/3
f 366/1/3 360/1/3 365/1/3
f 367/4/3 364/4/3 363/4/3
f 367/2/3 361/2/3 366/2/3
f 367/4/3 362/4/3 361/4/3
f 367/4/3 363/4/3 362/4/3
f 368/4/3 364/4/3 367/4/3
f 369/4/3 364/4/3 368/4/3
f 373/3/3 371/3/3 370/3/3
f 373/3/3 372/3/3 371/3/3
f 374/3/3 372/3/3 373/3/3
f 375/3/3 372/3/3 374/3/3
f 376/3/4 377/3/4 379/3/4
f 377/3/4 378/3/4 379/3/4
f 379/3/4 378/3/4 380/3/4
f 380/3/4 378/3/4 381/3/4
f 382/1/4 383/1/4 387/1/4
f 383/2/4 384/2/4 388/2/4
f 387/1/4 383/1/4 388/1/4
f 384/2/4 385/2/4 388/2/4
f 385/4/4 386/4/4 389/4/4
f 388/2/4 385/2/4 389/2/4
f 389/4/4 386/4/4 390/4/4
f 391/1/4 392/1/4 396/1/4
f 392/2/4 393/2/4 397/2/4
f 396/1/4 392/1/4 397/1/4
f 394/4/4 395/4/4 398/4/4
f 397/2/4 393/2/4 398/2/4
f 393/4/4 394/4/4 398/4/4
f 398/4/4 395/4/4 399/4/4
f 399/4/4 395/4/4 400/4/4
f 401/1/4 402/1/4 405/1/4
f 402/2/4 403/2/4 406/2/4
f 405/1/4 402/1/4 406/1/4
f 403/4/4 404/4/4 407/4/4
f 406/2/4 403/2/4 407/2/4
f 407/4/4 404/4/4 408/4/4
f 409/1/4 410/1/4 414/1/4
f 410/2/4 411/2/4 415/2/4
f 414/1/4 410/1/4 415/1/4
f 411/2/4 412/2/4 415/2/4
f 415/2/4 412/2/4 416/2/4
f 412/4/4 413/4/4 417/4/4
f 416/2/4 412/2/4 417/2/4
f 417/4/4 413/4/4 418/4/4
f 419/1/4 420/1/4 423/1/4
f 420/2/4 421/2/4 424/2/4
f 423/1/4 420/1/4 424/1/4
f 421/4/4 422/4/4 425/4/4
f 424/2/4 421/2/4 425/2/4
f 425/4/4 422/4/4 426/4/4
f 427/1/4 428/1/4 433/1/4
f 428/2/4 429/2/4 434/2/4
f 433/1/4 428/1/4 434/1/4
f 431/4/4 432/4/4 435/4/4
f 434/2/4 429/2/4 435/2/4
f 429/4/4 430/4/4 435/4/4
f 430/4/4 431/4/4 435/4/4
f 435/4/4 432/4/4 436/4/4
f 436/4/4 432/4/4 437/4/4
f 437/4/4 432/4/4 438/4/4
f 439/1/4 440/1/4 445/1/4
f 440/2/4 441/2/4 446/2/4
f 445/1/4 440/1/4 446/1/4
f 443/4/4 444/4/4 447/4/4
f 446/2/4 441/2/4 447/2/4
f 441/4/4 442/4/4 447/4/4
f 442/4/4 443/4/4 447/4/4
f 447/4/4 444/4/4 448/4/4
f 448/4/4 444/4/4 449/4/4
f 449/4/4 444/4/4 450/4/4
f 451/3/4 452/3/4 453/3/4
f 453/3/4 452/3/4 454/3/4
f 454/2/4 455/2/4 457/2/4
f 455/4/4 456/4/4 458/4/4
f 457/2/4 455/2/4 458/2/4
f 458/4/4 456/4/4 459/4/4
f 460/1/4 461/1/4 465/1/4
f 461/2/4 462/2/4 466/2/4
f 465/1/4 461/1/4 466/1/4
f 462/2/4 463/2/4 466/2/4
f 466/2/4 463/2/4 467/2/4
f 463/4/4 464/4/4 468/4/4
f 467/2/4 463/2/4 468/2/4
f 468/4/4 464/4/4 469/4/4
f 470/2/4 471/2/4 474/2/4
f 471/4/4 472/4/4 475/4/4
f 474/2/4 471/2/4 475/2/4
f 475/4/4 472/4/4 476/4/4
f 473/3/4 474/3/4 477/3/4
f 477/3/4 474/3/4 478/3/4
f 479/3/4 480/3/4 481/3/4
f 481/3/4 480/3/4 482/3/4
f 482/2/4 483/2/4 485/2/4
f 483/4/4 484/4/4 486/4/4
f 485/2/4 483/2/4 486/2/4
f 486/4/4 484/4/4 487/4/4
f 488/2/4 489/2/4 492/2/4
f 489/4/4 490/4/4 493/4/4
f 492/2/4 489/2/4 493/2/4
f 493/4/4 490/4/4 494/4/4
f 491/3/4 492/3/4 495/3/4
f 495/3/4 492/3/4 496/3/4
f 497/3/4 498/3/4 499/3/4
f 499/3/4 498/3/4 500/3/4
f 504/3/5 502/3/5 501/3/5
f 505/3/5 502/3/5 504/3/5
f 508/3/5 504/3/5 503/3/5
f 508/3/5 506/3/5 505/3/5
f 508/3/5 505/3/5 504/3/5
f 509/3/5 506/3/5 508/3/5
f 511/3/5 508/3/5 507/3/5
f 511/3/5 510/3/5 509/3/5
f 511/3/5 509/3/5 508/3/5
f 512/3/5 510/3/5 511/3/5
f 513/3/5 510/3/5 512/3/5
f 514/3/5 510/3/5 513/3/5
f 515/3/5 513/3/5 512/3/5
f 516/3/5 513/3/5 515/3/5
f 517/3/5 513/3/5 516/3/5
f 518/3/5 513/3/5 517/3/5
f 519/3/5 517/3/5 516/3/5
f 520/3/5 517/3/5 519/3/5
f 521/3/6 522/3/6 524/3/6
f 524/3/6 522/3/6 525/3/6
f 523/3/6 524/3/6 528/3/6
f 528/3/6 524/3/6 529/3/6
f 525/3/6 526/3/6 530/3/6
f 530/3/6 526/3/6 531/3/6
f 527/3/6 528/3/6 533/3/6
f 533/3/6 528/3/6 534/3/6
f 529/3/6 530/3/6 535/3/6
f 535/3/6 530/3/6 536/3/6
f 531/3/6 532/3/6 537/3/6
f 537/3/6 532/3/6 538/3/6
f 534/3/6 535/3/6 539/3/6
f 539/3/6 535/3/6 540/3/6
f 536/3/6 537/3/6 541/3/6
f 541/3/6 537/3/6 542/3/6
f 540/3/6 541/3/6 543/3/6
f 543/3/6 541/3/6 544/3/6
f 545/3/6 546/3/6 548/3/6
f 548/3/6 546/3/6 549/3/6
f 549/3/6 546/3/6 550/3/6
f 550/3/6 546/3/6 551/3/6
f 547/3/6 548/3/6 554/3/6
f 554/3/6 548/3/6 555/3/6
f 551/3/6 552/3/6 556/3/6
f 556/3/6 552/3/6 557/3/6
f 553/3/6 554/3/6 559/3/6
f 557/3/6 558/3/6 560/3/6
f 553/3/6 559/3/6 561/3/6
f 560/3/6 558/3/6 562/3/6
f 553/3/6 561/3/6 563/3/6
f 563/3/6 561/3/6 564/3/6
f 562/3/6 558/3/6 567/3/6
f 567/3/6 558/3/6 568/3/6
f 564/3/6 565/3/6 569/3/6
f 569/3/6 565/3/6 570/3/6
f 566/3/6 567/3/6 573/3/6
f 573/3/6 567/3/6 574/3/6
f 571/3/6 572/3/6 575/3/6
f 572/3/6 573/3/6 575/3/6
f 570/3/6 571/3/6 575/3/6
f 575/3/6 573/3/6 576/3/6
f 577/4/6 578/4/6 579/4/6
f 579/4/6 578/4/6 580/4/6
f 581/4/6 582/4/6 583/4/6
f 583/4/6 582/4/6 584/4/6
f 585/4/6 586/4/6 587/4/6
f 587/4/6 586/4/6 588/4/6
f 588/4/6 589/4/6 590/4/6
f 590/4/6 589/4/6 591/4/6
f 592/4/6 593/4/6 594/4/6
f 594/4/6 593/4/6 595/4/6
f 596/4/6 597/4/6 598/4/6
f 598/4/6 597/4/6 599/4/6
f 600/4/6 601/4/6 602/4/6
f 602/4/6 601/4/6 603/4/6
f 604/4/6 605/4/6 608/4/6
f 608/4/6 605/4/6 609/4/6
f 606/4/6 607/4/6 610/4/6
f 610/4/6 607/4/6 611/4/6
f 611/4/6 612/4/6 615/4/6
f 615/4/6 612/4/6 616/4/6
f 613/4/6 614/4/6 617/4/6
f 617/4/6 614/4/6 618/4/6
f 619/4/6 620/4/6 621/4/6
f 621/4/6 620/4/6 622/4/6
