# MagicaVoxel @ Ephtracy

# group
g ziemniak

# material
mtllib ziemniak.mtl
usemtl palette

# normals
vn -1 0 0
vn 1 0 0
vn 0 0 1
vn 0 0 -1
vn 0 -1 0
vn 0 1 0

# texcoords
vt 0.369141 0.5
vt 0.373047 0.5

# verts
v -2.5 1 0.5
v -2.5 1 -0.5
v -2.5 1 -1.5
v -2.5 2 0.5
v -2.5 2 -0.5
v -2.5 2 -1.5
v -1.5 0 0.5
v -1.5 0 -0.5
v -1.5 0 -1.5
v -1.5 1 1.5
v -1.5 1 0.5
v -1.5 1 -0.5
v -1.5 1 -1.5
v -1.5 1 -2.5
v -1.5 2 1.5
v -1.5 2 0.5
v -1.5 2 -0.5
v -1.5 2 -1.5
v -1.5 2 -2.5
v -1.5 3 0.5
v -1.5 3 -0.5
v -1.5 3 -1.5
v 1.5 0 0.5
v 1.5 0 -0.5
v 1.5 0 -1.5
v 1.5 1 1.5
v 1.5 1 0.5
v 1.5 1 -0.5
v 1.5 1 -1.5
v 1.5 1 -2.5
v 1.5 2 1.5
v 1.5 2 0.5
v 1.5 2 -0.5
v 1.5 2 -1.5
v 1.5 2 -2.5
v 1.5 3 0.5
v 1.5 3 -0.5
v 1.5 3 -1.5
v 2.5 1 0.5
v 2.5 1 -0.5
v 2.5 1 -1.5
v 2.5 2 0.5
v 2.5 2 -0.5
v 2.5 2 -1.5
v -1.5 1 1.5
v -1.5 2 1.5
v -0.5 1 1.5
v -0.5 2 1.5
v 0.5 1 1.5
v 0.5 2 1.5
v 1.5 1 1.5
v 1.5 2 1.5
v -2.5 1 0.5
v -2.5 2 0.5
v -1.5 0 0.5
v -1.5 1 0.5
v -1.5 2 0.5
v -1.5 3 0.5
v -0.5 0 0.5
v -0.5 1 0.5
v -0.5 2 0.5
v 0.5 0 0.5
v 0.5 1 0.5
v 0.5 2 0.5
v 0.5 3 0.5
v 1.5 0 0.5
v 1.5 1 0.5
v 1.5 2 0.5
v 1.5 3 0.5
v 2.5 1 0.5
v 2.5 2 0.5
v -2.5 1 -1.5
v -2.5 2 -1.5
v -1.5 0 -1.5
v -1.5 1 -1.5
v -1.5 2 -1.5
v -1.5 3 -1.5
v -0.5 0 -1.5
v -0.5 1 -1.5
v -0.5 2 -1.5
v -0.5 3 -1.5
v 0.5 0 -1.5
v 0.5 1 -1.5
v 0.5 2 -1.5
v 1.5 0 -1.5
v 1.5 1 -1.5
v 1.5 2 -1.5
v 1.5 3 -1.5
v 2.5 1 -1.5
v 2.5 2 -1.5
v -1.5 1 -2.5
v -1.5 2 -2.5
v -0.5 1 -2.5
v -0.5 2 -2.5
v 0.5 1 -2.5
v 0.5 2 -2.5
v 1.5 1 -2.5
v 1.5 2 -2.5
v -1.5 0 0.5
v -0.5 0 0.5
v 0.5 0 0.5
v 1.5 0 0.5
v -1.5 0 -0.5
v -0.5 0 -0.5
v 0.5 0 -0.5
v 1.5 0 -0.5
v -1.5 0 -1.5
v -0.5 0 -1.5
v 0.5 0 -1.5
v 1.5 0 -1.5
v -1.5 1 1.5
v -0.5 1 1.5
v 0.5 1 1.5
v 1.5 1 1.5
v -2.5 1 0.5
v -1.5 1 0.5
v -0.5 1 0.5
v 0.5 1 0.5
v 1.5 1 0.5
v 2.5 1 0.5
v -2.5 1 -0.5
v -1.5 1 -0.5
v 1.5 1 -0.5
v 2.5 1 -0.5
v -2.5 1 -1.5
v -1.5 1 -1.5
v -0.5 1 -1.5
v 0.5 1 -1.5
v 1.5 1 -1.5
v 2.5 1 -1.5
v -1.5 1 -2.5
v -0.5 1 -2.5
v 0.5 1 -2.5
v 1.5 1 -2.5
v -1.5 2 1.5
v -0.5 2 1.5
v 0.5 2 1.5
v 1.5 2 1.5
v -2.5 2 0.5
v -1.5 2 0.5
v -0.5 2 0.5
v 0.5 2 0.5
v 1.5 2 0.5
v 2.5 2 0.5
v -2.5 2 -0.5
v -1.5 2 -0.5
v 1.5 2 -0.5
v 2.5 2 -0.5
v -2.5 2 -1.5
v -1.5 2 -1.5
v -0.5 2 -1.5
v 0.5 2 -1.5
v 1.5 2 -1.5
v 2.5 2 -1.5
v -1.5 2 -2.5
v -0.5 2 -2.5
v 0.5 2 -2.5
v 1.5 2 -2.5
v -1.5 3 0.5
v 0.5 3 0.5
v 1.5 3 0.5
v -1.5 3 -0.5
v -0.5 3 -0.5
v 0.5 3 -0.5
v 1.5 3 -0.5
v -1.5 3 -1.5
v -0.5 3 -1.5
v 1.5 3 -1.5

# faces
f 4/2/1 2/2/1 1/2/1
f 5/1/1 3/1/1 2/1/1
f 5/2/1 2/2/1 4/2/1
f 6/1/1 3/1/1 5/1/1
f 11/1/1 8/1/1 7/1/1
f 12/2/1 9/2/1 8/2/1
f 12/1/1 8/1/1 11/1/1
f 13/2/1 9/2/1 12/2/1
f 15/2/1 11/2/1 10/2/1
f 16/2/1 11/2/1 15/2/1
f 18/2/1 14/2/1 13/2/1
f 19/2/1 14/2/1 18/2/1
f 20/1/1 17/1/1 16/1/1
f 21/2/1 18/2/1 17/2/1
f 21/1/1 17/1/1 20/1/1
f 22/2/1 18/2/1 21/2/1
f 23/1/2 24/1/2 27/1/2
f 24/2/2 25/2/2 28/2/2
f 27/1/2 24/1/2 28/1/2
f 28/2/2 25/2/2 29/2/2
f 26/2/2 27/2/2 31/2/2
f 31/2/2 27/2/2 32/2/2
f 29/2/2 30/2/2 34/2/2
f 34/2/2 30/2/2 35/2/2
f 32/2/2 33/2/2 36/2/2
f 33/1/2 34/1/2 37/1/2
f 36/2/2 33/2/2 37/2/2
f 37/1/2 34/1/2 38/1/2
f 39/1/2 40/1/2 42/1/2
f 40/2/2 41/2/2 43/2/2
f 42/1/2 40/1/2 43/1/2
f 43/2/2 41/2/2 44/2/2
f 47/2/3 46/2/3 45/2/3
f 48/2/3 46/2/3 47/2/3
f 49/1/3 48/1/3 47/1/3
f 50/1/3 48/1/3 49/1/3
f 51/2/3 50/2/3 49/2/3
f 52/2/3 50/2/3 51/2/3
f 56/2/3 54/2/3 53/2/3
f 57/2/3 54/2/3 56/2/3
f 59/1/3 56/1/3 55/1/3
f 60/1/3 56/1/3 59/1/3
f 61/1/3 58/1/3 57/1/3
f 62/2/3 60/2/3 59/2/3
f 63/2/3 60/2/3 62/2/3
f 64/1/3 58/1/3 61/1/3
f 65/1/3 58/1/3 64/1/3
f 66/1/3 63/1/3 62/1/3
f 67/1/3 63/1/3 66/1/3
f 68/2/3 65/2/3 64/2/3
f 69/2/3 65/2/3 68/2/3
f 70/1/3 68/1/3 67/1/3
f 71/1/3 68/1/3 70/1/3
f 72/1/4 73/1/4 75/1/4
f 75/1/4 73/1/4 76/1/4
f 74/2/4 75/2/4 78/2/4
f 78/2/4 75/2/4 79/2/4
f 76/2/4 77/2/4 80/2/4
f 80/2/4 77/2/4 81/2/4
f 78/1/4 79/1/4 82/1/4
f 82/1/4 79/1/4 83/1/4
f 80/1/4 81/1/4 84/1/4
f 82/2/4 83/2/4 85/2/4
f 85/2/4 83/2/4 86/2/4
f 84/1/4 81/1/4 87/1/4
f 87/1/4 81/1/4 88/1/4
f 86/2/4 87/2/4 89/2/4
f 89/2/4 87/2/4 90/2/4
f 91/2/4 92/2/4 93/2/4
f 93/2/4 92/2/4 94/2/4
f 93/1/4 94/1/4 95/1/4
f 95/1/4 94/1/4 96/1/4
f 95/2/4 96/2/4 97/2/4
f 97/2/4 96/2/4 98/2/4
f 103/1/5 100/1/5 99/1/5
f 104/2/5 101/2/5 100/2/5
f 104/1/5 100/1/5 103/1/5
f 105/1/5 102/1/5 101/1/5
f 105/2/5 101/2/5 104/2/5
f 106/1/5 102/1/5 105/1/5
f 107/2/5 104/2/5 103/2/5
f 108/1/5 105/1/5 104/1/5
f 108/2/5 104/2/5 107/2/5
f 109/2/5 106/2/5 105/2/5
f 109/1/5 105/1/5 108/1/5
f 110/2/5 106/2/5 109/2/5
f 116/2/5 112/2/5 111/2/5
f 117/1/5 113/1/5 112/1/5
f 117/2/5 112/2/5 116/2/5
f 118/2/5 114/2/5 113/2/5
f 118/1/5 113/1/5 117/1/5
f 119/2/5 114/2/5 118/2/5
f 121/2/5 116/2/5 115/2/5
f 122/2/5 116/2/5 121/2/5
f 123/1/5 120/1/5 119/1/5
f 124/1/5 120/1/5 123/1/5
f 125/1/5 122/1/5 121/1/5
f 126/1/5 122/1/5 125/1/5
f 129/2/5 124/2/5 123/2/5
f 130/2/5 124/2/5 129/2/5
f 131/2/5 127/2/5 126/2/5
f 132/1/5 128/1/5 127/1/5
f 132/2/5 127/2/5 131/2/5
f 133/2/5 129/2/5 128/2/5
f 133/1/5 128/1/5 132/1/5
f 134/2/5 129/2/5 133/2/5
f 135/2/6 136/2/6 140/2/6
f 136/1/6 137/1/6 141/1/6
f 140/2/6 136/2/6 141/2/6
f 137/2/6 138/2/6 142/2/6
f 141/1/6 137/1/6 142/1/6
f 142/2/6 138/2/6 143/2/6
f 139/2/6 140/2/6 145/2/6
f 145/2/6 140/2/6 146/2/6
f 143/1/6 144/1/6 147/1/6
f 147/1/6 144/1/6 148/1/6
f 145/1/6 146/1/6 149/1/6
f 149/1/6 146/1/6 150/1/6
f 147/2/6 148/2/6 153/2/6
f 153/2/6 148/2/6 154/2/6
f 150/2/6 151/2/6 155/2/6
f 151/1/6 152/1/6 156/1/6
f 155/2/6 151/2/6 156/2/6
f 152/2/6 153/2/6 157/2/6
f 156/1/6 152/1/6 157/1/6
f 157/2/6 153/2/6 158/2/6
f 159/1/6 160/1/6 162/1/6
f 162/1/6 160/1/6 163/1/6
f 160/2/6 161/2/6 164/2/6
f 163/1/6 160/1/6 164/1/6
f 164/2/6 161/2/6 165/2/6
f 162/2/6 163/2/6 166/2/6
f 163/1/6 164/1/6 167/1/6
f 166/2/6 163/2/6 167/2/6
f 164/1/6 165/1/6 167/1/6
f 167/1/6 165/1/6 168/1/6
