# MagicaVoxel @ Ephtracy

# group
g buty dwa czarne

# material
mtllib buty dwa czarne.mtl
usemtl palette

# normals
vn -1 0 0
vn 1 0 0
vn 0 0 1
vn 0 0 -1
vn 0 -1 0
vn 0 1 0

# texcoords
vt 0.962891 0.5
vt 0.994141 0.5

# verts
v -5 0 3
v -5 0 2
v -5 0 1
v -5 0 -0
v -5 0 -1
v -5 0 -2
v -5 1 3
v -5 1 2
v -5 1 1
v -5 1 -0
v -5 1 -1
v -5 2 2
v -5 2 1
v -5 2 -0
v -5 2 -1
v -5 2 -2
v -5 3 1
v -5 3 -0
v -5 3 -1
v -4 0 -2
v -4 0 -3
v -4 1 3
v -4 1 2
v -4 1 1
v -4 1 -0
v -4 1 -1
v -4 2 3
v -4 2 2
v -4 2 1
v -4 2 -0
v -4 2 -1
v -4 2 -2
v -4 2 -3
v -4 3 2
v -4 3 1
v -4 3 -1
v -4 3 -2
v -2 2 1
v -2 2 -0
v -2 2 -1
v -2 3 1
v -2 3 -0
v -2 3 -1
v 1 0 3
v 1 0 2
v 1 0 1
v 1 0 -0
v 1 0 -1
v 1 0 -2
v 1 1 3
v 1 1 2
v 1 1 1
v 1 1 -0
v 1 1 -1
v 1 2 2
v 1 2 1
v 1 2 -0
v 1 2 -1
v 1 2 -2
v 1 3 1
v 1 3 -0
v 1 3 -1
v 2 0 -2
v 2 0 -3
v 2 1 3
v 2 1 2
v 2 1 1
v 2 1 -0
v 2 1 -1
v 2 2 3
v 2 2 2
v 2 2 1
v 2 2 -0
v 2 2 -1
v 2 2 -2
v 2 2 -3
v 2 3 2
v 2 3 1
v 2 3 -1
v 2 3 -2
v 4 2 1
v 4 2 -0
v 4 2 -1
v 4 3 1
v 4 3 -0
v 4 3 -1
v -4 2 1
v -4 2 -0
v -4 2 -1
v -4 3 1
v -4 3 -0
v -4 3 -1
v -2 0 -2
v -2 0 -3
v -2 1 3
v -2 1 2
v -2 1 1
v -2 1 -0
v -2 1 -1
v -2 2 3
v -2 2 2
v -2 2 1
v -2 2 -0
v -2 2 -1
v -2 2 -2
v -2 2 -3
v -2 3 2
v -2 3 1
v -2 3 -1
v -2 3 -2
v -1 0 3
v -1 0 2
v -1 0 1
v -1 0 -0
v -1 0 -1
v -1 0 -2
v -1 1 3
v -1 1 2
v -1 1 1
v -1 1 -0
v -1 1 -1
v -1 2 2
v -1 2 1
v -1 2 -0
v -1 2 -1
v -1 2 -2
v -1 3 1
v -1 3 -0
v -1 3 -1
v 2 2 1
v 2 2 -0
v 2 2 -1
v 2 3 1
v 2 3 -0
v 2 3 -1
v 4 0 -2
v 4 0 -3
v 4 1 3
v 4 1 2
v 4 1 1
v 4 1 -0
v 4 1 -1
v 4 2 3
v 4 2 2
v 4 2 1
v 4 2 -0
v 4 2 -1
v 4 2 -2
v 4 2 -3
v 4 3 2
v 4 3 1
v 4 3 -1
v 4 3 -2
v 5 0 3
v 5 0 2
v 5 0 1
v 5 0 -0
v 5 0 -1
v 5 0 -2
v 5 1 3
v 5 1 2
v 5 1 1
v 5 1 -0
v 5 1 -1
v 5 2 2
v 5 2 1
v 5 2 -0
v 5 2 -1
v 5 2 -2
v 5 3 1
v 5 3 -0
v 5 3 -1
v -5 0 3
v -5 1 3
v -4 1 3
v -4 2 3
v -2 1 3
v -2 2 3
v -1 0 3
v -1 1 3
v 1 0 3
v 1 1 3
v 2 1 3
v 2 2 3
v 4 1 3
v 4 2 3
v 5 0 3
v 5 1 3
v -5 1 2
v -5 2 2
v -4 1 2
v -4 2 2
v -4 3 2
v -2 1 2
v -2 2 2
v -2 3 2
v -1 1 2
v -1 2 2
v 1 1 2
v 1 2 2
v 2 1 2
v 2 2 2
v 2 3 2
v 4 1 2
v 4 2 2
v 4 3 2
v 5 1 2
v 5 2 2
v -5 2 1
v -5 3 1
v -4 2 1
v -4 3 1
v -2 2 1
v -2 3 1
v -1 2 1
v -1 3 1
v 1 2 1
v 1 3 1
v 2 2 1
v 2 3 1
v 4 2 1
v 4 3 1
v 5 2 1
v 5 3 1
v -5 1 -1
v -5 2 -1
v -4 1 -1
v -4 2 -1
v -4 3 -1
v -2 1 -1
v -2 2 -1
v -2 3 -1
v -1 1 -1
v -1 2 -1
v 1 1 -1
v 1 2 -1
v 2 1 -1
v 2 2 -1
v 2 3 -1
v 4 1 -1
v 4 2 -1
v 4 3 -1
v 5 1 -1
v 5 2 -1
v -5 1 1
v -5 2 1
v -4 1 1
v -4 2 1
v -4 3 1
v -2 1 1
v -2 2 1
v -2 3 1
v -1 1 1
v -1 2 1
v 1 1 1
v 1 2 1
v 2 1 1
v 2 2 1
v 2 3 1
v 4 1 1
v 4 2 1
v 4 3 1
v 5 1 1
v 5 2 1
v -5 2 -1
v -5 3 -1
v -4 2 -1
v -4 3 -1
v -2 2 -1
v -2 3 -1
v -1 2 -1
v -1 3 -1
v 1 2 -1
v 1 3 -1
v 2 2 -1
v 2 3 -1
v 4 2 -1
v 4 3 -1
v 5 2 -1
v 5 3 -1
v -5 0 -2
v -5 2 -2
v -4 0 -2
v -4 2 -2
v -4 3 -2
v -2 0 -2
v -2 2 -2
v -2 3 -2
v -1 0 -2
v -1 2 -2
v 1 0 -2
v 1 2 -2
v 2 0 -2
v 2 2 -2
v 2 3 -2
v 4 0 -2
v 4 2 -2
v 4 3 -2
v 5 0 -2
v 5 2 -2
v -4 0 -3
v -4 2 -3
v -2 0 -3
v -2 2 -3
v 2 0 -3
v 2 2 -3
v 4 0 -3
v 4 2 -3
v -5 0 3
v -1 0 3
v 1 0 3
v 5 0 3
v -5 0 2
v -4 0 2
v -2 0 2
v -1 0 2
v 1 0 2
v 2 0 2
v 4 0 2
v 5 0 2
v -5 0 1
v -4 0 1
v -2 0 1
v -1 0 1
v 1 0 1
v 2 0 1
v 4 0 1
v 5 0 1
v -5 0 -0
v -4 0 -0
v -2 0 -0
v -1 0 -0
v 1 0 -0
v 2 0 -0
v 4 0 -0
v 5 0 -0
v -5 0 -1
v -4 0 -1
v -2 0 -1
v -1 0 -1
v 1 0 -1
v 2 0 -1
v 4 0 -1
v 5 0 -1
v -5 0 -2
v -4 0 -2
v -2 0 -2
v -1 0 -2
v 1 0 -2
v 2 0 -2
v 4 0 -2
v 5 0 -2
v -4 0 -3
v -2 0 -3
v 2 0 -3
v 4 0 -3
v -5 2 1
v -4 2 1
v -2 2 1
v -1 2 1
v 1 2 1
v 2 2 1
v 4 2 1
v 5 2 1
v -5 2 -0
v -4 2 -0
v -2 2 -0
v -1 2 -0
v 1 2 -0
v 2 2 -0
v 4 2 -0
v 5 2 -0
v -5 2 -1
v -4 2 -1
v -2 2 -1
v -1 2 -1
v 1 2 -1
v 2 2 -1
v 4 2 -1
v 5 2 -1
v -5 1 3
v -4 1 3
v -2 1 3
v -1 1 3
v 1 1 3
v 2 1 3
v 4 1 3
v 5 1 3
v -5 1 2
v -4 1 2
v -2 1 2
v -1 1 2
v 1 1 2
v 2 1 2
v 4 1 2
v 5 1 2
v -5 1 1
v -4 1 1
v -2 1 1
v -1 1 1
v 1 1 1
v 2 1 1
v 4 1 1
v 5 1 1
v -5 1 -0
v -4 1 -0
v -2 1 -0
v -1 1 -0
v 1 1 -0
v 2 1 -0
v 4 1 -0
v 5 1 -0
v -5 1 -1
v -4 1 -1
v -2 1 -1
v -1 1 -1
v 1 1 -1
v 2 1 -1
v 4 1 -1
v 5 1 -1
v -4 2 3
v -2 2 3
v 2 2 3
v 4 2 3
v -5 2 2
v -4 2 2
v -2 2 2
v -1 2 2
v 1 2 2
v 2 2 2
v 4 2 2
v 5 2 2
v -5 2 1
v -4 2 1
v -2 2 1
v -1 2 1
v 1 2 1
v 2 2 1
v 4 2 1
v 5 2 1
v -4 2 -0
v -2 2 -0
v 2 2 -0
v 4 2 -0
v -5 2 -1
v -4 2 -1
v -2 2 -1
v -1 2 -1
v 1 2 -1
v 2 2 -1
v 4 2 -1
v 5 2 -1
v -5 2 -2
v -4 2 -2
v -2 2 -2
v -1 2 -2
v 1 2 -2
v 2 2 -2
v 4 2 -2
v 5 2 -2
v -4 2 -3
v -2 2 -3
v 2 2 -3
v 4 2 -3
v -4 3 2
v -2 3 2
v 2 3 2
v 4 3 2
v -5 3 1
v -4 3 1
v -2 3 1
v -1 3 1
v 1 3 1
v 2 3 1
v 4 3 1
v 5 3 1
v -5 3 -0
v -4 3 -0
v -2 3 -0
v -1 3 -0
v 1 3 -0
v 2 3 -0
v 4 3 -0
v 5 3 -0
v -5 3 -1
v -4 3 -1
v -2 3 -1
v -1 3 -1
v 1 3 -1
v 2 3 -1
v 4 3 -1
v 5 3 -1
v -4 3 -2
v -2 3 -2
v 2 3 -2
v 4 3 -2

# faces
f 7/1/1 2/1/1 1/1/1
f 8/2/1 3/2/1 2/2/1
f 8/1/1 2/1/1 7/1/1
f 9/1/1 4/1/1 3/1/1
f 9/2/1 3/2/1 8/2/1
f 10/2/1 5/2/1 4/2/1
f 10/1/1 4/1/1 9/1/1
f 11/1/1 6/1/1 5/1/1
f 11/2/1 5/2/1 10/2/1
f 12/1/1 9/1/1 8/1/1
f 13/1/1 9/1/1 12/1/1
f 15/1/1 6/1/1 11/1/1
f 16/1/1 6/1/1 15/1/1
f 17/1/1 14/1/1 13/1/1
f 18/2/1 15/2/1 14/2/1
f 18/1/1 14/1/1 17/1/1
f 19/2/1 15/2/1 18/2/1
f 27/1/1 23/1/1 22/1/1
f 28/1/1 23/1/1 27/1/1
f 29/1/1 26/1/1 25/1/1
f 29/1/1 25/1/1 24/1/1
f 30/1/1 26/1/1 29/1/1
f 31/1/1 26/1/1 30/1/1
f 32/1/1 21/1/1 20/1/1
f 33/1/1 21/1/1 32/1/1
f 34/1/1 29/1/1 28/1/1
f 35/1/1 29/1/1 34/1/1
f 36/1/1 32/1/1 31/1/1
f 37/1/1 32/1/1 36/1/1
f 41/1/1 39/1/1 38/1/1
f 42/2/1 40/2/1 39/2/1
f 42/1/1 39/1/1 41/1/1
f 43/2/1 40/2/1 42/2/1
f 50/1/1 45/1/1 44/1/1
f 51/2/1 46/2/1 45/2/1
f 51/1/1 45/1/1 50/1/1
f 52/1/1 47/1/1 46/1/1
f 52/2/1 46/2/1 51/2/1
f 53/2/1 48/2/1 47/2/1
f 53/1/1 47/1/1 52/1/1
f 54/1/1 49/1/1 48/1/1
f 54/2/1 48/2/1 53/2/1
f 55/1/1 52/1/1 51/1/1
f 56/1/1 52/1/1 55/1/1
f 58/1/1 49/1/1 54/1/1
f 59/1/1 49/1/1 58/1/1
f 60/1/1 57/1/1 56/1/1
f 61/2/1 58/2/1 57/2/1
f 61/1/1 57/1/1 60/1/1
f 62/2/1 58/2/1 61/2/1
f 70/1/1 66/1/1 65/1/1
f 71/1/1 66/1/1 70/1/1
f 72/1/1 69/1/1 68/1/1
f 72/1/1 68/1/1 67/1/1
f 73/1/1 69/1/1 72/1/1
f 74/1/1 69/1/1 73/1/1
f 75/1/1 64/1/1 63/1/1
f 76/1/1 64/1/1 75/1/1
f 77/1/1 72/1/1 71/1/1
f 78/1/1 72/1/1 77/1/1
f 79/1/1 75/1/1 74/1/1
f 80/1/1 75/1/1 79/1/1
f 84/1/1 82/1/1 81/1/1
f 85/2/1 83/2/1 82/2/1
f 85/1/1 82/1/1 84/1/1
f 86/2/1 83/2/1 85/2/1
f 87/1/2 88/1/2 90/1/2
f 88/2/2 89/2/2 91/2/2
f 90/1/2 88/1/2 91/1/2
f 91/2/2 89/2/2 92/2/2
f 95/1/2 96/1/2 100/1/2
f 100/1/2 96/1/2 101/1/2
f 98/1/2 99/1/2 102/1/2
f 97/1/2 98/1/2 102/1/2
f 102/1/2 99/1/2 103/1/2
f 103/1/2 99/1/2 104/1/2
f 93/1/2 94/1/2 105/1/2
f 105/1/2 94/1/2 106/1/2
f 101/1/2 102/1/2 107/1/2
f 107/1/2 102/1/2 108/1/2
f 104/1/2 105/1/2 109/1/2
f 109/1/2 105/1/2 110/1/2
f 111/1/2 112/1/2 117/1/2
f 112/2/2 113/2/2 118/2/2
f 117/1/2 112/1/2 118/1/2
f 113/1/2 114/1/2 119/1/2
f 118/2/2 113/2/2 119/2/2
f 114/2/2 115/2/2 120/2/2
f 119/1/2 114/1/2 120/1/2
f 115/1/2 116/1/2 121/1/2
f 120/2/2 115/2/2 121/2/2
f 118/1/2 119/1/2 122/1/2
f 122/1/2 119/1/2 123/1/2
f 121/1/2 116/1/2 125/1/2
f 125/1/2 116/1/2 126/1/2
f 123/1/2 124/1/2 127/1/2
f 124/2/2 125/2/2 128/2/2
f 127/1/2 124/1/2 128/1/2
f 128/2/2 125/2/2 129/2/2
f 130/1/2 131/1/2 133/1/2
f 131/2/2 132/2/2 134/2/2
f 133/1/2 131/1/2 134/1/2
f 134/2/2 132/2/2 135/2/2
f 138/1/2 139/1/2 143/1/2
f 143/1/2 139/1/2 144/1/2
f 141/1/2 142/1/2 145/1/2
f 140/1/2 141/1/2 145/1/2
f 145/1/2 142/1/2 146/1/2
f 146/1/2 142/1/2 147/1/2
f 136/1/2 137/1/2 148/1/2
f 148/1/2 137/1/2 149/1/2
f 144/1/2 145/1/2 150/1/2
f 150/1/2 145/1/2 151/1/2
f 147/1/2 148/1/2 152/1/2
f 152/1/2 148/1/2 153/1/2
f 154/1/2 155/1/2 160/1/2
f 155/2/2 156/2/2 161/2/2
f 160/1/2 155/1/2 161/1/2
f 156/1/2 157/1/2 162/1/2
f 161/2/2 156/2/2 162/2/2
f 157/2/2 158/2/2 163/2/2
f 162/1/2 157/1/2 163/1/2
f 158/1/2 159/1/2 164/1/2
f 163/2/2 158/2/2 164/2/2
f 161/1/2 162/1/2 165/1/2
f 165/1/2 162/1/2 166/1/2
f 164/1/2 159/1/2 168/1/2
f 168/1/2 159/1/2 169/1/2
f 166/1/2 167/1/2 170/1/2
f 167/2/2 168/2/2 171/2/2
f 170/1/2 167/1/2 171/1/2
f 171/2/2 168/2/2 172/2/2
f 175/1/3 174/1/3 173/1/3
f 177/1/3 175/1/3 173/1/3
f 177/1/3 176/1/3 175/1/3
f 178/1/3 176/1/3 177/1/3
f 179/1/3 177/1/3 173/1/3
f 180/1/3 177/1/3 179/1/3
f 183/1/3 182/1/3 181/1/3
f 185/1/3 183/1/3 181/1/3
f 185/1/3 184/1/3 183/1/3
f 186/1/3 184/1/3 185/1/3
f 187/1/3 185/1/3 181/1/3
f 188/1/3 185/1/3 187/1/3
f 191/1/3 190/1/3 189/1/3
f 192/1/3 190/1/3 191/1/3
f 195/1/3 193/1/3 192/1/3
f 196/1/3 193/1/3 195/1/3
f 197/1/3 195/1/3 194/1/3
f 198/1/3 195/1/3 197/1/3
f 201/1/3 200/1/3 199/1/3
f 202/1/3 200/1/3 201/1/3
f 205/1/3 203/1/3 202/1/3
f 206/1/3 203/1/3 205/1/3
f 207/1/3 205/1/3 204/1/3
f 208/1/3 205/1/3 207/1/3
f 211/1/3 210/1/3 209/1/3
f 212/1/3 210/1/3 211/1/3
f 215/1/3 214/1/3 213/1/3
f 216/1/3 214/1/3 215/1/3
f 219/1/3 218/1/3 217/1/3
f 220/1/3 218/1/3 219/1/3
f 223/1/3 222/1/3 221/1/3
f 224/1/3 222/1/3 223/1/3
f 227/1/3 226/1/3 225/1/3
f 228/1/3 226/1/3 227/1/3
f 231/1/3 229/1/3 228/1/3
f 232/1/3 229/1/3 231/1/3
f 233/1/3 231/1/3 230/1/3
f 234/1/3 231/1/3 233/1/3
f 237/1/3 236/1/3 235/1/3
f 238/1/3 236/1/3 237/1/3
f 241/1/3 239/1/3 238/1/3
f 242/1/3 239/1/3 241/1/3
f 243/1/3 241/1/3 240/1/3
f 244/1/3 241/1/3 243/1/3
f 245/1/4 246/1/4 247/1/4
f 247/1/4 246/1/4 248/1/4
f 248/1/4 249/1/4 251/1/4
f 251/1/4 249/1/4 252/1/4
f 250/1/4 251/1/4 253/1/4
f 253/1/4 251/1/4 254/1/4
f 255/1/4 256/1/4 257/1/4
f 257/1/4 256/1/4 258/1/4
f 258/1/4 259/1/4 261/1/4
f 261/1/4 259/1/4 262/1/4
f 260/1/4 261/1/4 263/1/4
f 263/1/4 261/1/4 264/1/4
f 265/2/4 266/2/4 267/2/4
f 267/2/4 266/2/4 268/2/4
f 269/2/4 270/2/4 271/2/4
f 271/2/4 270/2/4 272/2/4
f 273/2/4 274/2/4 275/2/4
f 275/2/4 274/2/4 276/2/4
f 277/2/4 278/2/4 279/2/4
f 279/2/4 278/2/4 280/2/4
f 281/1/4 282/1/4 283/1/4
f 283/1/4 282/1/4 284/1/4
f 284/1/4 285/1/4 287/1/4
f 287/1/4 285/1/4 288/1/4
f 286/1/4 287/1/4 289/1/4
f 289/1/4 287/1/4 290/1/4
f 291/1/4 292/1/4 293/1/4
f 293/1/4 292/1/4 294/1/4
f 294/1/4 295/1/4 297/1/4
f 297/1/4 295/1/4 298/1/4
f 296/1/4 297/1/4 299/1/4
f 299/1/4 297/1/4 300/1/4
f 301/1/4 302/1/4 303/1/4
f 303/1/4 302/1/4 304/1/4
f 305/1/4 306/1/4 307/1/4
f 307/1/4 306/1/4 308/1/4
f 313/1/5 310/1/5 309/1/5
f 314/1/5 310/1/5 313/1/5
f 315/1/5 310/1/5 314/1/5
f 316/1/5 310/1/5 315/1/5
f 317/1/5 312/1/5 311/1/5
f 318/1/5 312/1/5 317/1/5
f 319/1/5 312/1/5 318/1/5
f 320/1/5 312/1/5 319/1/5
f 321/2/5 314/2/5 313/2/5
f 322/1/5 315/1/5 314/1/5
f 322/2/5 314/2/5 321/2/5
f 323/2/5 316/2/5 315/2/5
f 323/1/5 315/1/5 322/1/5
f 324/2/5 316/2/5 323/2/5
f 325/2/5 318/2/5 317/2/5
f 326/1/5 319/1/5 318/1/5
f 326/2/5 318/2/5 325/2/5
f 327/2/5 320/2/5 319/2/5
f 327/1/5 319/1/5 326/1/5
f 328/2/5 320/2/5 327/2/5
f 329/1/5 322/1/5 321/1/5
f 329/1/5 324/1/5 323/1/5
f 329/1/5 323/1/5 322/1/5
f 330/1/5 324/1/5 329/1/5
f 331/1/5 324/1/5 330/1/5
f 332/1/5 324/1/5 331/1/5
f 333/1/5 328/1/5 327/1/5
f 333/1/5 326/1/5 325/1/5
f 333/1/5 327/1/5 326/1/5
f 334/1/5 328/1/5 333/1/5
f 335/1/5 328/1/5 334/1/5
f 336/1/5 328/1/5 335/1/5
f 337/2/5 330/2/5 329/2/5
f 338/1/5 331/1/5 330/1/5
f 338/2/5 330/2/5 337/2/5
f 339/2/5 332/2/5 331/2/5
f 339/1/5 331/1/5 338/1/5
f 340/2/5 332/2/5 339/2/5
f 341/2/5 334/2/5 333/2/5
f 342/1/5 335/1/5 334/1/5
f 342/2/5 334/2/5 341/2/5
f 343/2/5 336/2/5 335/2/5
f 343/1/5 335/1/5 342/1/5
f 344/2/5 336/2/5 343/2/5
f 345/1/5 338/1/5 337/1/5
f 345/1/5 340/1/5 339/1/5
f 345/1/5 339/1/5 338/1/5
f 346/1/5 340/1/5 345/1/5
f 347/1/5 340/1/5 346/1/5
f 348/1/5 340/1/5 347/1/5
f 349/1/5 344/1/5 343/1/5
f 349/1/5 342/1/5 341/1/5
f 349/1/5 343/1/5 342/1/5
f 350/1/5 344/1/5 349/1/5
f 351/1/5 344/1/5 350/1/5
f 352/1/5 344/1/5 351/1/5
f 353/1/5 347/1/5 346/1/5
f 354/1/5 347/1/5 353/1/5
f 355/1/5 351/1/5 350/1/5
f 356/1/5 351/1/5 355/1/5
f 365/1/5 358/1/5 357/1/5
f 366/1/5 358/1/5 365/1/5
f 367/1/5 360/1/5 359/1/5
f 368/1/5 360/1/5 367/1/5
f 369/1/5 362/1/5 361/1/5
f 370/1/5 362/1/5 369/1/5
f 371/1/5 364/1/5 363/1/5
f 372/1/5 364/1/5 371/1/5
f 373/2/5 366/2/5 365/2/5
f 374/2/5 366/2/5 373/2/5
f 375/2/5 368/2/5 367/2/5
f 376/2/5 368/2/5 375/2/5
f 377/2/5 370/2/5 369/2/5
f 378/2/5 370/2/5 377/2/5
f 379/2/5 372/2/5 371/2/5
f 380/2/5 372/2/5 379/2/5
f 381/1/6 382/1/6 389/1/6
f 389/1/6 382/1/6 390/1/6
f 383/1/6 384/1/6 391/1/6
f 391/1/6 384/1/6 392/1/6
f 385/1/6 386/1/6 393/1/6
f 393/1/6 386/1/6 394/1/6
f 387/1/6 388/1/6 395/1/6
f 395/1/6 388/1/6 396/1/6
f 397/1/6 398/1/6 405/1/6
f 405/1/6 398/1/6 406/1/6
f 399/1/6 400/1/6 407/1/6
f 407/1/6 400/1/6 408/1/6
f 401/1/6 402/1/6 409/1/6
f 409/1/6 402/1/6 410/1/6
f 403/1/6 404/1/6 411/1/6
f 411/1/6 404/1/6 412/1/6
f 405/2/6 406/2/6 413/2/6
f 413/2/6 406/2/6 414/2/6
f 407/2/6 408/2/6 415/2/6
f 415/2/6 408/2/6 416/2/6
f 409/2/6 410/2/6 417/2/6
f 417/2/6 410/2/6 418/2/6
f 411/2/6 412/2/6 419/2/6
f 419/2/6 412/2/6 420/2/6
f 421/1/6 422/1/6 426/1/6
f 426/1/6 422/1/6 427/1/6
f 423/1/6 424/1/6 430/1/6
f 430/1/6 424/1/6 431/1/6
f 425/1/6 426/1/6 433/1/6
f 433/1/6 426/1/6 434/1/6
f 427/1/6 428/1/6 435/1/6
f 435/1/6 428/1/6 436/1/6
f 429/1/6 430/1/6 437/1/6
f 437/1/6 430/1/6 438/1/6
f 431/1/6 432/1/6 439/1/6
f 439/1/6 432/1/6 440/1/6
f 434/1/6 435/1/6 441/1/6
f 441/1/6 435/1/6 442/1/6
f 438/1/6 439/1/6 443/1/6
f 443/1/6 439/1/6 444/1/6
f 441/1/6 442/1/6 446/1/6
f 446/1/6 442/1/6 447/1/6
f 443/1/6 444/1/6 450/1/6
f 450/1/6 444/1/6 451/1/6
f 445/1/6 446/1/6 453/1/6
f 453/1/6 446/1/6 454/1/6
f 447/1/6 448/1/6 455/1/6
f 455/1/6 448/1/6 456/1/6
f 449/1/6 450/1/6 457/1/6
f 457/1/6 450/1/6 458/1/6
f 451/1/6 452/1/6 459/1/6
f 459/1/6 452/1/6 460/1/6
f 454/1/6 455/1/6 461/1/6
f 461/1/6 455/1/6 462/1/6
f 458/1/6 459/1/6 463/1/6
f 463/1/6 459/1/6 464/1/6
f 465/1/6 466/1/6 470/1/6
f 470/1/6 466/1/6 471/1/6
f 467/1/6 468/1/6 474/1/6
f 474/1/6 468/1/6 475/1/6
f 469/1/6 470/1/6 477/1/6
f 477/1/6 470/1/6 478/1/6
f 471/1/6 472/1/6 479/1/6
f 479/1/6 472/1/6 480/1/6
f 473/1/6 474/1/6 481/1/6
f 481/1/6 474/1/6 482/1/6
f 475/1/6 476/1/6 483/1/6
f 483/1/6 476/1/6 484/1/6
f 477/2/6 478/2/6 485/2/6
f 485/2/6 478/2/6 486/2/6
f 479/2/6 480/2/6 487/2/6
f 487/2/6 480/2/6 488/2/6
f 481/2/6 482/2/6 489/2/6
f 489/2/6 482/2/6 490/2/6
f 483/2/6 484/2/6 491/2/6
f 491/2/6 484/2/6 492/2/6
f 486/1/6 487/1/6 493/1/6
f 493/1/6 487/1/6 494/1/6
f 490/1/6 491/1/6 495/1/6
f 495/1/6 491/1/6 496/1/6
