# MagicaVoxel @ Ephtracy

# group
g chilli

# material
mtllib chilli.mtl
usemtl palette

# normals
vn -1 0 0
vn 1 0 0
vn 0 0 1
vn 0 0 -1
vn 0 -1 0
vn 0 1 0

# texcoords
vt 0.279297 0.5
vt 0.904297 0.5

# verts
v -2 7 1
v -2 7 -1
v -2 8 1
v -2 8 -1
v -2 8 -2
v -2 9 -2
v -2 9 -3
v -2 10 -1
v -2 10 -2
v -2 10 -3
v -2 10 -5
v -2 11 -2
v -2 11 -4
v -2 11 -5
v -2 12 -4
v -2 12 -5
v -1 6 1
v -1 6 -1
v -1 7 2
v -1 7 1
v -1 7 -1
v -1 7 -2
v -1 8 3
v -1 8 2
v -1 8 1
v -1 8 -1
v -1 8 -2
v -1 8 -3
v -1 9 3
v -1 9 2
v -1 9 1
v -1 9 -0
v -1 9 -2
v -1 9 -3
v -1 9 -5
v -1 10 -0
v -1 10 -1
v -1 10 -2
v -1 10 -3
v -1 10 -5
v -1 10 -6
v -1 11 -1
v -1 11 -2
v -1 11 -4
v -1 11 -5
v -1 12 -2
v -1 12 -4
v -1 12 -5
v -1 13 -4
v -1 13 -6
v 0 6 2
v 0 6 1
v 0 6 -1
v 0 6 -2
v 0 7 3
v 0 7 2
v 0 7 1
v 0 7 -1
v 0 7 -2
v 0 7 -3
v 0 8 4
v 0 8 3
v 0 8 2
v 0 8 1
v 0 8 -2
v 0 8 -3
v 0 8 -5
v 0 9 5
v 0 9 4
v 0 9 3
v 0 9 2
v 0 9 1
v 0 9 -0
v 0 9 -3
v 0 9 -5
v 0 9 -6
v 0 10 5
v 0 10 4
v 0 10 1
v 0 10 -0
v 0 10 -1
v 0 10 -5
v 0 10 -6
v 0 11 -0
v 0 11 -1
v 0 11 -2
v 0 11 -6
v 0 11 -7
v 0 12 -1
v 0 12 -2
v 0 12 -3
v 0 12 -4
v 0 13 -2
v 0 13 -3
v 0 13 -4
v 0 13 -5
v 0 13 -6
v 0 14 -4
v 0 14 -5
v 0 14 -6
v 0 14 -7
v 1 6 2
v 1 6 1
v 1 6 -1
v 1 6 -2
v 1 7 3
v 1 7 2
v 1 7 1
v 1 7 -1
v 1 7 -2
v 1 7 -3
v 1 8 4
v 1 8 3
v 1 8 2
v 1 8 1
v 1 8 -2
v 1 8 -3
v 1 8 -5
v 1 9 5
v 1 9 4
v 1 9 3
v 1 9 2
v 1 9 1
v 1 9 -0
v 1 9 -3
v 1 9 -5
v 1 9 -6
v 1 10 5
v 1 10 4
v 1 10 1
v 1 10 -0
v 1 10 -1
v 1 10 -5
v 1 10 -6
v 1 11 -0
v 1 11 -1
v 1 11 -2
v 1 11 -6
v 1 11 -7
v 1 12 -1
v 1 12 -2
v 1 12 -3
v 1 12 -4
v 1 13 -2
v 1 13 -3
v 1 13 -4
v 1 13 -5
v 1 13 -6
v 1 14 -4
v 1 14 -5
v 1 14 -6
v 1 14 -7
v 2 6 1
v 2 6 -1
v 2 7 2
v 2 7 1
v 2 7 -1
v 2 7 -2
v 2 8 3
v 2 8 2
v 2 8 1
v 2 8 -1
v 2 8 -2
v 2 8 -3
v 2 9 3
v 2 9 2
v 2 9 1
v 2 9 -0
v 2 9 -2
v 2 9 -3
v 2 9 -5
v 2 10 -0
v 2 10 -1
v 2 10 -2
v 2 10 -3
v 2 10 -5
v 2 10 -6
v 2 11 -1
v 2 11 -2
v 2 11 -4
v 2 11 -5
v 2 12 -2
v 2 12 -4
v 2 12 -5
v 2 13 -4
v 2 13 -6
v 3 7 1
v 3 7 -1
v 3 8 1
v 3 8 -1
v 3 8 -2
v 3 9 -2
v 3 9 -3
v 3 10 -1
v 3 10 -2
v 3 10 -3
v 3 10 -5
v 3 11 -2
v 3 11 -4
v 3 11 -5
v 3 12 -4
v 3 12 -5
v 0 9 5
v 0 10 5
v 1 9 5
v 1 10 5
v 0 8 4
v 0 9 4
v 1 8 4
v 1 9 4
v -1 8 3
v -1 9 3
v 0 7 3
v 0 8 3
v 0 9 3
v 1 7 3
v 1 8 3
v 1 9 3
v 2 8 3
v 2 9 3
v -1 7 2
v -1 8 2
v 0 6 2
v 0 7 2
v 0 8 2
v 1 6 2
v 1 7 2
v 1 8 2
v 2 7 2
v 2 8 2
v -2 7 1
v -2 8 1
v -1 6 1
v -1 7 1
v -1 8 1
v -1 9 1
v 0 6 1
v 0 7 1
v 0 8 1
v 0 9 1
v 0 10 1
v 1 6 1
v 1 7 1
v 1 8 1
v 1 9 1
v 1 10 1
v 2 6 1
v 2 7 1
v 2 8 1
v 2 9 1
v 3 7 1
v 3 8 1
v -1 9 -0
v -1 10 -0
v 0 9 -0
v 0 10 -0
v 0 11 -0
v 1 9 -0
v 1 10 -0
v 1 11 -0
v 2 9 -0
v 2 10 -0
v -2 8 -1
v -2 10 -1
v -1 8 -1
v -1 10 -1
v -1 11 -1
v 0 10 -1
v 0 11 -1
v 0 12 -1
v 1 10 -1
v 1 11 -1
v 1 12 -1
v 2 8 -1
v 2 10 -1
v 2 11 -1
v 3 8 -1
v 3 10 -1
v -2 10 -2
v -2 11 -2
v -1 10 -2
v -1 11 -2
v -1 12 -2
v 0 11 -2
v 0 12 -2
v 0 13 -2
v 1 11 -2
v 1 12 -2
v 1 13 -2
v 2 10 -2
v 2 11 -2
v 2 12 -2
v 3 10 -2
v 3 11 -2
v -2 11 -4
v -2 12 -4
v -1 11 -4
v -1 12 -4
v -1 13 -4
v 0 12 -4
v 0 13 -4
v 0 14 -4
v 1 12 -4
v 1 13 -4
v 1 14 -4
v 2 11 -4
v 2 12 -4
v 2 13 -4
v 3 11 -4
v 3 12 -4
v 0 13 -6
v 0 14 -6
v 1 13 -6
v 1 14 -6
v 0 9 4
v 0 10 4
v 1 9 4
v 1 10 4
v -1 8 2
v -1 9 2
v 0 8 2
v 0 9 2
v 1 8 2
v 1 9 2
v 2 8 2
v 2 9 2
v -2 7 -1
v -2 8 -1
v -1 6 -1
v -1 7 -1
v -1 8 -1
v 0 6 -1
v 0 7 -1
v 1 6 -1
v 1 7 -1
v 2 6 -1
v 2 7 -1
v 2 8 -1
v 3 7 -1
v 3 8 -1
v -2 8 -2
v -2 9 -2
v -1 7 -2
v -1 8 -2
v -1 9 -2
v 0 6 -2
v 0 7 -2
v 0 8 -2
v 1 6 -2
v 1 7 -2
v 1 8 -2
v 2 7 -2
v 2 8 -2
v 2 9 -2
v 3 8 -2
v 3 9 -2
v -2 9 -3
v -2 10 -3
v -1 8 -3
v -1 9 -3
v -1 10 -3
v 0 7 -3
v 0 8 -3
v 0 9 -3
v 1 7 -3
v 1 8 -3
v 1 9 -3
v 2 8 -3
v 2 9 -3
v 2 10 -3
v 3 9 -3
v 3 10 -3
v -2 10 -5
v -2 11 -5
v -2 12 -5
v -1 9 -5
v -1 10 -5
v -1 11 -5
v -1 12 -5
v 0 8 -5
v 0 9 -5
v 0 10 -5
v 0 13 -5
v 0 14 -5
v 1 8 -5
v 1 9 -5
v 1 10 -5
v 1 13 -5
v 1 14 -5
v 2 9 -5
v 2 10 -5
v 2 11 -5
v 2 12 -5
v 3 10 -5
v 3 11 -5
v 3 12 -5
v -1 10 -6
v -1 13 -6
v 0 9 -6
v 0 10 -6
v 0 11 -6
v 0 13 -6
v 1 9 -6
v 1 10 -6
v 1 11 -6
v 1 13 -6
v 2 10 -6
v 2 13 -6
v 0 11 -7
v 0 14 -7
v 1 11 -7
v 1 14 -7
v 0 6 2
v 1 6 2
v -1 6 1
v 0 6 1
v 1 6 1
v 2 6 1
v -1 6 -1
v 0 6 -1
v 1 6 -1
v 2 6 -1
v 0 6 -2
v 1 6 -2
v 0 7 3
v 1 7 3
v -1 7 2
v 0 7 2
v 1 7 2
v 2 7 2
v -2 7 1
v -1 7 1
v 0 7 1
v 1 7 1
v 2 7 1
v 3 7 1
v -2 7 -1
v -1 7 -1
v 0 7 -1
v 1 7 -1
v 2 7 -1
v 3 7 -1
v -1 7 -2
v 0 7 -2
v 1 7 -2
v 2 7 -2
v 0 7 -3
v 1 7 -3
v 0 8 4
v 1 8 4
v -1 8 3
v 0 8 3
v 1 8 3
v 2 8 3
v -1 8 2
v 0 8 2
v 1 8 2
v 2 8 2
v -2 8 -1
v -1 8 -1
v 2 8 -1
v 3 8 -1
v -2 8 -2
v -1 8 -2
v 0 8 -2
v 1 8 -2
v 2 8 -2
v 3 8 -2
v -1 8 -3
v 0 8 -3
v 1 8 -3
v 2 8 -3
v 0 8 -5
v 1 8 -5
v 0 9 5
v 1 9 5
v 0 9 4
v 1 9 4
v -2 9 -2
v -1 9 -2
v 2 9 -2
v 3 9 -2
v -2 9 -3
v -1 9 -3
v 0 9 -3
v 1 9 -3
v 2 9 -3
v 3 9 -3
v -1 9 -5
v 0 9 -5
v 1 9 -5
v 2 9 -5
v 0 9 -6
v 1 9 -6
v -2 10 -3
v -1 10 -3
v 2 10 -3
v 3 10 -3
v -2 10 -5
v -1 10 -5
v 0 10 -5
v 1 10 -5
v 2 10 -5
v 3 10 -5
v -1 10 -6
v 0 10 -6
v 1 10 -6
v 2 10 -6
v 0 11 -6
v 1 11 -6
v 0 11 -7
v 1 11 -7
v -1 8 2
v 0 8 2
v 1 8 2
v 2 8 2
v -2 8 1
v -1 8 1
v 0 8 1
v 1 8 1
v 2 8 1
v 3 8 1
v -2 8 -1
v -1 8 -1
v 2 8 -1
v 3 8 -1
v 0 9 4
v 1 9 4
v -1 9 3
v 0 9 3
v 1 9 3
v 2 9 3
v -1 9 2
v 0 9 2
v 1 9 2
v 2 9 2
v -1 9 1
v 0 9 1
v 1 9 1
v 2 9 1
v -1 9 -0
v 0 9 -0
v 1 9 -0
v 2 9 -0
v 0 10 5
v 1 10 5
v 0 10 4
v 1 10 4
v 0 10 1
v 1 10 1
v -1 10 -0
v 0 10 -0
v 1 10 -0
v 2 10 -0
v -2 10 -1
v -1 10 -1
v 0 10 -1
v 1 10 -1
v 2 10 -1
v 3 10 -1
v -2 10 -2
v -1 10 -2
v 2 10 -2
v 3 10 -2
v 0 11 -0
v 1 11 -0
v -1 11 -1
v 0 11 -1
v 1 11 -1
v 2 11 -1
v -2 11 -2
v -1 11 -2
v 0 11 -2
v 1 11 -2
v 2 11 -2
v 3 11 -2
v -2 11 -4
v -1 11 -4
v 2 11 -4
v 3 11 -4
v 0 12 -1
v 1 12 -1
v -1 12 -2
v 0 12 -2
v 1 12 -2
v 2 12 -2
v 0 12 -3
v 1 12 -3
v -2 12 -4
v -1 12 -4
v 0 12 -4
v 1 12 -4
v 2 12 -4
v 3 12 -4
v -2 12 -5
v -1 12 -5
v 2 12 -5
v 3 12 -5
v 0 13 -2
v 1 13 -2
v 0 13 -3
v 1 13 -3
v -1 13 -4
v 0 13 -4
v 1 13 -4
v 2 13 -4
v 0 13 -5
v 1 13 -5
v -1 13 -6
v 0 13 -6
v 1 13 -6
v 2 13 -6
v 0 14 -4
v 1 14 -4
v 0 14 -5
v 1 14 -5
v 0 14 -6
v 1 14 -6
v 0 14 -7
v 1 14 -7

# faces
f 3/1/1 2/1/1 1/1/1
f 4/1/1 2/1/1 3/1/1
f 6/1/1 5/1/1 4/1/1
f 8/1/1 6/1/1 4/1/1
f 8/1/1 7/1/1 6/1/1
f 9/1/1 7/1/1 8/1/1
f 10/1/1 7/1/1 9/1/1
f 12/1/1 11/1/1 10/1/1
f 12/1/1 10/1/1 9/1/1
f 13/1/1 11/1/1 12/1/1
f 14/1/1 11/1/1 13/1/1
f 15/2/1 14/2/1 13/2/1
f 16/2/1 14/2/1 15/2/1
f 20/1/1 18/1/1 17/1/1
f 21/1/1 18/1/1 20/1/1
f 24/1/1 20/1/1 19/1/1
f 25/1/1 20/1/1 24/1/1
f 26/1/1 22/1/1 21/1/1
f 27/1/1 22/1/1 26/1/1
f 29/1/1 24/1/1 23/1/1
f 30/1/1 24/1/1 29/1/1
f 31/1/1 26/1/1 25/1/1
f 32/1/1 26/1/1 31/1/1
f 33/1/1 28/1/1 27/1/1
f 34/1/1 28/1/1 33/1/1
f 36/1/1 26/1/1 32/1/1
f 37/1/1 26/1/1 36/1/1
f 39/1/1 35/1/1 34/1/1
f 40/1/1 35/1/1 39/1/1
f 42/1/1 38/1/1 37/1/1
f 43/1/1 38/1/1 42/1/1
f 45/2/1 41/2/1 40/2/1
f 46/1/1 44/1/1 43/1/1
f 47/1/1 44/1/1 46/1/1
f 48/2/1 41/2/1 45/2/1
f 49/2/1 48/2/1 47/2/1
f 50/2/1 41/2/1 48/2/1
f 50/2/1 48/2/1 49/2/1
f 56/1/1 52/1/1 51/1/1
f 57/1/1 52/1/1 56/1/1
f 58/1/1 54/1/1 53/1/1
f 59/1/1 54/1/1 58/1/1
f 62/1/1 56/1/1 55/1/1
f 63/1/1 56/1/1 62/1/1
f 65/1/1 60/1/1 59/1/1
f 66/1/1 60/1/1 65/1/1
f 69/1/1 62/1/1 61/1/1
f 70/1/1 62/1/1 69/1/1
f 71/1/1 64/1/1 63/1/1
f 72/1/1 64/1/1 71/1/1
f 74/1/1 67/1/1 66/1/1
f 75/1/1 67/1/1 74/1/1
f 77/1/1 69/1/1 68/1/1
f 78/1/1 69/1/1 77/1/1
f 79/1/1 73/1/1 72/1/1
f 80/1/1 73/1/1 79/1/1
f 82/1/1 76/1/1 75/1/1
f 83/1/1 76/1/1 82/1/1
f 84/1/1 81/1/1 80/1/1
f 85/1/1 81/1/1 84/1/1
f 89/1/1 86/1/1 85/1/1
f 90/1/1 86/1/1 89/1/1
f 93/1/1 91/1/1 90/1/1
f 94/2/1 92/2/1 91/2/1
f 94/1/1 91/1/1 93/1/1
f 95/2/1 92/2/1 94/2/1
f 97/2/1 88/2/1 87/2/1
f 98/2/1 96/2/1 95/2/1
f 99/2/1 96/2/1 98/2/1
f 100/2/1 88/2/1 97/2/1
f 101/2/1 88/2/1 100/2/1
f 102/1/2 103/1/2 107/1/2
f 107/1/2 103/1/2 108/1/2
f 104/1/2 105/1/2 109/1/2
f 109/1/2 105/1/2 110/1/2
f 106/1/2 107/1/2 113/1/2
f 113/1/2 107/1/2 114/1/2
f 110/1/2 111/1/2 116/1/2
f 116/1/2 111/1/2 117/1/2
f 112/1/2 113/1/2 120/1/2
f 120/1/2 113/1/2 121/1/2
f 114/1/2 115/1/2 122/1/2
f 122/1/2 115/1/2 123/1/2
f 117/1/2 118/1/2 125/1/2
f 125/1/2 118/1/2 126/1/2
f 119/1/2 120/1/2 128/1/2
f 128/1/2 120/1/2 129/1/2
f 123/1/2 124/1/2 130/1/2
f 130/1/2 124/1/2 131/1/2
f 126/1/2 127/1/2 133/1/2
f 133/1/2 127/1/2 134/1/2
f 131/1/2 132/1/2 135/1/2
f 135/1/2 132/1/2 136/1/2
f 136/1/2 137/1/2 140/1/2
f 140/1/2 137/1/2 141/1/2
f 141/1/2 142/1/2 144/1/2
f 142/2/2 143/2/2 145/2/2
f 144/1/2 142/1/2 145/1/2
f 145/2/2 143/2/2 146/2/2
f 138/2/2 139/2/2 148/2/2
f 146/2/2 147/2/2 149/2/2
f 149/2/2 147/2/2 150/2/2
f 148/2/2 139/2/2 151/2/2
f 151/2/2 139/2/2 152/2/2
f 153/1/2 154/1/2 156/1/2
f 156/1/2 154/1/2 157/1/2
f 155/1/2 156/1/2 160/1/2
f 160/1/2 156/1/2 161/1/2
f 157/1/2 158/1/2 162/1/2
f 162/1/2 158/1/2 163/1/2
f 159/1/2 160/1/2 165/1/2
f 165/1/2 160/1/2 166/1/2
f 161/1/2 162/1/2 167/1/2
f 167/1/2 162/1/2 168/1/2
f 163/1/2 164/1/2 169/1/2
f 169/1/2 164/1/2 170/1/2
f 168/1/2 162/1/2 172/1/2
f 172/1/2 162/1/2 173/1/2
f 170/1/2 171/1/2 175/1/2
f 175/1/2 171/1/2 176/1/2
f 173/1/2 174/1/2 178/1/2
f 178/1/2 174/1/2 179/1/2
f 176/2/2 177/2/2 181/2/2
f 179/1/2 180/1/2 182/1/2
f 182/1/2 180/1/2 183/1/2
f 181/2/2 177/2/2 184/2/2
f 183/2/2 184/2/2 185/2/2
f 184/2/2 177/2/2 186/2/2
f 185/2/2 184/2/2 186/2/2
f 187/1/2 188/1/2 189/1/2
f 189/1/2 188/1/2 190/1/2
f 190/1/2 191/1/2 192/1/2
f 190/1/2 192/1/2 194/1/2
f 192/1/2 193/1/2 194/1/2
f 194/1/2 193/1/2 195/1/2
f 195/1/2 193/1/2 196/1/2
f 196/1/2 197/1/2 198/1/2
f 195/1/2 196/1/2 198/1/2
f 198/1/2 197/1/2 199/1/2
f 199/1/2 197/1/2 200/1/2
f 199/2/2 200/2/2 201/2/2
f 201/2/2 200/2/2 202/2/2
f 205/1/3 204/1/3 203/1/3
f 206/1/3 204/1/3 205/1/3
f 209/1/3 208/1/3 207/1/3
f 210/1/3 208/1/3 209/1/3
f 214/1/3 212/1/3 211/1/3
f 215/1/3 212/1/3 214/1/3
f 216/1/3 214/1/3 213/1/3
f 217/1/3 214/1/3 216/1/3
f 219/1/3 218/1/3 217/1/3
f 220/1/3 218/1/3 219/1/3
f 224/1/3 222/1/3 221/1/3
f 225/1/3 222/1/3 224/1/3
f 226/1/3 224/1/3 223/1/3
f 227/1/3 224/1/3 226/1/3
f 229/1/3 228/1/3 227/1/3
f 230/1/3 228/1/3 229/1/3
f 234/1/3 232/1/3 231/1/3
f 235/1/3 232/1/3 234/1/3
f 237/1/3 234/1/3 233/1/3
f 238/1/3 234/1/3 237/1/3
f 239/1/3 236/1/3 235/1/3
f 240/1/3 236/1/3 239/1/3
f 245/1/3 241/1/3 240/1/3
f 246/1/3 241/1/3 245/1/3
f 247/1/3 243/1/3 242/1/3
f 248/1/3 243/1/3 247/1/3
f 249/1/3 245/1/3 244/1/3
f 250/1/3 245/1/3 249/1/3
f 251/1/3 249/1/3 248/1/3
f 252/1/3 249/1/3 251/1/3
f 255/1/3 254/1/3 253/1/3
f 256/1/3 254/1/3 255/1/3
f 259/1/3 257/1/3 256/1/3
f 260/1/3 257/1/3 259/1/3
f 261/1/3 259/1/3 258/1/3
f 262/1/3 259/1/3 261/1/3
f 265/1/3 264/1/3 263/1/3
f 266/1/3 264/1/3 265/1/3
f 268/1/3 267/1/3 266/1/3
f 269/1/3 267/1/3 268/1/3
f 272/1/3 270/1/3 269/1/3
f 273/1/3 270/1/3 272/1/3
f 275/1/3 272/1/3 271/1/3
f 276/1/3 272/1/3 275/1/3
f 277/1/3 275/1/3 274/1/3
f 278/1/3 275/1/3 277/1/3
f 281/1/3 280/1/3 279/1/3
f 282/1/3 280/1/3 281/1/3
f 284/1/3 283/1/3 282/1/3
f 285/1/3 283/1/3 284/1/3
f 288/1/3 286/1/3 285/1/3
f 289/1/3 286/1/3 288/1/3
f 291/1/3 288/1/3 287/1/3
f 292/1/3 288/1/3 291/1/3
f 293/1/3 291/1/3 290/1/3
f 294/1/3 291/1/3 293/1/3
f 297/2/3 296/2/3 295/2/3
f 298/2/3 296/2/3 297/2/3
f 300/2/3 299/2/3 298/2/3
f 301/2/3 299/2/3 300/2/3
f 304/2/3 302/2/3 301/2/3
f 305/2/3 302/2/3 304/2/3
f 307/2/3 304/2/3 303/2/3
f 308/2/3 304/2/3 307/2/3
f 309/2/3 307/2/3 306/2/3
f 310/2/3 307/2/3 309/2/3
f 313/2/3 312/2/3 311/2/3
f 314/2/3 312/2/3 313/2/3
f 315/1/4 316/1/4 317/1/4
f 317/1/4 316/1/4 318/1/4
f 319/1/4 320/1/4 321/1/4
f 321/1/4 320/1/4 322/1/4
f 323/1/4 324/1/4 325/1/4
f 325/1/4 324/1/4 326/1/4
f 327/1/4 328/1/4 330/1/4
f 330/1/4 328/1/4 331/1/4
f 329/1/4 330/1/4 332/1/4
f 332/1/4 330/1/4 333/1/4
f 334/1/4 335/1/4 336/1/4
f 336/1/4 335/1/4 337/1/4
f 337/1/4 338/1/4 339/1/4
f 339/1/4 338/1/4 340/1/4
f 341/1/4 342/1/4 344/1/4
f 344/1/4 342/1/4 345/1/4
f 343/1/4 344/1/4 347/1/4
f 347/1/4 344/1/4 348/1/4
f 346/1/4 347/1/4 349/1/4
f 349/1/4 347/1/4 350/1/4
f 350/1/4 351/1/4 352/1/4
f 352/1/4 351/1/4 353/1/4
f 353/1/4 354/1/4 355/1/4
f 355/1/4 354/1/4 356/1/4
f 357/1/4 358/1/4 360/1/4
f 360/1/4 358/1/4 361/1/4
f 359/1/4 360/1/4 363/1/4
f 363/1/4 360/1/4 364/1/4
f 362/1/4 363/1/4 365/1/4
f 365/1/4 363/1/4 366/1/4
f 366/1/4 367/1/4 368/1/4
f 368/1/4 367/1/4 369/1/4
f 369/1/4 370/1/4 371/1/4
f 371/1/4 370/1/4 372/1/4
f 373/1/4 374/1/4 377/1/4
f 374/2/4 375/2/4 378/2/4
f 377/1/4 374/1/4 378/1/4
f 378/2/4 375/2/4 379/2/4
f 376/1/4 377/1/4 381/1/4
f 381/1/4 377/1/4 382/1/4
f 380/1/4 381/1/4 385/1/4
f 385/1/4 381/1/4 386/1/4
f 383/2/4 384/2/4 388/2/4
f 388/2/4 384/2/4 389/2/4
f 386/1/4 387/1/4 390/1/4
f 390/1/4 387/1/4 391/1/4
f 391/1/4 392/1/4 394/1/4
f 392/2/4 393/2/4 395/2/4
f 394/1/4 392/1/4 395/1/4
f 395/2/4 393/2/4 396/2/4
f 397/2/4 398/2/4 400/2/4
f 400/2/4 398/2/4 401/2/4
f 401/2/4 398/2/4 402/2/4
f 399/1/4 400/1/4 403/1/4
f 400/2/4 401/2/4 404/2/4
f 403/1/4 400/1/4 404/1/4
f 404/2/4 401/2/4 405/2/4
f 405/2/4 406/2/4 407/2/4
f 404/2/4 405/2/4 407/2/4
f 407/2/4 406/2/4 408/2/4
f 409/2/4 410/2/4 411/2/4
f 411/2/4 410/2/4 412/2/4
f 416/1/5 414/1/5 413/1/5
f 417/1/5 414/1/5 416/1/5
f 419/1/5 416/1/5 415/1/5
f 419/1/5 418/1/5 417/1/5
f 419/1/5 417/1/5 416/1/5
f 420/1/5 418/1/5 419/1/5
f 421/1/5 418/1/5 420/1/5
f 422/1/5 418/1/5 421/1/5
f 423/1/5 421/1/5 420/1/5
f 424/1/5 421/1/5 423/1/5
f 428/1/5 426/1/5 425/1/5
f 429/1/5 426/1/5 428/1/5
f 432/1/5 428/1/5 427/1/5
f 433/1/5 428/1/5 432/1/5
f 434/1/5 430/1/5 429/1/5
f 435/1/5 430/1/5 434/1/5
f 437/1/5 432/1/5 431/1/5
f 438/1/5 432/1/5 437/1/5
f 441/1/5 436/1/5 435/1/5
f 442/1/5 436/1/5 441/1/5
f 443/1/5 439/1/5 438/1/5
f 444/1/5 439/1/5 443/1/5
f 445/1/5 441/1/5 440/1/5
f 446/1/5 441/1/5 445/1/5
f 447/1/5 445/1/5 444/1/5
f 448/1/5 445/1/5 447/1/5
f 452/1/5 450/1/5 449/1/5
f 453/1/5 450/1/5 452/1/5
f 455/1/5 452/1/5 451/1/5
f 456/1/5 452/1/5 455/1/5
f 457/1/5 454/1/5 453/1/5
f 458/1/5 454/1/5 457/1/5
f 463/1/5 460/1/5 459/1/5
f 464/1/5 460/1/5 463/1/5
f 467/1/5 462/1/5 461/1/5
f 468/1/5 462/1/5 467/1/5
f 469/1/5 465/1/5 464/1/5
f 470/1/5 465/1/5 469/1/5
f 471/1/5 467/1/5 466/1/5
f 472/1/5 467/1/5 471/1/5
f 473/1/5 471/1/5 470/1/5
f 474/1/5 471/1/5 473/1/5
f 477/1/5 476/1/5 475/1/5
f 478/1/5 476/1/5 477/1/5
f 483/1/5 480/1/5 479/1/5
f 484/1/5 480/1/5 483/1/5
f 487/1/5 482/1/5 481/1/5
f 488/1/5 482/1/5 487/1/5
f 489/1/5 485/1/5 484/1/5
f 490/1/5 485/1/5 489/1/5
f 491/1/5 487/1/5 486/1/5
f 492/1/5 487/1/5 491/1/5
f 493/1/5 491/1/5 490/1/5
f 494/1/5 491/1/5 493/1/5
f 499/1/5 496/1/5 495/1/5
f 500/1/5 496/1/5 499/1/5
f 503/1/5 498/1/5 497/1/5
f 504/1/5 498/1/5 503/1/5
f 505/2/5 501/2/5 500/2/5
f 506/2/5 501/2/5 505/2/5
f 507/2/5 503/2/5 502/2/5
f 508/2/5 503/2/5 507/2/5
f 511/2/5 510/2/5 509/2/5
f 512/2/5 510/2/5 511/2/5
f 513/1/6 514/1/6 518/1/6
f 518/1/6 514/1/6 519/1/6
f 515/1/6 516/1/6 520/1/6
f 520/1/6 516/1/6 521/1/6
f 517/1/6 518/1/6 523/1/6
f 523/1/6 518/1/6 524/1/6
f 521/1/6 522/1/6 525/1/6
f 525/1/6 522/1/6 526/1/6
f 527/1/6 528/1/6 530/1/6
f 530/1/6 528/1/6 531/1/6
f 529/1/6 530/1/6 533/1/6
f 531/1/6 532/1/6 533/1/6
f 530/1/6 531/1/6 533/1/6
f 533/1/6 532/1/6 534/1/6
f 534/1/6 532/1/6 535/1/6
f 535/1/6 532/1/6 536/1/6
f 534/1/6 535/1/6 538/1/6
f 538/1/6 535/1/6 539/1/6
f 537/1/6 538/1/6 541/1/6
f 541/1/6 538/1/6 542/1/6
f 539/1/6 540/1/6 543/1/6
f 543/1/6 540/1/6 544/1/6
f 545/1/6 546/1/6 547/1/6
f 547/1/6 546/1/6 548/1/6
f 549/1/6 550/1/6 552/1/6
f 552/1/6 550/1/6 553/1/6
f 551/1/6 552/1/6 556/1/6
f 556/1/6 552/1/6 557/1/6
f 553/1/6 554/1/6 558/1/6
f 558/1/6 554/1/6 559/1/6
f 555/1/6 556/1/6 561/1/6
f 561/1/6 556/1/6 562/1/6
f 559/1/6 560/1/6 563/1/6
f 563/1/6 560/1/6 564/1/6
f 565/1/6 566/1/6 568/1/6
f 568/1/6 566/1/6 569/1/6
f 567/1/6 568/1/6 572/1/6
f 572/1/6 568/1/6 573/1/6
f 569/1/6 570/1/6 574/1/6
f 574/1/6 570/1/6 575/1/6
f 571/1/6 572/1/6 577/1/6
f 577/1/6 572/1/6 578/1/6
f 575/1/6 576/1/6 579/1/6
f 579/1/6 576/1/6 580/1/6
f 581/1/6 582/1/6 584/1/6
f 584/1/6 582/1/6 585/1/6
f 583/1/6 584/1/6 587/1/6
f 585/1/6 586/1/6 588/1/6
f 583/1/6 587/1/6 590/1/6
f 590/1/6 587/1/6 591/1/6
f 588/1/6 586/1/6 592/1/6
f 592/1/6 586/1/6 593/1/6
f 589/2/6 590/2/6 595/2/6
f 595/2/6 590/2/6 596/2/6
f 593/2/6 594/2/6 597/2/6
f 597/2/6 594/2/6 598/2/6
f 599/1/6 600/1/6 601/1/6
f 601/1/6 600/1/6 602/1/6
f 601/2/6 602/2/6 604/2/6
f 604/2/6 602/2/6 605/2/6
f 603/2/6 604/2/6 607/2/6
f 605/2/6 606/2/6 608/2/6
f 603/2/6 607/2/6 609/2/6
f 607/2/6 608/2/6 609/2/6
f 609/2/6 608/2/6 610/2/6
f 608/2/6 606/2/6 611/2/6
f 610/2/6 608/2/6 611/2/6
f 611/2/6 606/2/6 612/2/6
f 613/2/6 614/2/6 615/2/6
f 615/2/6 614/2/6 616/2/6
f 617/2/6 618/2/6 619/2/6
f 619/2/6 618/2/6 620/2/6
