# MagicaVoxel @ Ephtracy

# group
g mleczko

# material
mtllib mleczko.mtl
usemtl palette

# normals
vn -1 0 0
vn 1 0 0
vn 0 0 1
vn 0 0 -1
vn 0 -1 0
vn 0 1 0

# texcoords
vt 0.537109 0.5
vt 0.869141 0.5
vt 0.958984 0.5
vt 0.978516 0.5

# verts
v -3 4 1
v -3 4 -2
v -3 5 1
v -3 5 -2
v -3 13 1
v -3 13 -2
v -3 14 1
v -3 14 -2
v -2 4 2
v -2 4 1
v -2 4 -2
v -2 4 -3
v -2 5 2
v -2 5 1
v -2 5 -2
v -2 5 -3
v -2 13 2
v -2 13 1
v -2 13 -2
v -2 13 -3
v -2 14 2
v -2 14 1
v -2 14 -2
v -2 14 -3
v -1 4 3
v -1 4 2
v -1 4 -3
v -1 4 -4
v -1 5 3
v -1 5 2
v -1 5 -3
v -1 5 -4
v -1 13 3
v -1 13 2
v -1 13 -0
v -1 13 -1
v -1 13 -3
v -1 13 -4
v -1 14 3
v -1 14 2
v -1 14 -0
v -1 14 -1
v -1 14 -3
v -1 14 -4
v 0 13 1
v 0 13 -0
v 0 13 -1
v 0 13 -2
v 0 14 1
v 0 14 -0
v 0 14 -1
v 0 14 -2
v 2 4 2
v 2 4 1
v 2 4 -2
v 2 4 -3
v 2 5 2
v 2 5 1
v 2 5 -2
v 2 5 -3
v 2 13 2
v 2 13 1
v 2 13 -2
v 2 13 -3
v 2 14 2
v 2 14 1
v 2 14 -2
v 2 14 -3
v 3 4 1
v 3 4 -2
v 3 5 1
v 3 5 -2
v 3 13 1
v 3 13 -2
v 3 14 1
v 3 14 -2
v -2 4 1
v -2 4 -2
v -2 5 1
v -2 5 -2
v -2 13 1
v -2 13 -2
v -2 14 1
v -2 14 -2
v -1 4 2
v -1 4 1
v -1 4 -2
v -1 4 -3
v -1 5 2
v -1 5 1
v -1 5 -2
v -1 5 -3
v -1 13 2
v -1 13 1
v -1 13 -2
v -1 13 -3
v -1 14 2
v -1 14 1
v -1 14 -2
v -1 14 -3
v 0 13 -0
v 0 13 -1
v 0 14 -0
v 0 14 -1
v 1 13 1
v 1 13 -0
v 1 13 -1
v 1 13 -2
v 1 14 1
v 1 14 -0
v 1 14 -1
v 1 14 -2
v 2 4 3
v 2 4 2
v 2 4 -3
v 2 4 -4
v 2 5 3
v 2 5 2
v 2 5 -3
v 2 5 -4
v 2 6 2
v 2 8 2
v 2 9 2
v 2 11 2
v 2 11 -3
v 2 12 2
v 2 12 -3
v 2 13 3
v 2 13 2
v 2 13 -3
v 2 13 -4
v 2 14 3
v 2 14 2
v 2 14 -3
v 2 14 -4
v 3 4 2
v 3 4 1
v 3 4 -2
v 3 4 -3
v 3 5 2
v 3 5 1
v 3 5 -2
v 3 5 -3
v 3 6 2
v 3 6 1
v 3 6 -2
v 3 7 1
v 3 8 2
v 3 8 1
v 3 9 2
v 3 9 1
v 3 10 1
v 3 10 -2
v 3 11 2
v 3 11 1
v 3 11 -2
v 3 11 -3
v 3 12 2
v 3 12 1
v 3 12 -2
v 3 12 -3
v 3 13 2
v 3 13 1
v 3 13 -2
v 3 13 -3
v 3 14 2
v 3 14 1
v 3 14 -2
v 3 14 -3
v 4 4 1
v 4 4 -2
v 4 5 1
v 4 5 -2
v 4 6 1
v 4 6 -2
v 4 7 1
v 4 7 -1
v 4 9 -0
v 4 9 -1
v 4 10 1
v 4 10 -0
v 4 10 -2
v 4 11 1
v 4 11 -2
v 4 12 1
v 4 12 -2
v 4 13 1
v 4 13 -2
v 4 14 1
v 4 14 -2
v -1 4 3
v -1 5 3
v -1 13 3
v -1 14 3
v 2 4 3
v 2 5 3
v 2 13 3
v 2 14 3
v -2 4 2
v -2 5 2
v -2 13 2
v -2 14 2
v -1 4 2
v -1 5 2
v -1 13 2
v -1 14 2
v 2 4 2
v 2 5 2
v 2 6 2
v 2 8 2
v 2 9 2
v 2 11 2
v 2 12 2
v 2 13 2
v 2 14 2
v 3 4 2
v 3 5 2
v 3 6 2
v 3 8 2
v 3 9 2
v 3 11 2
v 3 12 2
v 3 13 2
v 3 14 2
v -3 4 1
v -3 5 1
v -3 13 1
v -3 14 1
v -2 4 1
v -2 5 1
v -2 13 1
v -2 14 1
v 0 13 1
v 0 14 1
v 1 13 1
v 1 14 1
v 3 4 1
v 3 5 1
v 3 6 1
v 3 7 1
v 3 8 1
v 3 9 1
v 3 10 1
v 3 11 1
v 3 12 1
v 3 13 1
v 3 14 1
v 4 4 1
v 4 5 1
v 4 6 1
v 4 7 1
v 4 10 1
v 4 11 1
v 4 12 1
v 4 13 1
v 4 14 1
v -1 13 -0
v -1 14 -0
v 0 13 -0
v 0 14 -0
v 0 13 -1
v 0 14 -1
v 1 13 -1
v 1 14 -1
v -2 4 -2
v -2 5 -2
v -2 13 -2
v -2 14 -2
v -1 4 -2
v -1 5 -2
v -1 13 -2
v -1 14 -2
v 2 4 -2
v 2 5 -2
v 2 13 -2
v 2 14 -2
v 3 4 -2
v 3 5 -2
v 3 13 -2
v 3 14 -2
v -1 4 -3
v -1 5 -3
v -1 13 -3
v -1 14 -3
v 2 4 -3
v 2 5 -3
v 2 13 -3
v 2 14 -3
v -1 4 2
v -1 5 2
v -1 13 2
v -1 14 2
v 2 4 2
v 2 5 2
v 2 13 2
v 2 14 2
v -2 4 1
v -2 5 1
v -2 13 1
v -2 14 1
v -1 4 1
v -1 5 1
v -1 13 1
v -1 14 1
v 2 4 1
v 2 5 1
v 2 13 1
v 2 14 1
v 3 4 1
v 3 5 1
v 3 13 1
v 3 14 1
v 0 13 -0
v 0 14 -0
v 1 13 -0
v 1 14 -0
v -1 13 -1
v -1 14 -1
v 0 13 -1
v 0 14 -1
v -3 4 -2
v -3 5 -2
v -3 13 -2
v -3 14 -2
v -2 4 -2
v -2 5 -2
v -2 13 -2
v -2 14 -2
v 0 13 -2
v 0 14 -2
v 1 13 -2
v 1 14 -2
v 3 4 -2
v 3 5 -2
v 3 6 -2
v 3 10 -2
v 3 11 -2
v 3 12 -2
v 3 13 -2
v 3 14 -2
v 4 4 -2
v 4 5 -2
v 4 6 -2
v 4 10 -2
v 4 11 -2
v 4 12 -2
v 4 13 -2
v 4 14 -2
v -2 4 -3
v -2 5 -3
v -2 13 -3
v -2 14 -3
v -1 4 -3
v -1 5 -3
v -1 13 -3
v -1 14 -3
v 2 4 -3
v 2 5 -3
v 2 11 -3
v 2 12 -3
v 2 13 -3
v 2 14 -3
v 3 4 -3
v 3 5 -3
v 3 11 -3
v 3 12 -3
v 3 13 -3
v 3 14 -3
v -1 4 -4
v -1 5 -4
v -1 13 -4
v -1 14 -4
v 2 4 -4
v 2 5 -4
v 2 13 -4
v 2 14 -4
v -1 4 3
v 2 4 3
v -2 4 2
v -1 4 2
v 2 4 2
v 3 4 2
v -3 4 1
v -2 4 1
v -1 4 1
v 2 4 1
v 3 4 1
v 4 4 1
v -3 4 -2
v -2 4 -2
v -1 4 -2
v 2 4 -2
v 3 4 -2
v 4 4 -2
v -2 4 -3
v -1 4 -3
v 2 4 -3
v 3 4 -3
v -1 4 -4
v 2 4 -4
v -1 5 2
v 2 5 2
v -2 5 1
v -1 5 1
v 2 5 1
v 3 5 1
v -2 5 -2
v -1 5 -2
v 2 5 -2
v 3 5 -2
v -1 5 -3
v 2 5 -3
v -1 13 2
v 2 13 2
v -2 13 1
v -1 13 1
v 0 13 1
v 1 13 1
v 2 13 1
v 3 13 1
v -1 13 -0
v 0 13 -0
v 1 13 -0
v -1 13 -1
v 0 13 -1
v 1 13 -1
v -2 13 -2
v -1 13 -2
v 0 13 -2
v 1 13 -2
v 2 13 -2
v 3 13 -2
v -1 13 -3
v 2 13 -3
v -1 14 3
v 2 14 3
v -2 14 2
v -1 14 2
v 2 14 2
v 3 14 2
v -3 14 1
v -2 14 1
v -1 14 1
v 0 14 1
v 1 14 1
v 2 14 1
v 3 14 1
v 4 14 1
v -1 14 -0
v 0 14 -0
v 1 14 -0
v -1 14 -1
v 0 14 -1
v 1 14 -1
v -3 14 -2
v -2 14 -2
v -1 14 -2
v 0 14 -2
v 1 14 -2
v 2 14 -2
v 3 14 -2
v 4 14 -2
v -2 14 -3
v -1 14 -3
v 2 14 -3
v 3 14 -3
v -1 14 -4
v 2 14 -4

# faces
f 3/4/1 2/4/1 1/4/1
f 4/4/1 2/4/1 3/4/1
f 5/2/1 4/2/1 3/2/1
f 6/2/1 4/2/1 5/2/1
f 7/4/1 6/4/1 5/4/1
f 8/4/1 6/4/1 7/4/1
f 13/4/1 10/4/1 9/4/1
f 14/4/1 10/4/1 13/4/1
f 15/4/1 12/4/1 11/4/1
f 16/4/1 12/4/1 15/4/1
f 17/2/1 14/2/1 13/2/1
f 18/2/1 14/2/1 17/2/1
f 19/2/1 16/2/1 15/2/1
f 20/2/1 16/2/1 19/2/1
f 21/4/1 18/4/1 17/4/1
f 22/4/1 18/4/1 21/4/1
f 23/4/1 20/4/1 19/4/1
f 24/4/1 20/4/1 23/4/1
f 29/4/1 26/4/1 25/4/1
f 30/4/1 26/4/1 29/4/1
f 31/4/1 28/4/1 27/4/1
f 32/4/1 28/4/1 31/4/1
f 33/2/1 30/2/1 29/2/1
f 34/2/1 30/2/1 33/2/1
f 37/2/1 32/2/1 31/2/1
f 38/2/1 32/2/1 37/2/1
f 39/4/1 34/4/1 33/4/1
f 40/4/1 34/4/1 39/4/1
f 41/4/1 36/4/1 35/4/1
f 42/4/1 36/4/1 41/4/1
f 43/4/1 38/4/1 37/4/1
f 44/4/1 38/4/1 43/4/1
f 49/4/1 46/4/1 45/4/1
f 50/4/1 46/4/1 49/4/1
f 51/4/1 48/4/1 47/4/1
f 52/4/1 48/4/1 51/4/1
f 57/4/1 54/4/1 53/4/1
f 58/4/1 54/4/1 57/4/1
f 59/4/1 56/4/1 55/4/1
f 60/4/1 56/4/1 59/4/1
f 65/4/1 62/4/1 61/4/1
f 66/4/1 62/4/1 65/4/1
f 67/4/1 64/4/1 63/4/1
f 68/4/1 64/4/1 67/4/1
f 71/4/1 70/4/1 69/4/1
f 72/4/1 70/4/1 71/4/1
f 75/4/1 74/4/1 73/4/1
f 76/4/1 74/4/1 75/4/1
f 77/4/2 78/4/2 79/4/2
f 79/4/2 78/4/2 80/4/2
f 81/4/2 82/4/2 83/4/2
f 83/4/2 82/4/2 84/4/2
f 85/4/2 86/4/2 89/4/2
f 89/4/2 86/4/2 90/4/2
f 87/4/2 88/4/2 91/4/2
f 91/4/2 88/4/2 92/4/2
f 93/4/2 94/4/2 97/4/2
f 97/4/2 94/4/2 98/4/2
f 95/4/2 96/4/2 99/4/2
f 99/4/2 96/4/2 100/4/2
f 101/4/2 102/4/2 103/4/2
f 103/4/2 102/4/2 104/4/2
f 105/4/2 106/4/2 109/4/2
f 109/4/2 106/4/2 110/4/2
f 107/4/2 108/4/2 111/4/2
f 111/4/2 108/4/2 112/4/2
f 113/4/2 114/4/2 117/4/2
f 117/4/2 114/4/2 118/4/2
f 115/4/2 116/4/2 119/4/2
f 119/4/2 116/4/2 120/4/2
f 117/2/2 118/2/2 121/2/2
f 117/2/2 121/2/2 122/2/2
f 117/2/2 122/2/2 123/2/2
f 117/2/2 123/2/2 124/2/2
f 119/2/2 120/2/2 125/2/2
f 117/2/2 124/2/2 126/2/2
f 125/2/2 120/2/2 127/2/2
f 117/2/2 126/2/2 128/2/2
f 128/2/2 126/2/2 129/2/2
f 127/2/2 120/2/2 130/2/2
f 130/2/2 120/2/2 131/2/2
f 128/4/2 129/4/2 132/4/2
f 132/4/2 129/4/2 133/4/2
f 130/4/2 131/4/2 134/4/2
f 134/4/2 131/4/2 135/4/2
f 136/4/2 137/4/2 140/4/2
f 140/4/2 137/4/2 141/4/2
f 138/4/2 139/4/2 142/4/2
f 142/4/2 139/4/2 143/4/2
f 140/2/2 141/2/2 144/2/2
f 144/2/2 141/2/2 145/2/2
f 142/2/2 143/2/2 146/2/2
f 144/1/2 145/1/2 147/1/2
f 144/1/2 147/1/2 148/1/2
f 148/1/2 147/1/2 149/1/2
f 148/3/2 149/3/2 150/3/2
f 150/3/2 149/3/2 151/3/2
f 150/2/2 151/2/2 152/2/2
f 146/2/2 143/2/2 153/2/2
f 150/2/2 152/2/2 154/2/2
f 154/2/2 152/2/2 155/2/2
f 153/2/2 143/2/2 156/2/2
f 156/2/2 143/2/2 157/2/2
f 154/3/2 155/3/2 158/3/2
f 158/3/2 155/3/2 159/3/2
f 156/3/2 157/3/2 160/3/2
f 160/3/2 157/3/2 161/3/2
f 158/2/2 159/2/2 162/2/2
f 162/2/2 159/2/2 163/2/2
f 160/2/2 161/2/2 164/2/2
f 164/2/2 161/2/2 165/2/2
f 162/4/2 163/4/2 166/4/2
f 166/4/2 163/4/2 167/4/2
f 164/4/2 165/4/2 168/4/2
f 168/4/2 165/4/2 169/4/2
f 170/4/2 171/4/2 172/4/2
f 172/4/2 171/4/2 173/4/2
f 172/2/2 173/2/2 174/2/2
f 174/2/2 173/2/2 175/2/2
f 174/1/2 175/1/2 176/1/2
f 176/1/2 175/1/2 177/1/2
f 176/3/2 177/3/2 178/3/2
f 177/1/2 175/1/2 179/1/2
f 178/3/2 177/3/2 179/3/2
f 176/3/2 178/3/2 180/3/2
f 178/1/2 179/1/2 181/1/2
f 180/3/2 178/3/2 181/3/2
f 179/1/2 175/1/2 182/1/2
f 181/1/2 179/1/2 182/1/2
f 180/2/2 181/2/2 183/2/2
f 181/2/2 182/2/2 183/2/2
f 183/2/2 182/2/2 184/2/2
f 183/3/2 184/3/2 185/3/2
f 185/3/2 184/3/2 186/3/2
f 185/2/2 186/2/2 187/2/2
f 187/2/2 186/2/2 188/2/2
f 187/4/2 188/4/2 189/4/2
f 189/4/2 188/4/2 190/4/2
f 195/4/3 192/4/3 191/4/3
f 196/2/3 193/2/3 192/2/3
f 196/4/3 192/4/3 195/4/3
f 197/4/3 194/4/3 193/4/3
f 197/2/3 193/2/3 196/2/3
f 198/4/3 194/4/3 197/4/3
f 203/4/3 200/4/3 199/4/3
f 204/2/3 201/2/3 200/2/3
f 204/4/3 200/4/3 203/4/3
f 205/4/3 202/4/3 201/4/3
f 205/2/3 201/2/3 204/2/3
f 206/4/3 202/4/3 205/4/3
f 216/4/3 208/4/3 207/4/3
f 217/2/3 209/2/3 208/2/3
f 217/4/3 208/4/3 216/4/3
f 218/1/3 210/1/3 209/1/3
f 218/2/3 209/2/3 217/2/3
f 219/3/3 211/3/3 210/3/3
f 219/1/3 210/1/3 218/1/3
f 220/2/3 212/2/3 211/2/3
f 220/3/3 211/3/3 219/3/3
f 221/3/3 213/3/3 212/3/3
f 221/2/3 212/2/3 220/2/3
f 222/2/3 214/2/3 213/2/3
f 222/3/3 213/3/3 221/3/3
f 223/4/3 215/4/3 214/4/3
f 223/2/3 214/2/3 222/2/3
f 224/4/3 215/4/3 223/4/3
f 229/4/3 226/4/3 225/4/3
f 230/2/3 227/2/3 226/2/3
f 230/4/3 226/4/3 229/4/3
f 231/4/3 228/4/3 227/4/3
f 231/2/3 227/2/3 230/2/3
f 232/4/3 228/4/3 231/4/3
f 235/4/3 234/4/3 233/4/3
f 236/4/3 234/4/3 235/4/3
f 248/4/3 238/4/3 237/4/3
f 249/2/3 239/2/3 238/2/3
f 249/4/3 238/4/3 248/4/3
f 250/1/3 240/1/3 239/1/3
f 250/2/3 239/2/3 249/2/3
f 251/3/3 241/3/3 240/3/3
f 251/1/3 240/1/3 250/1/3
f 251/3/3 242/3/3 241/3/3
f 251/3/3 243/3/3 242/3/3
f 252/2/3 244/2/3 243/2/3
f 252/3/3 243/3/3 251/3/3
f 253/3/3 245/3/3 244/3/3
f 253/2/3 244/2/3 252/2/3
f 254/2/3 246/2/3 245/2/3
f 254/3/3 245/3/3 253/3/3
f 255/4/3 247/4/3 246/4/3
f 255/2/3 246/2/3 254/2/3
f 256/4/3 247/4/3 255/4/3
f 259/4/3 258/4/3 257/4/3
f 260/4/3 258/4/3 259/4/3
f 263/4/3 262/4/3 261/4/3
f 264/4/3 262/4/3 263/4/3
f 269/4/3 266/4/3 265/4/3
f 270/4/3 266/4/3 269/4/3
f 271/4/3 268/4/3 267/4/3
f 272/4/3 268/4/3 271/4/3
f 277/4/3 274/4/3 273/4/3
f 278/4/3 274/4/3 277/4/3
f 279/4/3 276/4/3 275/4/3
f 280/4/3 276/4/3 279/4/3
f 285/4/3 282/4/3 281/4/3
f 286/4/3 282/4/3 285/4/3
f 287/4/3 284/4/3 283/4/3
f 288/4/3 284/4/3 287/4/3
f 289/4/4 290/4/4 293/4/4
f 293/4/4 290/4/4 294/4/4
f 291/4/4 292/4/4 295/4/4
f 295/4/4 292/4/4 296/4/4
f 297/4/4 298/4/4 301/4/4
f 301/4/4 298/4/4 302/4/4
f 299/4/4 300/4/4 303/4/4
f 303/4/4 300/4/4 304/4/4
f 305/4/4 306/4/4 309/4/4
f 309/4/4 306/4/4 310/4/4
f 307/4/4 308/4/4 311/4/4
f 311/4/4 308/4/4 312/4/4
f 313/4/4 314/4/4 315/4/4
f 315/4/4 314/4/4 316/4/4
f 317/4/4 318/4/4 319/4/4
f 319/4/4 318/4/4 320/4/4
f 321/4/4 322/4/4 325/4/4
f 322/2/4 323/2/4 326/2/4
f 325/4/4 322/4/4 326/4/4
f 323/4/4 324/4/4 327/4/4
f 326/2/4 323/2/4 327/2/4
f 327/4/4 324/4/4 328/4/4
f 329/4/4 330/4/4 331/4/4
f 331/4/4 330/4/4 332/4/4
f 333/4/4 334/4/4 341/4/4
f 334/2/4 335/2/4 342/2/4
f 341/4/4 334/4/4 342/4/4
f 335/1/4 336/1/4 343/1/4
f 342/2/4 335/2/4 343/2/4
f 336/2/4 337/2/4 344/2/4
f 343/1/4 336/1/4 344/1/4
f 337/3/4 338/3/4 345/3/4
f 344/2/4 337/2/4 345/2/4
f 338/2/4 339/2/4 346/2/4
f 345/3/4 338/3/4 346/3/4
f 339/4/4 340/4/4 347/4/4
f 346/2/4 339/2/4 347/2/4
f 347/4/4 340/4/4 348/4/4
f 349/4/4 350/4/4 353/4/4
f 350/2/4 351/2/4 354/2/4
f 353/4/4 350/4/4 354/4/4
f 351/4/4 352/4/4 355/4/4
f 354/2/4 351/2/4 355/2/4
f 355/4/4 352/4/4 356/4/4
f 357/4/4 358/4/4 363/4/4
f 358/2/4 359/2/4 364/2/4
f 363/4/4 358/4/4 364/4/4
f 359/3/4 360/3/4 365/3/4
f 364/2/4 359/2/4 365/2/4
f 360/2/4 361/2/4 366/2/4
f 365/3/4 360/3/4 366/3/4
f 361/4/4 362/4/4 367/4/4
f 366/2/4 361/2/4 367/2/4
f 367/4/4 362/4/4 368/4/4
f 369/4/4 370/4/4 373/4/4
f 370/2/4 371/2/4 374/2/4
f 373/4/4 370/4/4 374/4/4
f 371/4/4 372/4/4 375/4/4
f 374/2/4 371/2/4 375/2/4
f 375/4/4 372/4/4 376/4/4
f 380/4/5 378/4/5 377/4/5
f 381/4/5 378/4/5 380/4/5
f 384/4/5 380/4/5 379/4/5
f 385/4/5 380/4/5 384/4/5
f 386/4/5 382/4/5 381/4/5
f 387/4/5 382/4/5 386/4/5
f 389/4/5 384/4/5 383/4/5
f 390/4/5 384/4/5 389/4/5
f 393/4/5 388/4/5 387/4/5
f 394/4/5 388/4/5 393/4/5
f 395/4/5 391/4/5 390/4/5
f 396/4/5 391/4/5 395/4/5
f 397/4/5 393/4/5 392/4/5
f 398/4/5 393/4/5 397/4/5
f 399/4/5 397/4/5 396/4/5
f 400/4/5 397/4/5 399/4/5
f 404/4/5 402/4/5 401/4/5
f 405/4/5 402/4/5 404/4/5
f 407/4/5 404/4/5 403/4/5
f 407/4/5 406/4/5 405/4/5
f 407/4/5 405/4/5 404/4/5
f 408/4/5 406/4/5 407/4/5
f 409/4/5 406/4/5 408/4/5
f 410/4/5 406/4/5 409/4/5
f 411/4/5 409/4/5 408/4/5
f 412/4/5 409/4/5 411/4/5
f 413/4/6 414/4/6 416/4/6
f 416/4/6 414/4/6 417/4/6
f 417/4/6 414/4/6 418/4/6
f 418/4/6 414/4/6 419/4/6
f 415/4/6 416/4/6 421/4/6
f 416/4/6 417/4/6 421/4/6
f 421/4/6 417/4/6 422/4/6
f 419/4/6 420/4/6 423/4/6
f 418/4/6 419/4/6 423/4/6
f 415/4/6 421/4/6 424/4/6
f 422/4/6 423/4/6 425/4/6
f 423/4/6 420/4/6 426/4/6
f 425/4/6 423/4/6 426/4/6
f 415/4/6 424/4/6 427/4/6
f 424/4/6 425/4/6 427/4/6
f 427/4/6 425/4/6 428/4/6
f 428/4/6 425/4/6 429/4/6
f 426/4/6 420/4/6 430/4/6
f 430/4/6 420/4/6 431/4/6
f 431/4/6 420/4/6 432/4/6
f 428/4/6 429/4/6 433/4/6
f 430/4/6 431/4/6 433/4/6
f 429/4/6 430/4/6 433/4/6
f 433/4/6 431/4/6 434/4/6
f 435/4/6 436/4/6 438/4/6
f 438/4/6 436/4/6 439/4/6
f 437/4/6 438/4/6 442/4/6
f 442/4/6 438/4/6 443/4/6
f 439/4/6 440/4/6 446/4/6
f 446/4/6 440/4/6 447/4/6
f 444/4/6 445/4/6 450/4/6
f 450/4/6 445/4/6 451/4/6
f 449/4/6 450/4/6 452/4/6
f 452/4/6 450/4/6 453/4/6
f 441/4/6 442/4/6 455/4/6
f 455/4/6 442/4/6 456/4/6
f 453/4/6 454/4/6 458/4/6
f 458/4/6 454/4/6 459/4/6
f 447/4/6 448/4/6 461/4/6
f 461/4/6 448/4/6 462/4/6
f 456/4/6 457/4/6 463/4/6
f 463/4/6 457/4/6 464/4/6
f 460/4/6 461/4/6 465/4/6
f 465/4/6 461/4/6 466/4/6
f 464/4/6 465/4/6 467/4/6
f 467/4/6 465/4/6 468/4/6
