# MagicaVoxel @ Ephtracy

# group
g szczypior

# material
mtllib szczypior.mtl
usemtl palette

# normals
vn -1 0 0
vn 1 0 0
vn 0 0 1
vn 0 0 -1
vn 0 -1 0
vn 0 1 0

# texcoords
vt 0.00585938 0.5
vt 0.291016 0.5
vt 0.794922 0.5

# verts
v -3 12 -2
v -3 12 -3
v -3 13 -2
v -3 13 -3
v -2 9 -2
v -2 9 -3
v -2 12 -2
v -2 12 -3
v -2 19 -0
v -2 19 -1
v -2 20 -0
v -2 20 -1
v -1 1 -1
v -1 1 -2
v -1 3 -1
v -1 3 -2
v -1 5 -1
v -1 5 -2
v -1 9 -1
v -1 9 -2
v -1 15 1
v -1 15 -0
v -1 19 1
v -1 19 -0
v 0 1 2
v 0 1 -0
v 0 5 2
v 0 5 -0
v 0 6 1
v 0 6 -0
v 0 7 2
v 0 7 1
v 0 8 -2
v 0 8 -3
v 0 9 -2
v 0 10 -3
v 0 10 -4
v 0 11 -2
v 0 11 -3
v 0 15 2
v 0 15 1
v 0 16 -1
v 0 16 -2
v 0 16 -3
v 0 16 -4
v 0 17 -1
v 0 17 -2
v 1 1 -1
v 1 1 -3
v 1 4 -1
v 1 4 -3
v 1 5 -2
v 1 5 -3
v 1 6 1
v 1 6 -0
v 1 6 -1
v 1 6 -2
v 1 7 1
v 1 7 -0
v 1 8 -1
v 1 8 -2
v 1 8 -3
v 1 8 -4
v 1 10 -3
v 1 10 -4
v 1 14 1
v 1 14 -0
v 1 14 -1
v 1 16 -0
v 1 16 -1
v 2 5 -2
v 2 5 -3
v 2 6 -2
v 2 6 -3
v 2 8 -2
v 2 8 -3
v -2 12 -2
v -2 12 -3
v -2 13 -2
v -2 13 -3
v -1 9 -2
v -1 9 -3
v -1 12 -2
v -1 12 -3
v -1 19 -0
v -1 19 -1
v -1 20 -0
v -1 20 -1
v 0 1 -1
v 0 1 -2
v 0 3 -1
v 0 3 -2
v 0 5 -1
v 0 5 -2
v 0 8 -2
v 0 9 -1
v 0 9 -2
v 0 15 1
v 0 15 -0
v 0 19 1
v 0 19 -0
v 1 8 2
v 1 8 1
v 1 9 -2
v 1 9 -3
v 1 11 -2
v 1 11 -3
v 1 11 -4
v 1 14 1
v 1 15 2
v 1 15 1
v 1 16 -1
v 1 16 -2
v 1 16 -3
v 1 16 -4
v 1 17 -1
v 1 17 -2
v 2 1 2
v 2 1 -0
v 2 5 2
v 2 5 -0
v 2 7 2
v 2 7 -0
v 2 7 -1
v 2 7 -2
v 2 8 2
v 2 8 1
v 2 8 -1
v 2 8 -2
v 2 8 -3
v 2 8 -4
v 2 9 -2
v 2 9 -3
v 2 11 -3
v 2 11 -4
v 2 14 1
v 2 14 -0
v 2 14 -1
v 2 16 -0
v 2 16 -1
v 3 1 -1
v 3 1 -3
v 3 4 -1
v 3 4 -3
v 3 6 -1
v 3 6 -3
v 3 7 -1
v 3 7 -2
v 3 8 -2
v 3 8 -3
v 0 1 2
v 0 5 2
v 0 7 2
v 0 15 2
v 1 8 2
v 1 15 2
v 2 1 2
v 2 5 2
v 2 7 2
v 2 8 2
v -1 15 1
v -1 19 1
v 0 15 1
v 0 19 1
v 1 8 1
v 1 14 1
v 2 8 1
v 2 14 1
v -2 19 -0
v -2 20 -0
v -1 19 -0
v -1 20 -0
v 1 14 -0
v 1 16 -0
v 2 14 -0
v 2 16 -0
v -1 1 -1
v -1 3 -1
v -1 5 -1
v -1 9 -1
v 0 1 -1
v 0 3 -1
v 0 5 -1
v 0 9 -1
v 0 16 -1
v 0 17 -1
v 1 1 -1
v 1 4 -1
v 1 6 -1
v 1 8 -1
v 1 16 -1
v 1 17 -1
v 2 7 -1
v 2 8 -1
v 3 1 -1
v 3 4 -1
v 3 6 -1
v 3 7 -1
v -3 12 -2
v -3 13 -2
v -2 9 -2
v -2 12 -2
v -2 13 -2
v -1 9 -2
v -1 12 -2
v 0 8 -2
v 0 9 -2
v 0 11 -2
v 1 8 -2
v 1 9 -2
v 1 11 -2
v 2 7 -2
v 2 8 -2
v 2 9 -2
v 3 7 -2
v 3 8 -2
v 0 11 -3
v 0 16 -3
v 1 9 -3
v 1 11 -3
v 1 16 -3
v 2 9 -3
v 2 11 -3
v 0 6 1
v 0 7 1
v 0 15 1
v 1 6 1
v 1 7 1
v 1 14 1
v 1 15 1
v -1 15 -0
v -1 19 -0
v 0 1 -0
v 0 5 -0
v 0 6 -0
v 0 15 -0
v 0 19 -0
v 1 6 -0
v 1 7 -0
v 1 14 -0
v 2 1 -0
v 2 5 -0
v 2 7 -0
v 2 14 -0
v -2 19 -1
v -2 20 -1
v -1 19 -1
v -1 20 -1
v 1 14 -1
v 1 16 -1
v 2 14 -1
v 2 16 -1
v -1 1 -2
v -1 3 -2
v -1 5 -2
v -1 9 -2
v 0 1 -2
v 0 3 -2
v 0 5 -2
v 0 8 -2
v 0 9 -2
v 0 16 -2
v 0 17 -2
v 1 5 -2
v 1 6 -2
v 1 8 -2
v 1 16 -2
v 1 17 -2
v 2 5 -2
v 2 6 -2
v 2 8 -2
v -3 12 -3
v -3 13 -3
v -2 9 -3
v -2 12 -3
v -2 13 -3
v -1 9 -3
v -1 12 -3
v 0 8 -3
v 0 10 -3
v 1 1 -3
v 1 4 -3
v 1 5 -3
v 1 8 -3
v 1 10 -3
v 2 5 -3
v 2 6 -3
v 2 8 -3
v 3 1 -3
v 3 4 -3
v 3 6 -3
v 3 8 -3
v 0 10 -4
v 0 16 -4
v 1 8 -4
v 1 10 -4
v 1 11 -4
v 1 16 -4
v 2 8 -4
v 2 11 -4
v 0 1 2
v 2 1 2
v 0 1 -0
v 2 1 -0
v -1 1 -1
v 0 1 -1
v 1 1 -1
v 3 1 -1
v -1 1 -2
v 0 1 -2
v 1 1 -3
v 3 1 -3
v 0 8 -2
v 1 8 -2
v 2 8 -2
v 0 8 -3
v 1 8 -3
v 2 8 -3
v 1 8 -4
v 2 8 -4
v -2 9 -2
v -1 9 -2
v -2 9 -3
v -1 9 -3
v 0 10 -3
v 1 10 -3
v 0 10 -4
v 1 10 -4
v -3 12 -2
v -2 12 -2
v -3 12 -3
v -2 12 -3
v 1 14 -0
v 2 14 -0
v 1 14 -1
v 2 14 -1
v -1 15 1
v 0 15 1
v -1 15 -0
v 0 15 -0
v 0 16 -1
v 1 16 -1
v 0 16 -2
v 1 16 -2
v -2 19 -0
v -1 19 -0
v -2 19 -1
v -1 19 -1
v 1 5 -2
v 2 5 -2
v 1 5 -3
v 2 5 -3
v 0 6 1
v 1 6 1
v 0 6 -0
v 1 6 -0
v 2 7 -1
v 3 7 -1
v 2 7 -2
v 3 7 -2
v 1 8 2
v 2 8 2
v 1 8 1
v 2 8 1
v 1 8 -1
v 2 8 -1
v 1 8 -2
v 2 8 -2
v 3 8 -2
v 2 8 -3
v 3 8 -3
v -1 9 -1
v 0 9 -1
v -1 9 -2
v 0 9 -2
v 1 9 -2
v 2 9 -2
v 1 9 -3
v 2 9 -3
v 0 11 -2
v 1 11 -2
v 0 11 -3
v 1 11 -3
v 2 11 -3
v 1 11 -4
v 2 11 -4
v -2 12 -2
v -1 12 -2
v -2 12 -3
v -1 12 -3
v -3 13 -2
v -2 13 -2
v -3 13 -3
v -2 13 -3
v 1 14 1
v 2 14 1
v 1 14 -0
v 2 14 -0
v 0 15 2
v 1 15 2
v 0 15 1
v 1 15 1
v 1 16 -0
v 2 16 -0
v 1 16 -1
v 2 16 -1
v 0 16 -3
v 1 16 -3
v 0 16 -4
v 1 16 -4
v 0 17 -1
v 1 17 -1
v 0 17 -2
v 1 17 -2
v -1 19 1
v 0 19 1
v -1 19 -0
v 0 19 -0
v -2 20 -0
v -1 20 -0
v -2 20 -1
v -1 20 -1

# faces
f 3/3/1 2/3/1 1/3/1
f 4/3/1 2/3/1 3/3/1
f 7/3/1 6/3/1 5/3/1
f 8/3/1 6/3/1 7/3/1
f 11/3/1 10/3/1 9/3/1
f 12/3/1 10/3/1 11/3/1
f 15/1/1 14/1/1 13/1/1
f 16/1/1 14/1/1 15/1/1
f 17/2/1 16/2/1 15/2/1
f 18/2/1 16/2/1 17/2/1
f 19/3/1 18/3/1 17/3/1
f 20/3/1 18/3/1 19/3/1
f 23/3/1 22/3/1 21/3/1
f 24/3/1 22/3/1 23/3/1
f 27/1/1 26/1/1 25/1/1
f 28/1/1 26/1/1 27/1/1
f 29/2/1 28/2/1 27/2/1
f 30/2/1 28/2/1 29/2/1
f 31/2/1 29/2/1 27/2/1
f 32/2/1 29/2/1 31/2/1
f 35/3/1 34/3/1 33/3/1
f 36/3/1 34/3/1 35/3/1
f 38/3/1 36/3/1 35/3/1
f 38/3/1 37/3/1 36/3/1
f 39/3/1 37/3/1 38/3/1
f 40/3/1 32/3/1 31/3/1
f 41/3/1 32/3/1 40/3/1
f 44/3/1 37/3/1 39/3/1
f 45/3/1 37/3/1 44/3/1
f 46/3/1 43/3/1 42/3/1
f 47/3/1 43/3/1 46/3/1
f 50/1/1 49/1/1 48/1/1
f 51/1/1 49/1/1 50/1/1
f 52/2/1 51/2/1 50/2/1
f 53/2/1 51/2/1 52/2/1
f 56/2/1 52/2/1 50/2/1
f 57/2/1 52/2/1 56/2/1
f 58/2/1 55/2/1 54/2/1
f 59/2/1 55/2/1 58/2/1
f 60/3/1 57/3/1 56/3/1
f 61/3/1 57/3/1 60/3/1
f 64/3/1 63/3/1 62/3/1
f 65/3/1 63/3/1 64/3/1
f 66/3/1 59/3/1 58/3/1
f 67/3/1 59/3/1 66/3/1
f 69/3/1 68/3/1 67/3/1
f 70/3/1 68/3/1 69/3/1
f 73/2/1 72/2/1 71/2/1
f 74/2/1 72/2/1 73/2/1
f 75/3/1 74/3/1 73/3/1
f 76/3/1 74/3/1 75/3/1
f 77/3/2 78/3/2 79/3/2
f 79/3/2 78/3/2 80/3/2
f 81/3/2 82/3/2 83/3/2
f 83/3/2 82/3/2 84/3/2
f 85/3/2 86/3/2 87/3/2
f 87/3/2 86/3/2 88/3/2
f 89/1/2 90/1/2 91/1/2
f 91/1/2 90/1/2 92/1/2
f 91/2/2 92/2/2 93/2/2
f 93/2/2 92/2/2 94/2/2
f 93/3/2 94/3/2 95/3/2
f 93/3/2 95/3/2 96/3/2
f 96/3/2 95/3/2 97/3/2
f 98/3/2 99/3/2 100/3/2
f 100/3/2 99/3/2 101/3/2
f 104/3/2 105/3/2 106/3/2
f 106/3/2 105/3/2 107/3/2
f 102/3/2 103/3/2 109/3/2
f 102/3/2 109/3/2 110/3/2
f 110/3/2 109/3/2 111/3/2
f 107/3/2 108/3/2 114/3/2
f 114/3/2 108/3/2 115/3/2
f 112/3/2 113/3/2 116/3/2
f 116/3/2 113/3/2 117/3/2
f 118/1/2 119/1/2 120/1/2
f 120/1/2 119/1/2 121/1/2
f 120/2/2 121/2/2 122/2/2
f 122/2/2 121/2/2 123/2/2
f 122/3/2 123/3/2 126/3/2
f 126/3/2 123/3/2 127/3/2
f 124/3/2 125/3/2 128/3/2
f 128/3/2 125/3/2 129/3/2
f 130/3/2 131/3/2 132/3/2
f 129/3/2 130/3/2 132/3/2
f 132/3/2 131/3/2 133/3/2
f 133/3/2 131/3/2 134/3/2
f 134/3/2 131/3/2 135/3/2
f 127/3/2 123/3/2 136/3/2
f 136/3/2 123/3/2 137/3/2
f 137/3/2 138/3/2 139/3/2
f 139/3/2 138/3/2 140/3/2
f 141/1/2 142/1/2 143/1/2
f 143/1/2 142/1/2 144/1/2
f 143/2/2 144/2/2 145/2/2
f 145/2/2 144/2/2 146/2/2
f 145/3/2 146/3/2 147/3/2
f 147/3/2 146/3/2 148/3/2
f 148/3/2 146/3/2 149/3/2
f 149/3/2 146/3/2 150/3/2
f 155/3/3 154/3/3 153/3/3
f 156/3/3 154/3/3 155/3/3
f 157/1/3 152/1/3 151/1/3
f 158/2/3 153/2/3 152/2/3
f 158/1/3 152/1/3 157/1/3
f 159/3/3 155/3/3 153/3/3
f 159/2/3 153/2/3 158/2/3
f 160/3/3 155/3/3 159/3/3
f 163/3/3 162/3/3 161/3/3
f 164/3/3 162/3/3 163/3/3
f 167/3/3 166/3/3 165/3/3
f 168/3/3 166/3/3 167/3/3
f 171/3/3 170/3/3 169/3/3
f 172/3/3 170/3/3 171/3/3
f 175/3/3 174/3/3 173/3/3
f 176/3/3 174/3/3 175/3/3
f 181/1/3 178/1/3 177/1/3
f 182/2/3 179/2/3 178/2/3
f 182/1/3 178/1/3 181/1/3
f 183/3/3 180/3/3 179/3/3
f 183/2/3 179/2/3 182/2/3
f 184/3/3 180/3/3 183/3/3
f 191/3/3 186/3/3 185/3/3
f 192/3/3 186/3/3 191/3/3
f 193/3/3 190/3/3 189/3/3
f 194/3/3 190/3/3 193/3/3
f 195/1/3 188/1/3 187/1/3
f 196/2/3 189/2/3 188/2/3
f 196/1/3 188/1/3 195/1/3
f 197/3/3 193/3/3 189/3/3
f 197/2/3 189/2/3 196/2/3
f 198/3/3 193/3/3 197/3/3
f 202/3/3 200/3/3 199/3/3
f 203/3/3 200/3/3 202/3/3
f 204/3/3 202/3/3 201/3/3
f 205/3/3 202/3/3 204/3/3
f 209/3/3 207/3/3 206/3/3
f 209/3/3 208/3/3 207/3/3
f 210/3/3 208/3/3 209/3/3
f 211/3/3 208/3/3 210/3/3
f 213/3/3 210/3/3 209/3/3
f 214/3/3 210/3/3 213/3/3
f 215/3/3 213/3/3 212/3/3
f 216/3/3 213/3/3 215/3/3
f 220/3/3 218/3/3 217/3/3
f 221/3/3 218/3/3 220/3/3
f 222/3/3 220/3/3 219/3/3
f 223/3/3 220/3/3 222/3/3
f 224/2/4 225/2/4 227/2/4
f 225/3/4 226/3/4 228/3/4
f 227/2/4 225/2/4 228/2/4
f 228/3/4 226/3/4 229/3/4
f 229/3/4 226/3/4 230/3/4
f 231/3/4 232/3/4 236/3/4
f 236/3/4 232/3/4 237/3/4
f 234/2/4 235/2/4 238/2/4
f 233/1/4 234/1/4 241/1/4
f 234/2/4 238/2/4 242/2/4
f 241/1/4 234/1/4 242/1/4
f 238/2/4 239/2/4 242/2/4
f 239/3/4 240/3/4 243/3/4
f 242/2/4 239/2/4 243/2/4
f 243/3/4 240/3/4 244/3/4
f 245/3/4 246/3/4 247/3/4
f 247/3/4 246/3/4 248/3/4
f 249/3/4 250/3/4 251/3/4
f 251/3/4 250/3/4 252/3/4
f 253/1/4 254/1/4 257/1/4
f 254/2/4 255/2/4 258/2/4
f 257/1/4 254/1/4 258/1/4
f 255/3/4 256/3/4 259/3/4
f 258/2/4 255/2/4 259/2/4
f 259/3/4 256/3/4 260/3/4
f 260/3/4 256/3/4 261/3/4
f 262/3/4 263/3/4 267/3/4
f 267/3/4 263/3/4 268/3/4
f 264/2/4 265/2/4 269/2/4
f 265/3/4 266/3/4 270/3/4
f 269/2/4 265/2/4 270/2/4
f 270/3/4 266/3/4 271/3/4
f 272/3/4 273/3/4 275/3/4
f 275/3/4 273/3/4 276/3/4
f 274/3/4 275/3/4 277/3/4
f 277/3/4 275/3/4 278/3/4
f 279/3/4 280/3/4 284/3/4
f 284/3/4 280/3/4 285/3/4
f 282/2/4 283/2/4 286/2/4
f 281/1/4 282/1/4 289/1/4
f 282/2/4 286/2/4 290/2/4
f 289/1/4 282/1/4 290/1/4
f 286/2/4 287/2/4 290/2/4
f 287/3/4 288/3/4 291/3/4
f 290/2/4 287/2/4 291/2/4
f 291/3/4 288/3/4 292/3/4
f 293/3/4 294/3/4 296/3/4
f 296/3/4 294/3/4 297/3/4
f 297/3/4 294/3/4 298/3/4
f 295/3/4 296/3/4 299/3/4
f 296/3/4 297/3/4 299/3/4
f 299/3/4 297/3/4 300/3/4
f 303/1/5 302/1/5 301/1/5
f 304/1/5 302/1/5 303/1/5
f 309/1/5 306/1/5 305/1/5
f 310/1/5 306/1/5 309/1/5
f 311/1/5 308/1/5 307/1/5
f 312/1/5 308/1/5 311/1/5
f 316/3/5 314/3/5 313/3/5
f 316/3/5 315/3/5 314/3/5
f 317/3/5 315/3/5 316/3/5
f 318/3/5 315/3/5 317/3/5
f 319/3/5 318/3/5 317/3/5
f 320/3/5 318/3/5 319/3/5
f 323/3/5 322/3/5 321/3/5
f 324/3/5 322/3/5 323/3/5
f 327/3/5 326/3/5 325/3/5
f 328/3/5 326/3/5 327/3/5
f 331/3/5 330/3/5 329/3/5
f 332/3/5 330/3/5 331/3/5
f 335/3/5 334/3/5 333/3/5
f 336/3/5 334/3/5 335/3/5
f 339/3/5 338/3/5 337/3/5
f 340/3/5 338/3/5 339/3/5
f 343/3/5 342/3/5 341/3/5
f 344/3/5 342/3/5 343/3/5
f 347/3/5 346/3/5 345/3/5
f 348/3/5 346/3/5 347/3/5
f 349/2/6 350/2/6 351/2/6
f 351/2/6 350/2/6 352/2/6
f 353/2/6 354/2/6 355/2/6
f 355/2/6 354/2/6 356/2/6
f 357/3/6 358/3/6 359/3/6
f 359/3/6 358/3/6 360/3/6
f 361/3/6 362/3/6 363/3/6
f 363/3/6 362/3/6 364/3/6
f 365/3/6 366/3/6 367/3/6
f 367/3/6 366/3/6 368/3/6
f 368/3/6 369/3/6 370/3/6
f 370/3/6 369/3/6 371/3/6
f 372/3/6 373/3/6 374/3/6
f 374/3/6 373/3/6 375/3/6
f 376/3/6 377/3/6 378/3/6
f 378/3/6 377/3/6 379/3/6
f 380/3/6 381/3/6 382/3/6
f 382/3/6 381/3/6 383/3/6
f 383/3/6 384/3/6 385/3/6
f 385/3/6 384/3/6 386/3/6
f 387/3/6 388/3/6 389/3/6
f 389/3/6 388/3/6 390/3/6
f 391/3/6 392/3/6 393/3/6
f 393/3/6 392/3/6 394/3/6
f 395/3/6 396/3/6 397/3/6
f 397/3/6 396/3/6 398/3/6
f 399/3/6 400/3/6 401/3/6
f 401/3/6 400/3/6 402/3/6
f 403/3/6 404/3/6 405/3/6
f 405/3/6 404/3/6 406/3/6
f 407/3/6 408/3/6 409/3/6
f 409/3/6 408/3/6 410/3/6
f 411/3/6 412/3/6 413/3/6
f 413/3/6 412/3/6 414/3/6
f 415/3/6 416/3/6 417/3/6
f 417/3/6 416/3/6 418/3/6
f 419/3/6 420/3/6 421/3/6
f 421/3/6 420/3/6 422/3/6
