# MagicaVoxel @ Ephtracy

# group
g trzy paski

# material
mtllib trzy paski.mtl
usemtl palette

# normals
vn -1 0 0
vn 1 0 0
vn 0 0 1
vn 0 0 -1
vn 0 -1 0
vn 0 1 0

# texcoords
vt 0.958984 0.5
vt 0.994141 0.5

# verts
v -7 1 1
v -7 1 -0
v -7 6 1
v -7 6 -0
v -6 0 1
v -6 0 -0
v -6 1 1
v -6 1 -0
v -6 2 3
v -6 2 2
v -6 2 1
v -6 2 -0
v -6 2 -1
v -6 2 -2
v -6 6 2
v -6 6 1
v -6 6 -0
v -6 6 -1
v -6 7 3
v -6 7 2
v -6 8 1
v -6 8 -0
v -6 8 -1
v -6 8 -2
v -5 0 3
v -5 0 2
v -5 0 1
v -5 0 -0
v -5 0 -1
v -5 0 -2
v -5 1 1
v -5 1 -0
v -5 2 3
v -5 2 2
v -5 2 1
v -5 2 -0
v -5 2 -1
v -5 2 -2
v -5 6 2
v -5 6 1
v -5 6 -0
v -5 6 -1
v -5 7 3
v -5 7 2
v -5 8 3
v -5 8 2
v -5 8 1
v -5 8 -0
v -5 8 -1
v -5 8 -2
v -5 9 -1
v -5 9 -2
v -5 10 1
v -5 10 -0
v -4 8 3
v -4 8 2
v -4 8 1
v -4 8 -0
v -4 8 -1
v -4 9 -1
v -4 9 -2
v -4 10 3
v -4 10 2
v -4 10 1
v -4 10 -0
v -4 10 -1
v -4 10 -2
v -3 0 1
v -3 0 -0
v -3 3 1
v -3 3 -0
v -3 4 1
v -3 4 -0
v -3 6 1
v -3 6 -0
v 1 1 1
v 1 1 -0
v 1 2 2
v 1 2 1
v 1 2 -0
v 1 2 -1
v 1 6 2
v 1 6 -0
v 1 7 -0
v 1 7 -1
v 2 0 2
v 2 0 -1
v 2 1 1
v 2 1 -0
v 2 2 3
v 2 2 2
v 2 2 1
v 2 2 -0
v 2 2 -1
v 2 2 -2
v 2 7 3
v 2 7 2
v 2 7 -1
v 2 7 -2
v 3 1 3
v 3 1 2
v 3 1 -1
v 3 1 -2
v 3 2 3
v 3 2 2
v 3 2 -1
v 3 2 -2
v 3 7 2
v 3 7 -0
v 3 8 -0
v 3 8 -1
v 3 10 2
v 3 10 -1
v 4 0 3
v 4 0 2
v 4 0 1
v 4 0 -0
v 4 0 -1
v 4 0 -2
v 4 1 3
v 4 1 2
v 4 1 -1
v 4 1 -2
v 4 3 1
v 4 3 -0
v 4 4 1
v 4 4 -0
v 4 6 1
v 4 6 -0
v -4 0 3
v -4 0 2
v -4 0 1
v -4 0 -0
v -4 0 -1
v -4 0 -2
v -4 1 3
v -4 1 2
v -4 1 -1
v -4 1 -2
v -4 3 1
v -4 3 -0
v -4 4 1
v -4 4 -0
v -4 6 1
v -4 6 -0
v -3 1 3
v -3 1 2
v -3 1 -1
v -3 1 -2
v -3 2 3
v -3 2 2
v -3 2 -1
v -3 2 -2
v -3 7 2
v -3 7 -0
v -3 8 -0
v -3 8 -1
v -3 10 2
v -3 10 -1
v -2 0 2
v -2 0 -1
v -2 1 1
v -2 1 -0
v -2 2 3
v -2 2 2
v -2 2 1
v -2 2 -0
v -2 2 -1
v -2 2 -2
v -2 7 3
v -2 7 2
v -2 7 -1
v -2 7 -2
v -1 1 1
v -1 1 -0
v -1 2 2
v -1 2 1
v -1 2 -0
v -1 2 -1
v -1 6 2
v -1 6 -0
v -1 7 -0
v -1 7 -1
v 3 0 1
v 3 0 -0
v 3 3 1
v 3 3 -0
v 3 4 1
v 3 4 -0
v 3 6 1
v 3 6 -0
v 4 8 3
v 4 8 2
v 4 8 1
v 4 8 -0
v 4 8 -1
v 4 9 -1
v 4 9 -2
v 4 10 3
v 4 10 2
v 4 10 1
v 4 10 -0
v 4 10 -1
v 4 10 -2
v 5 0 3
v 5 0 2
v 5 0 1
v 5 0 -0
v 5 0 -1
v 5 0 -2
v 5 1 1
v 5 1 -0
v 5 2 3
v 5 2 2
v 5 2 1
v 5 2 -0
v 5 2 -1
v 5 2 -2
v 5 6 2
v 5 6 1
v 5 6 -0
v 5 6 -1
v 5 7 3
v 5 7 2
v 5 8 3
v 5 8 2
v 5 8 1
v 5 8 -0
v 5 8 -1
v 5 8 -2
v 5 9 -1
v 5 9 -2
v 5 10 1
v 5 10 -0
v 6 0 1
v 6 0 -0
v 6 1 1
v 6 1 -0
v 6 2 3
v 6 2 2
v 6 2 1
v 6 2 -0
v 6 2 -1
v 6 2 -2
v 6 6 2
v 6 6 1
v 6 6 -0
v 6 6 -1
v 6 7 3
v 6 7 2
v 6 8 1
v 6 8 -0
v 6 8 -1
v 6 8 -2
v 7 1 1
v 7 1 -0
v 7 6 1
v 7 6 -0
v -6 2 3
v -6 7 3
v -5 0 3
v -5 2 3
v -5 7 3
v -5 8 3
v -4 0 3
v -4 1 3
v -4 2 3
v -4 7 3
v -4 8 3
v -4 10 3
v -3 1 3
v -3 2 3
v -3 8 3
v -3 10 3
v -2 2 3
v -2 7 3
v 2 2 3
v 2 7 3
v 3 1 3
v 3 2 3
v 3 8 3
v 3 10 3
v 4 0 3
v 4 1 3
v 4 2 3
v 4 7 3
v 4 8 3
v 4 10 3
v 5 0 3
v 5 2 3
v 5 7 3
v 5 8 3
v 6 2 3
v 6 7 3
v -4 0 2
v -4 1 2
v -3 1 2
v -3 2 2
v -2 0 2
v -2 2 2
v -2 7 2
v -1 2 2
v -1 6 2
v 1 2 2
v 1 6 2
v 2 0 2
v 2 2 2
v 2 7 2
v 3 1 2
v 3 2 2
v 4 0 2
v 4 1 2
v -7 1 1
v -7 6 1
v -6 0 1
v -6 1 1
v -6 2 1
v -6 6 1
v -6 8 1
v -5 0 1
v -5 1 1
v -5 2 1
v -5 6 1
v -5 8 1
v -5 10 1
v -4 8 1
v -4 10 1
v -2 1 1
v -2 2 1
v -1 1 1
v -1 2 1
v 1 1 1
v 1 2 1
v 2 1 1
v 2 2 1
v 4 8 1
v 4 10 1
v 5 0 1
v 5 1 1
v 5 2 1
v 5 6 1
v 5 8 1
v 5 10 1
v 6 0 1
v 6 1 1
v 6 2 1
v 6 6 1
v 6 8 1
v 7 1 1
v 7 6 1
v -4 0 -0
v -4 3 -0
v -4 4 -0
v -4 6 -0
v -3 0 -0
v -3 3 -0
v -3 4 -0
v -3 6 -0
v -3 7 -0
v -3 8 -0
v 3 0 -0
v 3 3 -0
v 3 4 -0
v 3 6 -0
v 3 7 -0
v 3 8 -0
v 4 0 -0
v 4 3 -0
v 4 4 -0
v 4 6 -0
v -6 6 -1
v -6 8 -1
v -5 6 -1
v -5 8 -1
v -5 9 -1
v -4 8 -1
v -4 9 -1
v -3 8 -1
v -3 10 -1
v 3 8 -1
v 3 10 -1
v 4 8 -1
v 4 9 -1
v 5 6 -1
v 5 8 -1
v 5 9 -1
v 6 6 -1
v 6 8 -1
v -6 6 2
v -6 7 2
v -5 6 2
v -5 7 2
v -3 7 2
v -3 10 2
v 3 7 2
v 3 10 2
v 5 6 2
v 5 7 2
v 6 6 2
v 6 7 2
v -4 0 1
v -4 3 1
v -4 4 1
v -4 6 1
v -3 0 1
v -3 3 1
v -3 4 1
v -3 6 1
v 3 0 1
v 3 3 1
v 3 4 1
v 3 6 1
v 4 0 1
v 4 3 1
v 4 4 1
v 4 6 1
v -7 1 -0
v -7 6 -0
v -6 0 -0
v -6 1 -0
v -6 2 -0
v -6 6 -0
v -6 8 -0
v -5 0 -0
v -5 1 -0
v -5 2 -0
v -5 6 -0
v -5 8 -0
v -5 10 -0
v -4 8 -0
v -4 10 -0
v -2 1 -0
v -2 2 -0
v -1 1 -0
v -1 2 -0
v -1 6 -0
v -1 7 -0
v 1 1 -0
v 1 2 -0
v 1 6 -0
v 1 7 -0
v 2 1 -0
v 2 2 -0
v 4 8 -0
v 4 10 -0
v 5 0 -0
v 5 1 -0
v 5 2 -0
v 5 6 -0
v 5 8 -0
v 5 10 -0
v 6 0 -0
v 6 1 -0
v 6 2 -0
v 6 6 -0
v 6 8 -0
v 7 1 -0
v 7 6 -0
v -4 0 -1
v -4 1 -1
v -3 1 -1
v -3 2 -1
v -2 0 -1
v -2 2 -1
v -2 7 -1
v -1 2 -1
v -1 7 -1
v 1 2 -1
v 1 7 -1
v 2 0 -1
v 2 2 -1
v 2 7 -1
v 3 1 -1
v 3 2 -1
v 4 0 -1
v 4 1 -1
v -6 2 -2
v -6 8 -2
v -5 0 -2
v -5 2 -2
v -5 8 -2
v -5 9 -2
v -4 0 -2
v -4 1 -2
v -4 2 -2
v -4 8 -2
v -4 9 -2
v -4 10 -2
v -3 1 -2
v -3 2 -2
v -3 9 -2
v -3 10 -2
v -2 2 -2
v -2 7 -2
v 2 2 -2
v 2 7 -2
v 3 1 -2
v 3 2 -2
v 3 9 -2
v 3 10 -2
v 4 0 -2
v 4 1 -2
v 4 2 -2
v 4 8 -2
v 4 9 -2
v 4 10 -2
v 5 0 -2
v 5 2 -2
v 5 8 -2
v 5 9 -2
v 6 2 -2
v 6 8 -2
v -5 0 3
v -4 0 3
v 4 0 3
v 5 0 3
v -5 0 2
v -4 0 2
v -2 0 2
v 2 0 2
v 4 0 2
v 5 0 2
v -6 0 1
v -5 0 1
v -4 0 1
v -3 0 1
v 3 0 1
v 4 0 1
v 5 0 1
v 6 0 1
v -6 0 -0
v -5 0 -0
v -4 0 -0
v -3 0 -0
v 3 0 -0
v 4 0 -0
v 5 0 -0
v 6 0 -0
v -5 0 -1
v -4 0 -1
v -2 0 -1
v 2 0 -1
v 4 0 -1
v 5 0 -1
v -5 0 -2
v -4 0 -2
v 4 0 -2
v 5 0 -2
v -4 1 3
v -3 1 3
v 3 1 3
v 4 1 3
v -4 1 2
v -3 1 2
v 3 1 2
v 4 1 2
v -7 1 1
v -6 1 1
v -2 1 1
v -1 1 1
v 1 1 1
v 2 1 1
v 6 1 1
v 7 1 1
v -7 1 -0
v -6 1 -0
v -2 1 -0
v -1 1 -0
v 1 1 -0
v 2 1 -0
v 6 1 -0
v 7 1 -0
v -4 1 -1
v -3 1 -1
v 3 1 -1
v 4 1 -1
v -4 1 -2
v -3 1 -2
v 3 1 -2
v 4 1 -2
v -6 2 3
v -5 2 3
v -3 2 3
v -2 2 3
v 2 2 3
v 3 2 3
v 5 2 3
v 6 2 3
v -6 2 2
v -5 2 2
v -3 2 2
v -2 2 2
v -1 2 2
v 1 2 2
v 2 2 2
v 3 2 2
v 5 2 2
v 6 2 2
v -6 2 1
v -5 2 1
v -2 2 1
v -1 2 1
v 1 2 1
v 2 2 1
v 5 2 1
v 6 2 1
v -6 2 -0
v -5 2 -0
v -2 2 -0
v -1 2 -0
v 1 2 -0
v 2 2 -0
v 5 2 -0
v 6 2 -0
v -6 2 -1
v -5 2 -1
v -3 2 -1
v -2 2 -1
v -1 2 -1
v 1 2 -1
v 2 2 -1
v 3 2 -1
v 5 2 -1
v 6 2 -1
v -6 2 -2
v -5 2 -2
v -3 2 -2
v -2 2 -2
v 2 2 -2
v 3 2 -2
v 5 2 -2
v 6 2 -2
v -4 3 1
v -3 3 1
v 3 3 1
v 4 3 1
v -4 3 -0
v -3 3 -0
v 3 3 -0
v 4 3 -0
v -1 6 2
v 1 6 2
v -4 6 1
v -3 6 1
v 3 6 1
v 4 6 1
v -4 6 -0
v -3 6 -0
v -1 6 -0
v 1 6 -0
v 3 6 -0
v 4 6 -0
v -2 7 3
v 2 7 3
v -2 7 2
v 2 7 2
v -1 7 -0
v 1 7 -0
v -2 7 -1
v -1 7 -1
v 1 7 -1
v 2 7 -1
v -2 7 -2
v 2 7 -2
v -4 4 1
v -3 4 1
v 3 4 1
v 4 4 1
v -4 4 -0
v -3 4 -0
v 3 4 -0
v 4 4 -0
v -6 6 2
v -5 6 2
v 5 6 2
v 6 6 2
v -7 6 1
v -6 6 1
v -5 6 1
v 5 6 1
v 6 6 1
v 7 6 1
v -7 6 -0
v -6 6 -0
v -5 6 -0
v 5 6 -0
v 6 6 -0
v 7 6 -0
v -6 6 -1
v -5 6 -1
v 5 6 -1
v 6 6 -1
v -6 7 3
v -5 7 3
v 5 7 3
v 6 7 3
v -6 7 2
v -5 7 2
v -3 7 2
v 3 7 2
v 5 7 2
v 6 7 2
v -3 7 -0
v 3 7 -0
v -5 8 3
v -4 8 3
v 4 8 3
v 5 8 3
v -5 8 2
v -4 8 2
v 4 8 2
v 5 8 2
v -6 8 1
v -5 8 1
v -4 8 1
v 4 8 1
v 5 8 1
v 6 8 1
v -6 8 -0
v -5 8 -0
v -4 8 -0
v -3 8 -0
v 3 8 -0
v 4 8 -0
v 5 8 -0
v 6 8 -0
v -6 8 -1
v -5 8 -1
v -4 8 -1
v -3 8 -1
v 3 8 -1
v 4 8 -1
v 5 8 -1
v 6 8 -1
v -6 8 -2
v -5 8 -2
v 5 8 -2
v 6 8 -2
v -5 9 -1
v -4 9 -1
v 4 9 -1
v 5 9 -1
v -5 9 -2
v -4 9 -2
v 4 9 -2
v 5 9 -2
v -4 10 3
v -3 10 3
v 3 10 3
v 4 10 3
v -4 10 2
v -3 10 2
v 3 10 2
v 4 10 2
v -5 10 1
v -4 10 1
v 4 10 1
v 5 10 1
v -5 10 -0
v -4 10 -0
v 4 10 -0
v 5 10 -0
v -4 10 -1
v -3 10 -1
v 3 10 -1
v 4 10 -1
v -4 10 -2
v -3 10 -2
v 3 10 -2
v 4 10 -2

# faces
f 3/1/1 2/1/1 1/1/1
f 4/1/1 2/1/1 3/1/1
f 7/1/1 6/1/1 5/1/1
f 8/1/1 6/1/1 7/1/1
f 15/2/1 11/2/1 10/2/1
f 15/1/1 10/1/1 9/1/1
f 16/2/1 11/2/1 15/2/1
f 17/2/1 13/2/1 12/2/1
f 18/1/1 14/1/1 13/1/1
f 18/2/1 13/2/1 17/2/1
f 19/1/1 15/1/1 9/1/1
f 20/1/1 15/1/1 19/1/1
f 21/1/1 17/1/1 16/1/1
f 22/1/1 17/1/1 21/1/1
f 23/1/1 14/1/1 18/1/1
f 24/1/1 14/1/1 23/1/1
f 31/2/1 27/2/1 26/2/1
f 32/2/1 29/2/1 28/2/1
f 33/1/1 26/1/1 25/1/1
f 34/2/1 31/2/1 26/2/1
f 34/1/1 26/1/1 33/1/1
f 35/2/1 31/2/1 34/2/1
f 36/2/1 29/2/1 32/2/1
f 37/1/1 30/1/1 29/1/1
f 37/2/1 29/2/1 36/2/1
f 38/1/1 30/1/1 37/1/1
f 44/2/1 40/2/1 39/2/1
f 45/1/1 44/1/1 43/1/1
f 46/2/1 40/2/1 44/2/1
f 46/1/1 44/1/1 45/1/1
f 47/2/1 40/2/1 46/2/1
f 48/2/1 42/2/1 41/2/1
f 49/2/1 42/2/1 48/2/1
f 51/1/1 50/1/1 49/1/1
f 52/1/1 50/1/1 51/1/1
f 53/1/1 48/1/1 47/1/1
f 54/1/1 48/1/1 53/1/1
f 60/2/1 59/2/1 58/2/1
f 62/1/1 56/1/1 55/1/1
f 63/2/1 57/2/1 56/2/1
f 63/1/1 56/1/1 62/1/1
f 64/2/1 57/2/1 63/2/1
f 65/2/1 60/2/1 58/2/1
f 66/1/1 61/1/1 60/1/1
f 66/2/1 60/2/1 65/2/1
f 67/1/1 61/1/1 66/1/1
f 70/2/1 69/2/1 68/2/1
f 71/2/1 69/2/1 70/2/1
f 74/2/1 73/2/1 72/2/1
f 75/2/1 73/2/1 74/2/1
f 79/2/1 77/2/1 76/2/1
f 80/2/1 77/2/1 79/2/1
f 82/2/1 79/2/1 78/2/1
f 82/2/1 81/2/1 80/2/1
f 82/2/1 80/2/1 79/2/1
f 83/2/1 81/2/1 82/2/1
f 84/2/1 81/2/1 83/2/1
f 85/2/1 81/2/1 84/2/1
f 88/2/1 87/2/1 86/2/1
f 89/2/1 87/2/1 88/2/1
f 91/2/1 88/2/1 86/2/1
f 92/2/1 88/2/1 91/2/1
f 93/2/1 87/2/1 89/2/1
f 94/2/1 87/2/1 93/2/1
f 96/2/1 91/2/1 90/2/1
f 97/2/1 91/2/1 96/2/1
f 98/2/1 95/2/1 94/2/1
f 99/2/1 95/2/1 98/2/1
f 104/2/1 101/2/1 100/2/1
f 105/2/1 101/2/1 104/2/1
f 106/2/1 103/2/1 102/2/1
f 107/2/1 103/2/1 106/2/1
f 110/2/1 109/2/1 108/2/1
f 112/2/1 110/2/1 108/2/1
f 112/2/1 111/2/1 110/2/1
f 113/2/1 111/2/1 112/2/1
f 120/1/1 115/1/1 114/1/1
f 121/1/1 115/1/1 120/1/1
f 122/1/1 119/1/1 118/1/1
f 123/1/1 119/1/1 122/1/1
f 124/2/1 117/2/1 116/2/1
f 125/2/1 117/2/1 124/2/1
f 128/2/1 127/2/1 126/2/1
f 129/2/1 127/2/1 128/2/1
f 130/1/2 131/1/2 136/1/2
f 136/1/2 131/1/2 137/1/2
f 134/1/2 135/1/2 138/1/2
f 138/1/2 135/1/2 139/1/2
f 132/2/2 133/2/2 140/2/2
f 140/2/2 133/2/2 141/2/2
f 142/2/2 143/2/2 144/2/2
f 144/2/2 143/2/2 145/2/2
f 146/2/2 147/2/2 150/2/2
f 150/2/2 147/2/2 151/2/2
f 148/2/2 149/2/2 152/2/2
f 152/2/2 149/2/2 153/2/2
f 154/2/2 155/2/2 156/2/2
f 154/2/2 156/2/2 158/2/2
f 156/2/2 157/2/2 158/2/2
f 158/2/2 157/2/2 159/2/2
f 160/2/2 161/2/2 162/2/2
f 162/2/2 161/2/2 163/2/2
f 160/2/2 162/2/2 165/2/2
f 165/2/2 162/2/2 166/2/2
f 163/2/2 161/2/2 167/2/2
f 167/2/2 161/2/2 168/2/2
f 164/2/2 165/2/2 170/2/2
f 170/2/2 165/2/2 171/2/2
f 168/2/2 169/2/2 172/2/2
f 172/2/2 169/2/2 173/2/2
f 174/2/2 175/2/2 177/2/2
f 177/2/2 175/2/2 178/2/2
f 176/2/2 177/2/2 180/2/2
f 178/2/2 179/2/2 180/2/2
f 177/2/2 178/2/2 180/2/2
f 180/2/2 179/2/2 181/2/2
f 181/2/2 179/2/2 182/2/2
f 182/2/2 179/2/2 183/2/2
f 184/2/2 185/2/2 186/2/2
f 186/2/2 185/2/2 187/2/2
f 188/2/2 189/2/2 190/2/2
f 190/2/2 189/2/2 191/2/2
f 195/2/2 196/2/2 197/2/2
f 192/1/2 193/1/2 199/1/2
f 193/2/2 194/2/2 200/2/2
f 199/1/2 193/1/2 200/1/2
f 200/2/2 194/2/2 201/2/2
f 195/2/2 197/2/2 202/2/2
f 197/1/2 198/1/2 203/1/2
f 202/2/2 197/2/2 203/2/2
f 203/1/2 198/1/2 204/1/2
f 206/2/2 207/2/2 211/2/2
f 208/2/2 209/2/2 212/2/2
f 205/1/2 206/1/2 213/1/2
f 206/2/2 211/2/2 214/2/2
f 213/1/2 206/1/2 214/1/2
f 214/2/2 211/2/2 215/2/2
f 212/2/2 209/2/2 216/2/2
f 209/1/2 210/1/2 217/1/2
f 216/2/2 209/2/2 217/2/2
f 217/1/2 210/1/2 218/1/2
f 219/2/2 220/2/2 224/2/2
f 223/1/2 224/1/2 225/1/2
f 224/2/2 220/2/2 226/2/2
f 225/1/2 224/1/2 226/1/2
f 226/2/2 220/2/2 227/2/2
f 221/2/2 222/2/2 228/2/2
f 228/2/2 222/2/2 229/2/2
f 229/1/2 230/1/2 231/1/2
f 231/1/2 230/1/2 232/1/2
f 227/1/2 228/1/2 233/1/2
f 233/1/2 228/1/2 234/1/2
f 235/1/2 236/1/2 237/1/2
f 237/1/2 236/1/2 238/1/2
f 240/2/2 241/2/2 245/2/2
f 239/1/2 240/1/2 245/1/2
f 245/2/2 241/2/2 246/2/2
f 242/2/2 243/2/2 247/2/2
f 243/1/2 244/1/2 248/1/2
f 247/2/2 243/2/2 248/2/2
f 239/1/2 245/1/2 249/1/2
f 249/1/2 245/1/2 250/1/2
f 246/1/2 247/1/2 251/1/2
f 251/1/2 247/1/2 252/1/2
f 248/1/2 244/1/2 253/1/2
f 253/1/2 244/1/2 254/1/2
f 255/1/2 256/1/2 257/1/2
f 257/1/2 256/1/2 258/1/2
f 262/1/3 260/1/3 259/1/3
f 263/1/3 260/1/3 262/1/3
f 265/1/3 262/1/3 261/1/3
f 266/1/3 262/1/3 265/1/3
f 267/2/3 263/2/3 262/2/3
f 267/1/3 262/1/3 266/1/3
f 268/1/3 264/1/3 263/1/3
f 268/2/3 263/2/3 267/2/3
f 269/1/3 264/1/3 268/1/3
f 271/2/3 267/2/3 266/2/3
f 271/2/3 269/2/3 268/2/3
f 271/2/3 268/2/3 267/2/3
f 272/2/3 269/2/3 271/2/3
f 273/1/3 270/1/3 269/1/3
f 273/2/3 269/2/3 272/2/3
f 274/1/3 270/1/3 273/1/3
f 275/2/3 273/2/3 272/2/3
f 275/2/3 274/2/3 273/2/3
f 276/2/3 274/2/3 275/2/3
f 278/2/3 274/2/3 276/2/3
f 280/2/3 278/2/3 277/2/3
f 281/2/3 274/2/3 278/2/3
f 281/2/3 278/2/3 280/2/3
f 282/2/3 274/2/3 281/2/3
f 284/2/3 280/2/3 279/2/3
f 284/2/3 281/2/3 280/2/3
f 285/2/3 281/2/3 284/2/3
f 286/2/3 281/2/3 285/2/3
f 287/1/3 282/1/3 281/1/3
f 287/2/3 281/2/3 286/2/3
f 288/1/3 282/1/3 287/1/3
f 289/1/3 284/1/3 283/1/3
f 289/1/3 285/1/3 284/1/3
f 290/2/3 286/2/3 285/2/3
f 290/1/3 285/1/3 289/1/3
f 291/1/3 287/1/3 286/1/3
f 291/2/3 286/2/3 290/2/3
f 292/1/3 287/1/3 291/1/3
f 293/1/3 291/1/3 290/1/3
f 294/1/3 291/1/3 293/1/3
f 297/2/3 296/2/3 295/2/3
f 299/2/3 297/2/3 295/2/3
f 299/2/3 298/2/3 297/2/3
f 300/2/3 298/2/3 299/2/3
f 302/2/3 301/2/3 300/2/3
f 303/2/3 301/2/3 302/2/3
f 305/2/3 301/2/3 303/2/3
f 307/2/3 305/2/3 304/2/3
f 308/2/3 301/2/3 305/2/3
f 308/2/3 305/2/3 307/2/3
f 309/2/3 307/2/3 306/2/3
f 310/2/3 307/2/3 309/2/3
f 311/2/3 309/2/3 306/2/3
f 312/2/3 309/2/3 311/2/3
f 316/1/3 314/1/3 313/1/3
f 317/1/3 314/1/3 316/1/3
f 318/1/3 314/1/3 317/1/3
f 320/1/3 316/1/3 315/1/3
f 321/2/3 317/2/3 316/2/3
f 321/1/3 316/1/3 320/1/3
f 322/2/3 317/2/3 321/2/3
f 323/1/3 319/1/3 318/1/3
f 324/1/3 319/1/3 323/1/3
f 326/1/3 325/1/3 324/1/3
f 327/1/3 325/1/3 326/1/3
f 330/2/3 329/2/3 328/2/3
f 331/2/3 329/2/3 330/2/3
f 334/2/3 333/2/3 332/2/3
f 335/2/3 333/2/3 334/2/3
f 342/1/3 337/1/3 336/1/3
f 343/1/3 337/1/3 342/1/3
f 344/1/3 339/1/3 338/1/3
f 345/2/3 340/2/3 339/2/3
f 345/1/3 339/1/3 344/1/3
f 346/2/3 340/2/3 345/2/3
f 347/1/3 342/1/3 341/1/3
f 348/1/3 342/1/3 347/1/3
f 349/1/3 346/1/3 345/1/3
f 349/1/3 347/1/3 346/1/3
f 350/1/3 347/1/3 349/1/3
f 355/2/3 352/2/3 351/2/3
f 356/2/3 352/2/3 355/2/3
f 357/2/3 354/2/3 353/2/3
f 358/2/3 354/2/3 357/2/3
f 365/2/3 360/2/3 359/2/3
f 366/2/3 360/2/3 365/2/3
f 367/2/3 362/2/3 361/2/3
f 368/2/3 362/2/3 367/2/3
f 369/2/3 364/2/3 363/2/3
f 370/2/3 364/2/3 369/2/3
f 373/1/3 372/1/3 371/1/3
f 374/1/3 372/1/3 373/1/3
f 376/1/3 375/1/3 374/1/3
f 377/1/3 375/1/3 376/1/3
f 380/2/3 379/2/3 378/2/3
f 381/2/3 379/2/3 380/2/3
f 385/1/3 383/1/3 382/1/3
f 386/1/3 383/1/3 385/1/3
f 387/1/3 385/1/3 384/1/3
f 388/1/3 385/1/3 387/1/3
f 389/1/4 390/1/4 391/1/4
f 391/1/4 390/1/4 392/1/4
f 393/2/4 394/2/4 395/2/4
f 395/2/4 394/2/4 396/2/4
f 397/1/4 398/1/4 399/1/4
f 399/1/4 398/1/4 400/1/4
f 401/2/4 402/2/4 405/2/4
f 405/2/4 402/2/4 406/2/4
f 403/2/4 404/2/4 407/2/4
f 407/2/4 404/2/4 408/2/4
f 409/2/4 410/2/4 413/2/4
f 413/2/4 410/2/4 414/2/4
f 411/2/4 412/2/4 415/2/4
f 415/2/4 412/2/4 416/2/4
f 417/1/4 418/1/4 420/1/4
f 420/1/4 418/1/4 421/1/4
f 421/1/4 418/1/4 422/1/4
f 419/1/4 420/1/4 424/1/4
f 420/2/4 421/2/4 425/2/4
f 424/1/4 420/1/4 425/1/4
f 425/2/4 421/2/4 426/2/4
f 422/1/4 423/1/4 427/1/4
f 427/1/4 423/1/4 428/1/4
f 428/1/4 429/1/4 430/1/4
f 430/1/4 429/1/4 431/1/4
f 432/2/4 433/2/4 434/2/4
f 434/2/4 433/2/4 435/2/4
f 436/2/4 437/2/4 440/2/4
f 440/2/4 437/2/4 441/2/4
f 438/2/4 439/2/4 442/2/4
f 442/2/4 439/2/4 443/2/4
f 444/1/4 445/1/4 450/1/4
f 450/1/4 445/1/4 451/1/4
f 446/1/4 447/1/4 452/1/4
f 447/2/4 448/2/4 453/2/4
f 452/1/4 447/1/4 453/1/4
f 453/2/4 448/2/4 454/2/4
f 449/1/4 450/1/4 455/1/4
f 455/1/4 450/1/4 456/1/4
f 453/1/4 454/1/4 457/1/4
f 454/1/4 455/1/4 457/1/4
f 457/1/4 455/1/4 458/1/4
f 459/2/4 460/2/4 461/2/4
f 459/2/4 461/2/4 463/2/4
f 461/2/4 462/2/4 463/2/4
f 463/2/4 462/2/4 464/2/4
f 464/2/4 465/2/4 466/2/4
f 466/2/4 465/2/4 467/2/4
f 468/2/4 469/2/4 471/2/4
f 471/2/4 469/2/4 472/2/4
f 470/2/4 471/2/4 473/2/4
f 473/2/4 471/2/4 474/2/4
f 470/2/4 473/2/4 475/2/4
f 475/2/4 473/2/4 476/2/4
f 477/1/4 478/1/4 480/1/4
f 480/1/4 478/1/4 481/1/4
f 479/1/4 480/1/4 483/1/4
f 483/1/4 480/1/4 484/1/4
f 480/2/4 481/2/4 485/2/4
f 484/1/4 480/1/4 485/1/4
f 481/1/4 482/1/4 486/1/4
f 485/2/4 481/2/4 486/2/4
f 486/1/4 482/1/4 487/1/4
f 484/2/4 485/2/4 489/2/4
f 486/2/4 487/2/4 489/2/4
f 485/2/4 486/2/4 489/2/4
f 489/2/4 487/2/4 490/2/4
f 487/1/4 488/1/4 491/1/4
f 490/2/4 487/2/4 491/2/4
f 491/1/4 488/1/4 492/1/4
f 490/2/4 491/2/4 493/2/4
f 491/2/4 492/2/4 493/2/4
f 493/2/4 492/2/4 494/2/4
f 494/2/4 492/2/4 496/2/4
f 495/2/4 496/2/4 498/2/4
f 496/2/4 492/2/4 499/2/4
f 498/2/4 496/2/4 499/2/4
f 499/2/4 492/2/4 500/2/4
f 497/2/4 498/2/4 502/2/4
f 498/2/4 499/2/4 502/2/4
f 502/2/4 499/2/4 503/2/4
f 503/2/4 499/2/4 504/2/4
f 499/1/4 500/1/4 505/1/4
f 504/2/4 499/2/4 505/2/4
f 505/1/4 500/1/4 506/1/4
f 501/1/4 502/1/4 507/1/4
f 502/1/4 503/1/4 507/1/4
f 503/2/4 504/2/4 508/2/4
f 507/1/4 503/1/4 508/1/4
f 504/1/4 505/1/4 509/1/4
f 508/2/4 504/2/4 509/2/4
f 509/1/4 505/1/4 510/1/4
f 508/1/4 509/1/4 511/1/4
f 511/1/4 509/1/4 512/1/4
f 517/1/5 514/1/5 513/1/5
f 518/1/5 514/1/5 517/1/5
f 521/1/5 516/1/5 515/1/5
f 522/1/5 516/1/5 521/1/5
f 524/2/5 519/2/5 518/2/5
f 524/2/5 518/2/5 517/2/5
f 525/2/5 519/2/5 524/2/5
f 526/2/5 519/2/5 525/2/5
f 527/2/5 522/2/5 521/2/5
f 527/2/5 521/2/5 520/2/5
f 528/2/5 522/2/5 527/2/5
f 529/2/5 522/2/5 528/2/5
f 531/1/5 524/1/5 523/1/5
f 532/2/5 525/2/5 524/2/5
f 532/1/5 524/1/5 531/1/5
f 533/2/5 525/2/5 532/2/5
f 534/2/5 519/2/5 526/2/5
f 535/2/5 527/2/5 520/2/5
f 536/2/5 529/2/5 528/2/5
f 537/1/5 530/1/5 529/1/5
f 537/2/5 529/2/5 536/2/5
f 538/1/5 530/1/5 537/1/5
f 539/2/5 533/2/5 532/2/5
f 539/2/5 534/2/5 533/2/5
f 540/2/5 534/2/5 539/2/5
f 541/2/5 519/2/5 534/2/5
f 541/2/5 534/2/5 540/2/5
f 542/2/5 535/2/5 520/2/5
f 542/2/5 536/2/5 535/2/5
f 542/2/5 537/2/5 536/2/5
f 543/2/5 537/2/5 542/2/5
f 544/2/5 537/2/5 543/2/5
f 545/1/5 540/1/5 539/1/5
f 546/1/5 540/1/5 545/1/5
f 547/1/5 544/1/5 543/1/5
f 548/1/5 544/1/5 547/1/5
f 553/2/5 550/2/5 549/2/5
f 554/2/5 550/2/5 553/2/5
f 555/2/5 552/2/5 551/2/5
f 556/2/5 552/2/5 555/2/5
f 565/1/5 558/1/5 557/1/5
f 566/1/5 558/1/5 565/1/5
f 567/2/5 560/2/5 559/2/5
f 568/2/5 560/2/5 567/2/5
f 569/2/5 562/2/5 561/2/5
f 570/2/5 562/2/5 569/2/5
f 571/1/5 564/1/5 563/1/5
f 572/1/5 564/1/5 571/1/5
f 577/2/5 574/2/5 573/2/5
f 578/2/5 574/2/5 577/2/5
f 579/2/5 576/2/5 575/2/5
f 580/2/5 576/2/5 579/2/5
f 589/1/5 582/1/5 581/1/5
f 590/1/5 582/1/5 589/1/5
f 591/2/5 584/2/5 583/2/5
f 592/2/5 584/2/5 591/2/5
f 595/2/5 586/2/5 585/2/5
f 596/2/5 586/2/5 595/2/5
f 597/1/5 588/1/5 587/1/5
f 598/1/5 588/1/5 597/1/5
f 599/2/5 590/2/5 589/2/5
f 600/2/5 590/2/5 599/2/5
f 601/2/5 593/2/5 592/2/5
f 602/2/5 593/2/5 601/2/5
f 603/2/5 595/2/5 594/2/5
f 604/2/5 595/2/5 603/2/5
f 605/2/5 598/2/5 597/2/5
f 606/2/5 598/2/5 605/2/5
f 615/2/5 608/2/5 607/2/5
f 616/2/5 608/2/5 615/2/5
f 618/2/5 610/2/5 609/2/5
f 619/2/5 610/2/5 618/2/5
f 620/2/5 612/2/5 611/2/5
f 621/2/5 612/2/5 620/2/5
f 623/2/5 614/2/5 613/2/5
f 624/2/5 614/2/5 623/2/5
f 625/1/5 616/1/5 615/1/5
f 626/1/5 616/1/5 625/1/5
f 627/2/5 618/2/5 617/2/5
f 628/2/5 618/2/5 627/2/5
f 629/2/5 622/2/5 621/2/5
f 630/2/5 622/2/5 629/2/5
f 631/1/5 624/1/5 623/1/5
f 632/1/5 624/1/5 631/1/5
f 637/2/5 634/2/5 633/2/5
f 638/2/5 634/2/5 637/2/5
f 639/2/5 636/2/5 635/2/5
f 640/2/5 636/2/5 639/2/5
f 647/2/5 644/2/5 643/2/5
f 648/2/5 644/2/5 647/2/5
f 649/2/5 642/2/5 641/2/5
f 650/2/5 642/2/5 649/2/5
f 651/2/5 646/2/5 645/2/5
f 652/2/5 646/2/5 651/2/5
f 655/2/5 654/2/5 653/2/5
f 656/2/5 654/2/5 655/2/5
f 660/2/5 658/2/5 657/2/5
f 661/2/5 658/2/5 660/2/5
f 663/2/5 660/2/5 659/2/5
f 663/2/5 662/2/5 661/2/5
f 663/2/5 661/2/5 660/2/5
f 664/2/5 662/2/5 663/2/5
f 665/2/6 666/2/6 669/2/6
f 669/2/6 666/2/6 670/2/6
f 667/2/6 668/2/6 671/2/6
f 671/2/6 668/2/6 672/2/6
f 673/2/6 674/2/6 678/2/6
f 678/2/6 674/2/6 679/2/6
f 675/2/6 676/2/6 680/2/6
f 680/2/6 676/2/6 681/2/6
f 677/1/6 678/1/6 683/1/6
f 683/1/6 678/1/6 684/1/6
f 681/1/6 682/1/6 687/1/6
f 687/1/6 682/1/6 688/1/6
f 684/2/6 685/2/6 689/2/6
f 689/2/6 685/2/6 690/2/6
f 686/2/6 687/2/6 691/2/6
f 691/2/6 687/2/6 692/2/6
f 693/1/6 694/1/6 697/1/6
f 697/1/6 694/1/6 698/1/6
f 695/1/6 696/1/6 701/1/6
f 701/1/6 696/1/6 702/1/6
f 699/2/6 700/2/6 703/2/6
f 703/2/6 700/2/6 704/2/6
f 705/1/6 706/1/6 709/1/6
f 709/1/6 706/1/6 710/1/6
f 707/1/6 708/1/6 711/1/6
f 711/1/6 708/1/6 712/1/6
f 709/2/6 710/2/6 714/2/6
f 714/2/6 710/2/6 715/2/6
f 711/2/6 712/2/6 716/2/6
f 716/2/6 712/2/6 717/2/6
f 713/1/6 714/1/6 719/1/6
f 719/1/6 714/1/6 720/1/6
f 717/1/6 718/1/6 725/1/6
f 725/1/6 718/1/6 726/1/6
f 720/2/6 721/2/6 728/2/6
f 728/2/6 721/2/6 729/2/6
f 722/2/6 723/2/6 730/2/6
f 730/2/6 723/2/6 731/2/6
f 724/2/6 725/2/6 732/2/6
f 732/2/6 725/2/6 733/2/6
f 727/1/6 728/1/6 735/1/6
f 735/1/6 728/1/6 736/1/6
f 733/1/6 734/1/6 737/1/6
f 737/1/6 734/1/6 738/1/6
f 739/1/6 740/1/6 743/1/6
f 743/1/6 740/1/6 744/1/6
f 741/1/6 742/1/6 745/1/6
f 745/1/6 742/1/6 746/1/6
f 747/1/6 748/1/6 751/1/6
f 748/2/6 749/2/6 752/2/6
f 751/1/6 748/1/6 752/1/6
f 749/1/6 750/1/6 753/1/6
f 752/2/6 749/2/6 753/2/6
f 753/1/6 750/1/6 754/1/6
f 751/2/6 752/2/6 756/2/6
f 753/2/6 754/2/6 757/2/6
f 755/1/6 756/1/6 759/1/6
f 756/2/6 752/2/6 760/2/6
f 759/1/6 756/1/6 760/1/6
f 757/1/6 758/1/6 761/1/6
f 753/2/6 757/2/6 761/2/6
f 761/1/6 758/1/6 762/1/6
f 760/2/6 752/2/6 763/2/6
f 763/2/6 752/2/6 764/2/6
f 753/2/6 761/2/6 765/2/6
f 765/2/6 761/2/6 766/2/6
f 763/1/6 764/1/6 767/1/6
f 764/2/6 765/2/6 768/2/6
f 767/1/6 764/1/6 768/1/6
f 765/1/6 766/1/6 769/1/6
f 768/2/6 765/2/6 769/2/6
f 769/1/6 766/1/6 770/1/6
