# MagicaVoxel @ Ephtracy

# group
g alko dla zula

# material
mtllib alko dla zula.mtl
usemtl palette

# normals
vn -1 0 0
vn 1 0 0
vn 0 0 1
vn 0 0 -1
vn 0 -1 0
vn 0 1 0

# texcoords
vt 0.111328 0.5
vt 0.146484 0.5
vt 0.373047 0.5
vt 0.701172 0.5

# verts
v -2 0 1
v -2 0 -1
v -2 2 1
v -2 2 -1
v -2 3 1
v -2 3 -1
v -2 4 1
v -2 4 -1
v -2 5 1
v -2 5 -1
v -2 6 1
v -2 6 -1
v -2 7 1
v -2 7 -1
v -2 9 1
v -2 9 -1
v -1 0 2
v -1 0 1
v -1 0 -1
v -1 0 -2
v -1 2 2
v -1 2 1
v -1 2 -1
v -1 2 -2
v -1 3 2
v -1 3 1
v -1 3 -1
v -1 3 -2
v -1 4 2
v -1 4 1
v -1 4 -1
v -1 4 -2
v -1 5 2
v -1 5 1
v -1 5 -1
v -1 5 -2
v -1 6 2
v -1 6 1
v -1 6 -1
v -1 6 -2
v -1 7 2
v -1 7 1
v -1 7 -1
v -1 7 -2
v -1 9 2
v -1 9 1
v -1 9 -1
v -1 9 -2
v -1 10 1
v -1 10 -0
v -1 10 -1
v -1 11 1
v -1 11 -0
v -1 12 1
v -1 12 -0
v -1 12 -1
v -1 14 1
v -1 14 -1
v 1 0 1
v 1 0 -1
v 1 1 1
v 1 1 -1
v -1 0 1
v -1 0 -1
v -1 1 1
v -1 1 -1
v 1 0 2
v 1 0 1
v 1 0 -1
v 1 0 -2
v 1 2 2
v 1 2 1
v 1 2 -1
v 1 2 -2
v 1 3 2
v 1 3 1
v 1 3 -1
v 1 3 -2
v 1 4 2
v 1 4 1
v 1 4 -1
v 1 4 -2
v 1 5 2
v 1 5 1
v 1 5 -1
v 1 5 -2
v 1 6 2
v 1 6 1
v 1 6 -1
v 1 6 -2
v 1 7 2
v 1 7 1
v 1 7 -1
v 1 7 -2
v 1 9 2
v 1 9 1
v 1 9 -1
v 1 9 -2
v 1 10 1
v 1 10 -0
v 1 10 -1
v 1 11 1
v 1 11 -0
v 1 12 1
v 1 12 -0
v 1 12 -1
v 1 14 1
v 1 14 -1
v 2 0 1
v 2 0 -1
v 2 2 1
v 2 2 -1
v 2 3 1
v 2 3 -1
v 2 4 1
v 2 4 -1
v 2 5 1
v 2 5 -1
v 2 6 1
v 2 6 -1
v 2 7 1
v 2 7 -1
v 2 9 1
v 2 9 -1
v -1 0 2
v -1 2 2
v -1 3 2
v -1 4 2
v -1 5 2
v -1 6 2
v -1 7 2
v -1 9 2
v 1 0 2
v 1 2 2
v 1 3 2
v 1 4 2
v 1 5 2
v 1 6 2
v 1 7 2
v 1 9 2
v -2 0 1
v -2 2 1
v -2 3 1
v -2 4 1
v -2 5 1
v -2 6 1
v -2 7 1
v -2 9 1
v -1 0 1
v -1 2 1
v -1 3 1
v -1 4 1
v -1 5 1
v -1 6 1
v -1 7 1
v -1 9 1
v -1 10 1
v -1 11 1
v -1 12 1
v -1 14 1
v 1 0 1
v 1 2 1
v 1 3 1
v 1 4 1
v 1 5 1
v 1 6 1
v 1 7 1
v 1 9 1
v 1 10 1
v 1 11 1
v 1 12 1
v 1 14 1
v 2 0 1
v 2 2 1
v 2 3 1
v 2 4 1
v 2 5 1
v 2 6 1
v 2 7 1
v 2 9 1
v -1 0 -1
v -1 1 -1
v 1 0 -1
v 1 1 -1
v -1 0 1
v -1 1 1
v 1 0 1
v 1 1 1
v -2 0 -1
v -2 2 -1
v -2 3 -1
v -2 4 -1
v -2 5 -1
v -2 6 -1
v -2 7 -1
v -2 9 -1
v -1 0 -1
v -1 2 -1
v -1 3 -1
v -1 4 -1
v -1 5 -1
v -1 6 -1
v -1 7 -1
v -1 9 -1
v -1 10 -1
v -1 12 -1
v -1 14 -1
v 1 0 -1
v 1 2 -1
v 1 3 -1
v 1 4 -1
v 1 5 -1
v 1 6 -1
v 1 7 -1
v 1 9 -1
v 1 10 -1
v 1 12 -1
v 1 14 -1
v 2 0 -1
v 2 2 -1
v 2 3 -1
v 2 4 -1
v 2 5 -1
v 2 6 -1
v 2 7 -1
v 2 9 -1
v -1 0 -2
v -1 2 -2
v -1 3 -2
v -1 4 -2
v -1 5 -2
v -1 6 -2
v -1 7 -2
v -1 9 -2
v 1 0 -2
v 1 2 -2
v 1 3 -2
v 1 4 -2
v 1 5 -2
v 1 6 -2
v 1 7 -2
v 1 9 -2
v -1 0 2
v 1 0 2
v -2 0 1
v -1 0 1
v 1 0 1
v 2 0 1
v -2 0 -1
v -1 0 -1
v 1 0 -1
v 2 0 -1
v -1 0 -2
v 1 0 -2
v -1 1 1
v 1 1 1
v -1 1 -1
v 1 1 -1
v -1 9 2
v 1 9 2
v -2 9 1
v -1 9 1
v 1 9 1
v 2 9 1
v -2 9 -1
v -1 9 -1
v 1 9 -1
v 2 9 -1
v -1 9 -2
v 1 9 -2
v -1 14 1
v 1 14 1
v -1 14 -1
v 1 14 -1

# faces
f 3/1/1 2/1/1 1/1/1
f 4/1/1 2/1/1 3/1/1
f 5/4/1 4/4/1 3/4/1
f 6/4/1 4/4/1 5/4/1
f 7/3/1 6/3/1 5/3/1
f 8/3/1 6/3/1 7/3/1
f 9/2/1 8/2/1 7/2/1
f 10/2/1 8/2/1 9/2/1
f 11/3/1 10/3/1 9/3/1
f 12/3/1 10/3/1 11/3/1
f 13/4/1 12/4/1 11/4/1
f 14/4/1 12/4/1 13/4/1
f 15/1/1 14/1/1 13/1/1
f 16/1/1 14/1/1 15/1/1
f 21/1/1 18/1/1 17/1/1
f 22/1/1 18/1/1 21/1/1
f 23/1/1 20/1/1 19/1/1
f 24/1/1 20/1/1 23/1/1
f 25/4/1 22/4/1 21/4/1
f 26/4/1 22/4/1 25/4/1
f 27/4/1 24/4/1 23/4/1
f 28/4/1 24/4/1 27/4/1
f 29/3/1 26/3/1 25/3/1
f 30/3/1 26/3/1 29/3/1
f 31/3/1 28/3/1 27/3/1
f 32/3/1 28/3/1 31/3/1
f 33/2/1 30/2/1 29/2/1
f 34/2/1 30/2/1 33/2/1
f 35/2/1 32/2/1 31/2/1
f 36/2/1 32/2/1 35/2/1
f 37/3/1 34/3/1 33/3/1
f 38/3/1 34/3/1 37/3/1
f 39/3/1 36/3/1 35/3/1
f 40/3/1 36/3/1 39/3/1
f 41/4/1 38/4/1 37/4/1
f 42/4/1 38/4/1 41/4/1
f 43/4/1 40/4/1 39/4/1
f 44/4/1 40/4/1 43/4/1
f 45/1/1 42/1/1 41/1/1
f 46/1/1 42/1/1 45/1/1
f 47/1/1 44/1/1 43/1/1
f 48/1/1 44/1/1 47/1/1
f 49/1/1 47/1/1 46/1/1
f 50/1/1 47/1/1 49/1/1
f 51/1/1 47/1/1 50/1/1
f 52/2/1 50/2/1 49/2/1
f 53/4/1 51/4/1 50/4/1
f 53/2/1 50/2/1 52/2/1
f 54/3/1 53/3/1 52/3/1
f 55/4/1 51/4/1 53/4/1
f 55/3/1 53/3/1 54/3/1
f 56/4/1 51/4/1 55/4/1
f 57/1/1 55/1/1 54/1/1
f 57/1/1 56/1/1 55/1/1
f 58/1/1 56/1/1 57/1/1
f 61/1/1 60/1/1 59/1/1
f 62/1/1 60/1/1 61/1/1
f 63/1/2 64/1/2 65/1/2
f 65/1/2 64/1/2 66/1/2
f 67/1/2 68/1/2 71/1/2
f 71/1/2 68/1/2 72/1/2
f 69/1/2 70/1/2 73/1/2
f 73/1/2 70/1/2 74/1/2
f 71/4/2 72/4/2 75/4/2
f 75/4/2 72/4/2 76/4/2
f 73/4/2 74/4/2 77/4/2
f 77/4/2 74/4/2 78/4/2
f 75/3/2 76/3/2 79/3/2
f 79/3/2 76/3/2 80/3/2
f 77/3/2 78/3/2 81/3/2
f 81/3/2 78/3/2 82/3/2
f 79/2/2 80/2/2 83/2/2
f 83/2/2 80/2/2 84/2/2
f 81/2/2 82/2/2 85/2/2
f 85/2/2 82/2/2 86/2/2
f 83/3/2 84/3/2 87/3/2
f 87/3/2 84/3/2 88/3/2
f 85/3/2 86/3/2 89/3/2
f 89/3/2 86/3/2 90/3/2
f 87/4/2 88/4/2 91/4/2
f 91/4/2 88/4/2 92/4/2
f 89/4/2 90/4/2 93/4/2
f 93/4/2 90/4/2 94/4/2
f 91/1/2 92/1/2 95/1/2
f 95/1/2 92/1/2 96/1/2
f 93/1/2 94/1/2 97/1/2
f 97/1/2 94/1/2 98/1/2
f 96/1/2 97/1/2 99/1/2
f 99/1/2 97/1/2 100/1/2
f 100/1/2 97/1/2 101/1/2
f 99/2/2 100/2/2 102/2/2
f 100/4/2 101/4/2 103/4/2
f 102/2/2 100/2/2 103/2/2
f 102/3/2 103/3/2 104/3/2
f 103/4/2 101/4/2 105/4/2
f 104/3/2 103/3/2 105/3/2
f 105/4/2 101/4/2 106/4/2
f 104/1/2 105/1/2 107/1/2
f 105/1/2 106/1/2 107/1/2
f 107/1/2 106/1/2 108/1/2
f 109/1/2 110/1/2 111/1/2
f 111/1/2 110/1/2 112/1/2
f 111/4/2 112/4/2 113/4/2
f 113/4/2 112/4/2 114/4/2
f 113/3/2 114/3/2 115/3/2
f 115/3/2 114/3/2 116/3/2
f 115/2/2 116/2/2 117/2/2
f 117/2/2 116/2/2 118/2/2
f 117/3/2 118/3/2 119/3/2
f 119/3/2 118/3/2 120/3/2
f 119/4/2 120/4/2 121/4/2
f 121/4/2 120/4/2 122/4/2
f 121/1/2 122/1/2 123/1/2
f 123/1/2 122/1/2 124/1/2
f 133/1/3 126/1/3 125/1/3
f 134/4/3 127/4/3 126/4/3
f 134/1/3 126/1/3 133/1/3
f 135/3/3 128/3/3 127/3/3
f 135/4/3 127/4/3 134/4/3
f 136/2/3 129/2/3 128/2/3
f 136/3/3 128/3/3 135/3/3
f 137/3/3 130/3/3 129/3/3
f 137/2/3 129/2/3 136/2/3
f 138/4/3 131/4/3 130/4/3
f 138/3/3 130/3/3 137/3/3
f 139/1/3 132/1/3 131/1/3
f 139/4/3 131/4/3 138/4/3
f 140/1/3 132/1/3 139/1/3
f 149/1/3 142/1/3 141/1/3
f 150/4/3 143/4/3 142/4/3
f 150/1/3 142/1/3 149/1/3
f 151/3/3 144/3/3 143/3/3
f 151/4/3 143/4/3 150/4/3
f 152/2/3 145/2/3 144/2/3
f 152/3/3 144/3/3 151/3/3
f 153/3/3 146/3/3 145/3/3
f 153/2/3 145/2/3 152/2/3
f 154/4/3 147/4/3 146/4/3
f 154/3/3 146/3/3 153/3/3
f 155/1/3 148/1/3 147/1/3
f 155/4/3 147/4/3 154/4/3
f 156/1/3 148/1/3 155/1/3
f 168/1/3 157/1/3 156/1/3
f 169/2/3 158/2/3 157/2/3
f 169/1/3 157/1/3 168/1/3
f 170/3/3 159/3/3 158/3/3
f 170/2/3 158/2/3 169/2/3
f 171/1/3 160/1/3 159/1/3
f 171/3/3 159/3/3 170/3/3
f 172/1/3 160/1/3 171/1/3
f 173/1/3 162/1/3 161/1/3
f 174/4/3 163/4/3 162/4/3
f 174/1/3 162/1/3 173/1/3
f 175/3/3 164/3/3 163/3/3
f 175/4/3 163/4/3 174/4/3
f 176/2/3 165/2/3 164/2/3
f 176/3/3 164/3/3 175/3/3
f 177/3/3 166/3/3 165/3/3
f 177/2/3 165/2/3 176/2/3
f 178/4/3 167/4/3 166/4/3
f 178/3/3 166/3/3 177/3/3
f 179/1/3 168/1/3 167/1/3
f 179/4/3 167/4/3 178/4/3
f 180/1/3 168/1/3 179/1/3
f 183/1/3 182/1/3 181/1/3
f 184/1/3 182/1/3 183/1/3
f 185/1/4 186/1/4 187/1/4
f 187/1/4 186/1/4 188/1/4
f 189/1/4 190/1/4 197/1/4
f 190/4/4 191/4/4 198/4/4
f 197/1/4 190/1/4 198/1/4
f 191/3/4 192/3/4 199/3/4
f 198/4/4 191/4/4 199/4/4
f 192/2/4 193/2/4 200/2/4
f 199/3/4 192/3/4 200/3/4
f 193/3/4 194/3/4 201/3/4
f 200/2/4 193/2/4 201/2/4
f 194/4/4 195/4/4 202/4/4
f 201/3/4 194/3/4 202/3/4
f 195/1/4 196/1/4 203/1/4
f 202/4/4 195/4/4 203/4/4
f 203/1/4 196/1/4 204/1/4
f 204/1/4 205/1/4 215/1/4
f 205/4/4 206/4/4 216/4/4
f 215/1/4 205/1/4 216/1/4
f 206/1/4 207/1/4 217/1/4
f 216/4/4 206/4/4 217/4/4
f 217/1/4 207/1/4 218/1/4
f 208/1/4 209/1/4 219/1/4
f 209/4/4 210/4/4 220/4/4
f 219/1/4 209/1/4 220/1/4
f 210/3/4 211/3/4 221/3/4
f 220/4/4 210/4/4 221/4/4
f 211/2/4 212/2/4 222/2/4
f 221/3/4 211/3/4 222/3/4
f 212/3/4 213/3/4 223/3/4
f 222/2/4 212/2/4 223/2/4
f 213/4/4 214/4/4 224/4/4
f 223/3/4 213/3/4 224/3/4
f 214/1/4 215/1/4 225/1/4
f 224/4/4 214/4/4 225/4/4
f 225/1/4 215/1/4 226/1/4
f 227/1/4 228/1/4 235/1/4
f 228/4/4 229/4/4 236/4/4
f 235/1/4 228/1/4 236/1/4
f 229/3/4 230/3/4 237/3/4
f 236/4/4 229/4/4 237/4/4
f 230/2/4 231/2/4 238/2/4
f 237/3/4 230/3/4 238/3/4
f 231/3/4 232/3/4 239/3/4
f 238/2/4 231/2/4 239/2/4
f 232/4/4 233/4/4 240/4/4
f 239/3/4 232/3/4 240/3/4
f 233/1/4 234/1/4 241/1/4
f 240/4/4 233/4/4 241/4/4
f 241/1/4 234/1/4 242/1/4
f 246/1/5 244/1/5 243/1/5
f 247/1/5 244/1/5 246/1/5
f 249/1/5 246/1/5 245/1/5
f 250/1/5 246/1/5 249/1/5
f 251/1/5 248/1/5 247/1/5
f 252/1/5 248/1/5 251/1/5
f 253/1/5 251/1/5 250/1/5
f 254/1/5 251/1/5 253/1/5
f 257/1/5 256/1/5 255/1/5
f 258/1/5 256/1/5 257/1/5
f 259/1/6 260/1/6 262/1/6
f 262/1/6 260/1/6 263/1/6
f 261/1/6 262/1/6 265/1/6
f 265/1/6 262/1/6 266/1/6
f 263/1/6 264/1/6 267/1/6
f 267/1/6 264/1/6 268/1/6
f 266/1/6 267/1/6 269/1/6
f 269/1/6 267/1/6 270/1/6
f 271/1/6 272/1/6 273/1/6
f 273/1/6 272/1/6 274/1/6
