# MagicaVoxel @ Ephtracy

# group
g kosmetyki4

# material
mtllib kosmetyki4.mtl
usemtl palette

# normals
vn -1 0 0
vn 1 0 0
vn 0 0 1
vn 0 0 -1
vn 0 -1 0
vn 0 1 0

# texcoords
vt 0.0136719 0.5
vt 0.154297 0.5
vt 0.310547 0.5
vt 0.337891 0.5
vt 0.876953 0.5

# verts
v -5.5 0 5.5
v -5.5 0 -3.5
v -5.5 2 5.5
v -5.5 2 4.5
v -5.5 3 4.5
v -5.5 3 3.5
v -5.5 4 3.5
v -5.5 4 2.5
v -5.5 5 2.5
v -5.5 5 -3.5
v -4.5 2 5.5
v -4.5 2 4.5
v -4.5 3 4.5
v -4.5 3 3.5
v -4.5 4 5.5
v -4.5 4 3.5
v -4.5 5 5.5
v -4.5 5 3.5
v -4.5 5 2.5
v -4.5 5 0.5
v -4.5 5 -0.5
v -4.5 5 -2.5
v -4.5 6 5.5
v -4.5 6 3.5
v -4.5 6 2.5
v -4.5 6 0.5
v -4.5 6 -0.5
v -4.5 6 -2.5
v -2.5 1 3.5
v -2.5 1 2.5
v -2.5 1 0.5
v -2.5 1 -0.5
v -2.5 2 3.5
v -2.5 2 2.5
v -2.5 2 0.5
v -2.5 2 -0.5
v -1.5 2 5.5
v -1.5 2 3.5
v -1.5 2 2.5
v -1.5 2 0.5
v -1.5 2 -0.5
v -1.5 2 -2.5
v -1.5 4 5.5
v -1.5 4 3.5
v -1.5 4 2.5
v -1.5 4 0.5
v -1.5 4 -0.5
v -1.5 4 -2.5
v -1.5 5 5.5
v -1.5 5 3.5
v -1.5 5 2.5
v -1.5 5 0.5
v -1.5 5 -0.5
v -1.5 5 -2.5
v -1.5 6 5.5
v -1.5 6 3.5
v -1.5 6 2.5
v -1.5 6 0.5
v -1.5 6 -0.5
v -1.5 6 -2.5
v 0.5 1 3.5
v 0.5 1 2.5
v 0.5 1 0.5
v 0.5 1 -0.5
v 0.5 2 3.5
v 0.5 2 2.5
v 0.5 2 0.5
v 0.5 2 -0.5
v 1.5 2 5.5
v 1.5 2 3.5
v 1.5 2 2.5
v 1.5 2 0.5
v 1.5 2 -0.5
v 1.5 2 -2.5
v 1.5 4 5.5
v 1.5 4 3.5
v 1.5 4 2.5
v 1.5 4 0.5
v 1.5 4 -0.5
v 1.5 4 -2.5
v 1.5 5 5.5
v 1.5 5 3.5
v 1.5 5 2.5
v 1.5 5 0.5
v 1.5 5 -0.5
v 1.5 5 -2.5
v 1.5 6 5.5
v 1.5 6 3.5
v 1.5 6 2.5
v 1.5 6 0.5
v 1.5 6 -0.5
v 1.5 6 -2.5
v 3.5 1 3.5
v 3.5 1 2.5
v 3.5 1 0.5
v 3.5 1 -0.5
v 3.5 4 3.5
v 3.5 4 2.5
v 3.5 4 0.5
v 3.5 4 -0.5
v 3.5 5 0.5
v 3.5 5 -0.5
v -4.5 1 3.5
v -4.5 1 2.5
v -4.5 1 0.5
v -4.5 1 -0.5
v -4.5 4 3.5
v -4.5 4 2.5
v -4.5 4 0.5
v -4.5 4 -0.5
v -4.5 5 0.5
v -4.5 5 -0.5
v -2.5 2 5.5
v -2.5 2 3.5
v -2.5 2 2.5
v -2.5 2 0.5
v -2.5 2 -0.5
v -2.5 2 -2.5
v -2.5 4 5.5
v -2.5 4 3.5
v -2.5 4 2.5
v -2.5 4 0.5
v -2.5 4 -0.5
v -2.5 4 -2.5
v -2.5 5 5.5
v -2.5 5 3.5
v -2.5 5 2.5
v -2.5 5 0.5
v -2.5 5 -0.5
v -2.5 5 -2.5
v -2.5 6 5.5
v -2.5 6 3.5
v -2.5 6 2.5
v -2.5 6 0.5
v -2.5 6 -0.5
v -2.5 6 -2.5
v -1.5 1 3.5
v -1.5 1 2.5
v -1.5 1 0.5
v -1.5 1 -0.5
v -1.5 2 3.5
v -1.5 2 2.5
v -1.5 2 0.5
v -1.5 2 -0.5
v 0.5 2 5.5
v 0.5 2 3.5
v 0.5 2 2.5
v 0.5 2 0.5
v 0.5 2 -0.5
v 0.5 2 -2.5
v 0.5 4 5.5
v 0.5 4 3.5
v 0.5 4 2.5
v 0.5 4 0.5
v 0.5 4 -0.5
v 0.5 4 -2.5
v 0.5 5 5.5
v 0.5 5 3.5
v 0.5 5 2.5
v 0.5 5 0.5
v 0.5 5 -0.5
v 0.5 5 -2.5
v 0.5 6 5.5
v 0.5 6 3.5
v 0.5 6 2.5
v 0.5 6 0.5
v 0.5 6 -0.5
v 0.5 6 -2.5
v 1.5 1 3.5
v 1.5 1 2.5
v 1.5 1 0.5
v 1.5 1 -0.5
v 1.5 2 3.5
v 1.5 2 2.5
v 1.5 2 0.5
v 1.5 2 -0.5
v 3.5 2 5.5
v 3.5 2 4.5
v 3.5 3 4.5
v 3.5 3 3.5
v 3.5 4 5.5
v 3.5 4 3.5
v 3.5 5 5.5
v 3.5 5 3.5
v 3.5 5 2.5
v 3.5 5 0.5
v 3.5 5 -0.5
v 3.5 5 -2.5
v 3.5 6 5.5
v 3.5 6 3.5
v 3.5 6 2.5
v 3.5 6 0.5
v 3.5 6 -0.5
v 3.5 6 -2.5
v 4.5 0 5.5
v 4.5 0 -3.5
v 4.5 2 5.5
v 4.5 2 4.5
v 4.5 3 4.5
v 4.5 3 3.5
v 4.5 4 3.5
v 4.5 4 2.5
v 4.5 5 2.5
v 4.5 5 -3.5
v -5.5 0 5.5
v -5.5 2 5.5
v -4.5 1 5.5
v -4.5 2 5.5
v -4.5 4 5.5
v -4.5 5 5.5
v -4.5 6 5.5
v -2.5 1 5.5
v -2.5 2 5.5
v -2.5 4 5.5
v -2.5 5 5.5
v -2.5 6 5.5
v -1.5 1 5.5
v -1.5 2 5.5
v -1.5 4 5.5
v -1.5 5 5.5
v -1.5 6 5.5
v 0.5 1 5.5
v 0.5 2 5.5
v 0.5 4 5.5
v 0.5 5 5.5
v 0.5 6 5.5
v 1.5 1 5.5
v 1.5 2 5.5
v 1.5 4 5.5
v 1.5 5 5.5
v 1.5 6 5.5
v 3.5 1 5.5
v 3.5 2 5.5
v 3.5 4 5.5
v 3.5 5 5.5
v 3.5 6 5.5
v 4.5 0 5.5
v 4.5 2 5.5
v -5.5 2 4.5
v -5.5 3 4.5
v -4.5 2 4.5
v -4.5 3 4.5
v 3.5 2 4.5
v 3.5 3 4.5
v 4.5 2 4.5
v 4.5 3 4.5
v -5.5 3 3.5
v -5.5 4 3.5
v -4.5 3 3.5
v -4.5 4 3.5
v 3.5 3 3.5
v 3.5 4 3.5
v 4.5 3 3.5
v 4.5 4 3.5
v -5.5 4 2.5
v -5.5 5 2.5
v -4.5 1 2.5
v -4.5 4 2.5
v -4.5 5 2.5
v -4.5 6 2.5
v -2.5 1 2.5
v -2.5 2 2.5
v -2.5 4 2.5
v -2.5 5 2.5
v -2.5 6 2.5
v -1.5 1 2.5
v -1.5 2 2.5
v -1.5 4 2.5
v -1.5 5 2.5
v -1.5 6 2.5
v 0.5 1 2.5
v 0.5 2 2.5
v 0.5 4 2.5
v 0.5 5 2.5
v 0.5 6 2.5
v 1.5 1 2.5
v 1.5 2 2.5
v 1.5 4 2.5
v 1.5 5 2.5
v 1.5 6 2.5
v 3.5 1 2.5
v 3.5 4 2.5
v 3.5 5 2.5
v 3.5 6 2.5
v 4.5 4 2.5
v 4.5 5 2.5
v -4.5 1 -0.5
v -4.5 4 -0.5
v -4.5 5 -0.5
v -4.5 6 -0.5
v -2.5 1 -0.5
v -2.5 2 -0.5
v -2.5 4 -0.5
v -2.5 5 -0.5
v -2.5 6 -0.5
v -1.5 1 -0.5
v -1.5 2 -0.5
v -1.5 4 -0.5
v -1.5 5 -0.5
v -1.5 6 -0.5
v 0.5 1 -0.5
v 0.5 2 -0.5
v 0.5 4 -0.5
v 0.5 5 -0.5
v 0.5 6 -0.5
v 1.5 1 -0.5
v 1.5 2 -0.5
v 1.5 4 -0.5
v 1.5 5 -0.5
v 1.5 6 -0.5
v 3.5 1 -0.5
v 3.5 4 -0.5
v 3.5 5 -0.5
v 3.5 6 -0.5
v -2.5 2 -2.5
v -2.5 4 -2.5
v -2.5 5 -2.5
v -1.5 2 -2.5
v -1.5 4 -2.5
v -1.5 5 -2.5
v 0.5 2 -2.5
v 0.5 4 -2.5
v 0.5 5 -2.5
v 1.5 2 -2.5
v 1.5 4 -2.5
v 1.5 5 -2.5
v -4.5 1 3.5
v -4.5 4 3.5
v -4.5 5 3.5
v -4.5 6 3.5
v -2.5 1 3.5
v -2.5 2 3.5
v -2.5 4 3.5
v -2.5 5 3.5
v -2.5 6 3.5
v -1.5 1 3.5
v -1.5 2 3.5
v -1.5 4 3.5
v -1.5 5 3.5
v -1.5 6 3.5
v 0.5 1 3.5
v 0.5 2 3.5
v 0.5 4 3.5
v 0.5 5 3.5
v 0.5 6 3.5
v 1.5 1 3.5
v 1.5 2 3.5
v 1.5 4 3.5
v 1.5 5 3.5
v 1.5 6 3.5
v 3.5 1 3.5
v 3.5 4 3.5
v 3.5 5 3.5
v 3.5 6 3.5
v -4.5 1 0.5
v -4.5 4 0.5
v -4.5 5 0.5
v -4.5 6 0.5
v -2.5 1 0.5
v -2.5 2 0.5
v -2.5 4 0.5
v -2.5 5 0.5
v -2.5 6 0.5
v -1.5 1 0.5
v -1.5 2 0.5
v -1.5 4 0.5
v -1.5 5 0.5
v -1.5 6 0.5
v 0.5 1 0.5
v 0.5 2 0.5
v 0.5 4 0.5
v 0.5 5 0.5
v 0.5 6 0.5
v 1.5 1 0.5
v 1.5 2 0.5
v 1.5 4 0.5
v 1.5 5 0.5
v 1.5 6 0.5
v 3.5 1 0.5
v 3.5 4 0.5
v 3.5 5 0.5
v 3.5 6 0.5
v -4.5 5 -2.5
v -4.5 6 -2.5
v -2.5 5 -2.5
v -2.5 6 -2.5
v -1.5 5 -2.5
v -1.5 6 -2.5
v 0.5 5 -2.5
v 0.5 6 -2.5
v 1.5 5 -2.5
v 1.5 6 -2.5
v 3.5 5 -2.5
v 3.5 6 -2.5
v -5.5 0 -3.5
v -5.5 5 -3.5
v 4.5 0 -3.5
v 4.5 5 -3.5
v -5.5 0 5.5
v 4.5 0 5.5
v -5.5 0 -3.5
v 4.5 0 -3.5
v -4.5 1 3.5
v -2.5 1 3.5
v -1.5 1 3.5
v 0.5 1 3.5
v 1.5 1 3.5
v 3.5 1 3.5
v -4.5 1 2.5
v -2.5 1 2.5
v -1.5 1 2.5
v 0.5 1 2.5
v 1.5 1 2.5
v 3.5 1 2.5
v -4.5 1 0.5
v -2.5 1 0.5
v -1.5 1 0.5
v 0.5 1 0.5
v 1.5 1 0.5
v 3.5 1 0.5
v -4.5 1 -0.5
v -2.5 1 -0.5
v -1.5 1 -0.5
v 0.5 1 -0.5
v 1.5 1 -0.5
v 3.5 1 -0.5
v -5.5 2 5.5
v -4.5 2 5.5
v -2.5 2 5.5
v -1.5 2 5.5
v 0.5 2 5.5
v 1.5 2 5.5
v 3.5 2 5.5
v 4.5 2 5.5
v -5.5 2 4.5
v -4.5 2 4.5
v 3.5 2 4.5
v 4.5 2 4.5
v -2.5 2 3.5
v -1.5 2 3.5
v 0.5 2 3.5
v 1.5 2 3.5
v -2.5 2 2.5
v -1.5 2 2.5
v 0.5 2 2.5
v 1.5 2 2.5
v -2.5 2 0.5
v -1.5 2 0.5
v 0.5 2 0.5
v 1.5 2 0.5
v -2.5 2 -0.5
v -1.5 2 -0.5
v 0.5 2 -0.5
v 1.5 2 -0.5
v -2.5 2 -2.5
v -1.5 2 -2.5
v 0.5 2 -2.5
v 1.5 2 -2.5
v -5.5 3 4.5
v -4.5 3 4.5
v 3.5 3 4.5
v 4.5 3 4.5
v -5.5 3 3.5
v -4.5 3 3.5
v 3.5 3 3.5
v 4.5 3 3.5
v -5.5 4 3.5
v -4.5 4 3.5
v 3.5 4 3.5
v 4.5 4 3.5
v -5.5 4 2.5
v -4.5 4 2.5
v 3.5 4 2.5
v 4.5 4 2.5
v -5.5 5 2.5
v -4.5 5 2.5
v 3.5 5 2.5
v 4.5 5 2.5
v -4.5 5 0.5
v 3.5 5 0.5
v -4.5 5 -0.5
v 3.5 5 -0.5
v -4.5 5 -2.5
v -2.5 5 -2.5
v -1.5 5 -2.5
v 0.5 5 -2.5
v 1.5 5 -2.5
v 3.5 5 -2.5
v -5.5 5 -3.5
v 4.5 5 -3.5
v -4.5 6 5.5
v -2.5 6 5.5
v -1.5 6 5.5
v 0.5 6 5.5
v 1.5 6 5.5
v 3.5 6 5.5
v -4.5 6 3.5
v -2.5 6 3.5
v -1.5 6 3.5
v 0.5 6 3.5
v 1.5 6 3.5
v 3.5 6 3.5
v -4.5 6 2.5
v -2.5 6 2.5
v -1.5 6 2.5
v 0.5 6 2.5
v 1.5 6 2.5
v 3.5 6 2.5
v -4.5 6 0.5
v -2.5 6 0.5
v -1.5 6 0.5
v 0.5 6 0.5
v 1.5 6 0.5
v 3.5 6 0.5
v -4.5 6 -0.5
v -2.5 6 -0.5
v -1.5 6 -0.5
v 0.5 6 -0.5
v 1.5 6 -0.5
v 3.5 6 -0.5
v -4.5 6 -2.5
v -2.5 6 -2.5
v -1.5 6 -2.5
v 0.5 6 -2.5
v 1.5 6 -2.5
v 3.5 6 -2.5

# faces
f 3/4/1 2/4/1 1/4/1
f 4/4/1 2/4/1 3/4/1
f 5/4/1 2/4/1 4/4/1
f 6/4/1 2/4/1 5/4/1
f 7/4/1 2/4/1 6/4/1
f 8/4/1 2/4/1 7/4/1
f 9/4/1 2/4/1 8/4/1
f 10/4/1 2/4/1 9/4/1
f 13/1/1 12/1/1 11/1/1
f 15/1/1 13/1/1 11/1/1
f 15/1/1 14/1/1 13/1/1
f 16/1/1 14/1/1 15/1/1
f 17/5/1 16/5/1 15/5/1
f 18/5/1 16/5/1 17/5/1
f 23/1/1 18/1/1 17/1/1
f 24/1/1 18/1/1 23/1/1
f 25/1/1 20/1/1 19/1/1
f 26/1/1 20/1/1 25/1/1
f 27/1/1 22/1/1 21/1/1
f 28/1/1 22/1/1 27/1/1
f 33/4/1 30/4/1 29/4/1
f 34/4/1 30/4/1 33/4/1
f 35/4/1 32/4/1 31/4/1
f 36/4/1 32/4/1 35/4/1
f 43/3/1 38/3/1 37/3/1
f 44/3/1 38/3/1 43/3/1
f 45/3/1 40/3/1 39/3/1
f 46/3/1 40/3/1 45/3/1
f 47/3/1 42/3/1 41/3/1
f 48/3/1 42/3/1 47/3/1
f 49/5/1 44/5/1 43/5/1
f 50/5/1 44/5/1 49/5/1
f 51/5/1 46/5/1 45/5/1
f 52/5/1 46/5/1 51/5/1
f 53/5/1 48/5/1 47/5/1
f 54/5/1 48/5/1 53/5/1
f 55/3/1 50/3/1 49/3/1
f 56/3/1 50/3/1 55/3/1
f 57/3/1 52/3/1 51/3/1
f 58/3/1 52/3/1 57/3/1
f 59/3/1 54/3/1 53/3/1
f 60/3/1 54/3/1 59/3/1
f 65/4/1 62/4/1 61/4/1
f 66/4/1 62/4/1 65/4/1
f 67/4/1 64/4/1 63/4/1
f 68/4/1 64/4/1 67/4/1
f 75/2/1 70/2/1 69/2/1
f 76/2/1 70/2/1 75/2/1
f 77/2/1 72/2/1 71/2/1
f 78/2/1 72/2/1 77/2/1
f 79/2/1 74/2/1 73/2/1
f 80/2/1 74/2/1 79/2/1
f 81/5/1 76/5/1 75/5/1
f 82/5/1 76/5/1 81/5/1
f 83/5/1 78/5/1 77/5/1
f 84/5/1 78/5/1 83/5/1
f 85/5/1 80/5/1 79/5/1
f 86/5/1 80/5/1 85/5/1
f 87/2/1 82/2/1 81/2/1
f 88/2/1 82/2/1 87/2/1
f 89/2/1 84/2/1 83/2/1
f 90/2/1 84/2/1 89/2/1
f 91/2/1 86/2/1 85/2/1
f 92/2/1 86/2/1 91/2/1
f 97/4/1 94/4/1 93/4/1
f 98/4/1 94/4/1 97/4/1
f 99/4/1 96/4/1 95/4/1
f 100/4/1 96/4/1 99/4/1
f 101/4/1 100/4/1 99/4/1
f 102/4/1 100/4/1 101/4/1
f 103/4/2 104/4/2 107/4/2
f 107/4/2 104/4/2 108/4/2
f 105/4/2 106/4/2 109/4/2
f 109/4/2 106/4/2 110/4/2
f 109/4/2 110/4/2 111/4/2
f 111/4/2 110/4/2 112/4/2
f 113/1/2 114/1/2 119/1/2
f 119/1/2 114/1/2 120/1/2
f 115/1/2 116/1/2 121/1/2
f 121/1/2 116/1/2 122/1/2
f 117/1/2 118/1/2 123/1/2
f 123/1/2 118/1/2 124/1/2
f 119/5/2 120/5/2 125/5/2
f 125/5/2 120/5/2 126/5/2
f 121/5/2 122/5/2 127/5/2
f 127/5/2 122/5/2 128/5/2
f 123/5/2 124/5/2 129/5/2
f 129/5/2 124/5/2 130/5/2
f 125/1/2 126/1/2 131/1/2
f 131/1/2 126/1/2 132/1/2
f 127/1/2 128/1/2 133/1/2
f 133/1/2 128/1/2 134/1/2
f 129/1/2 130/1/2 135/1/2
f 135/1/2 130/1/2 136/1/2
f 137/4/2 138/4/2 141/4/2
f 141/4/2 138/4/2 142/4/2
f 139/4/2 140/4/2 143/4/2
f 143/4/2 140/4/2 144/4/2
f 145/3/2 146/3/2 151/3/2
f 151/3/2 146/3/2 152/3/2
f 147/3/2 148/3/2 153/3/2
f 153/3/2 148/3/2 154/3/2
f 149/3/2 150/3/2 155/3/2
f 155/3/2 150/3/2 156/3/2
f 151/5/2 152/5/2 157/5/2
f 157/5/2 152/5/2 158/5/2
f 153/5/2 154/5/2 159/5/2
f 159/5/2 154/5/2 160/5/2
f 155/5/2 156/5/2 161/5/2
f 161/5/2 156/5/2 162/5/2
f 157/3/2 158/3/2 163/3/2
f 163/3/2 158/3/2 164/3/2
f 159/3/2 160/3/2 165/3/2
f 165/3/2 160/3/2 166/3/2
f 161/3/2 162/3/2 167/3/2
f 167/3/2 162/3/2 168/3/2
f 169/4/2 170/4/2 173/4/2
f 173/4/2 170/4/2 174/4/2
f 171/4/2 172/4/2 175/4/2
f 175/4/2 172/4/2 176/4/2
f 177/2/2 178/2/2 179/2/2
f 177/2/2 179/2/2 181/2/2
f 179/2/2 180/2/2 181/2/2
f 181/2/2 180/2/2 182/2/2
f 181/5/2 182/5/2 183/5/2
f 183/5/2 182/5/2 184/5/2
f 183/2/2 184/2/2 189/2/2
f 189/2/2 184/2/2 190/2/2
f 185/2/2 186/2/2 191/2/2
f 191/2/2 186/2/2 192/2/2
f 187/2/2 188/2/2 193/2/2
f 193/2/2 188/2/2 194/2/2
f 195/4/2 196/4/2 197/4/2
f 197/4/2 196/4/2 198/4/2
f 198/4/2 196/4/2 199/4/2
f 199/4/2 196/4/2 200/4/2
f 200/4/2 196/4/2 201/4/2
f 201/4/2 196/4/2 202/4/2
f 202/4/2 196/4/2 203/4/2
f 203/4/2 196/4/2 204/4/2
f 207/4/3 206/4/3 205/4/3
f 208/4/3 206/4/3 207/4/3
f 212/4/3 207/4/3 205/4/3
f 212/1/3 208/1/3 207/1/3
f 212/1/3 209/1/3 208/1/3
f 213/1/3 209/1/3 212/1/3
f 214/5/3 210/5/3 209/5/3
f 214/1/3 209/1/3 213/1/3
f 215/1/3 211/1/3 210/1/3
f 215/5/3 210/5/3 214/5/3
f 216/1/3 211/1/3 215/1/3
f 217/4/3 213/4/3 212/4/3
f 217/4/3 212/4/3 205/4/3
f 218/4/3 213/4/3 217/4/3
f 222/4/3 217/4/3 205/4/3
f 222/3/3 218/3/3 217/3/3
f 222/3/3 219/3/3 218/3/3
f 223/3/3 219/3/3 222/3/3
f 224/5/3 220/5/3 219/5/3
f 224/3/3 219/3/3 223/3/3
f 225/3/3 221/3/3 220/3/3
f 225/5/3 220/5/3 224/5/3
f 226/3/3 221/3/3 225/3/3
f 227/4/3 223/4/3 222/4/3
f 227/4/3 222/4/3 205/4/3
f 228/4/3 223/4/3 227/4/3
f 232/4/3 227/4/3 205/4/3
f 232/2/3 228/2/3 227/2/3
f 232/2/3 229/2/3 228/2/3
f 233/2/3 229/2/3 232/2/3
f 234/5/3 230/5/3 229/5/3
f 234/2/3 229/2/3 233/2/3
f 235/2/3 231/2/3 230/2/3
f 235/5/3 230/5/3 234/5/3
f 236/2/3 231/2/3 235/2/3
f 237/4/3 233/4/3 232/4/3
f 237/4/3 232/4/3 205/4/3
f 238/4/3 233/4/3 237/4/3
f 241/4/3 240/4/3 239/4/3
f 242/4/3 240/4/3 241/4/3
f 245/4/3 244/4/3 243/4/3
f 246/4/3 244/4/3 245/4/3
f 249/4/3 248/4/3 247/4/3
f 250/4/3 248/4/3 249/4/3
f 253/4/3 252/4/3 251/4/3
f 254/4/3 252/4/3 253/4/3
f 258/4/3 256/4/3 255/4/3
f 259/4/3 256/4/3 258/4/3
f 261/1/3 258/1/3 257/1/3
f 262/1/3 258/1/3 261/1/3
f 263/5/3 259/5/3 258/5/3
f 263/1/3 258/1/3 262/1/3
f 264/1/3 260/1/3 259/1/3
f 264/5/3 259/5/3 263/5/3
f 265/1/3 260/1/3 264/1/3
f 271/3/3 267/3/3 266/3/3
f 271/3/3 268/3/3 267/3/3
f 272/3/3 268/3/3 271/3/3
f 273/5/3 269/5/3 268/5/3
f 273/3/3 268/3/3 272/3/3
f 274/3/3 270/3/3 269/3/3
f 274/5/3 269/5/3 273/5/3
f 275/3/3 270/3/3 274/3/3
f 281/2/3 277/2/3 276/2/3
f 281/2/3 278/2/3 277/2/3
f 282/5/3 279/5/3 278/5/3
f 282/2/3 278/2/3 281/2/3
f 283/2/3 280/2/3 279/2/3
f 283/5/3 279/5/3 282/5/3
f 284/2/3 280/2/3 283/2/3
f 285/4/3 283/4/3 282/4/3
f 286/4/3 283/4/3 285/4/3
f 291/1/3 288/1/3 287/1/3
f 292/1/3 288/1/3 291/1/3
f 293/5/3 289/5/3 288/5/3
f 293/1/3 288/1/3 292/1/3
f 294/1/3 290/1/3 289/1/3
f 294/5/3 289/5/3 293/5/3
f 295/1/3 290/1/3 294/1/3
f 301/3/3 297/3/3 296/3/3
f 301/3/3 298/3/3 297/3/3
f 302/3/3 298/3/3 301/3/3
f 303/5/3 299/5/3 298/5/3
f 303/3/3 298/3/3 302/3/3
f 304/3/3 300/3/3 299/3/3
f 304/5/3 299/5/3 303/5/3
f 305/3/3 300/3/3 304/3/3
f 311/2/3 307/2/3 306/2/3
f 311/2/3 308/2/3 307/2/3
f 312/5/3 309/5/3 308/5/3
f 312/2/3 308/2/3 311/2/3
f 313/2/3 310/2/3 309/2/3
f 313/5/3 309/5/3 312/5/3
f 314/2/3 310/2/3 313/2/3
f 318/4/3 316/4/3 315/4/3
f 318/4/3 317/4/3 316/4/3
f 319/4/3 317/4/3 318/4/3
f 320/4/3 317/4/3 319/4/3
f 324/4/3 322/4/3 321/4/3
f 324/4/3 323/4/3 322/4/3
f 325/4/3 323/4/3 324/4/3
f 326/4/3 323/4/3 325/4/3
f 327/1/4 328/1/4 331/1/4
f 331/1/4 328/1/4 332/1/4
f 328/5/4 329/5/4 333/5/4
f 332/1/4 328/1/4 333/1/4
f 329/1/4 330/1/4 334/1/4
f 333/5/4 329/5/4 334/5/4
f 334/1/4 330/1/4 335/1/4
f 336/3/4 337/3/4 341/3/4
f 337/3/4 338/3/4 341/3/4
f 341/3/4 338/3/4 342/3/4
f 338/5/4 339/5/4 343/5/4
f 342/3/4 338/3/4 343/3/4
f 339/3/4 340/3/4 344/3/4
f 343/5/4 339/5/4 344/5/4
f 344/3/4 340/3/4 345/3/4
f 346/2/4 347/2/4 351/2/4
f 347/2/4 348/2/4 351/2/4
f 348/5/4 349/5/4 352/5/4
f 351/2/4 348/2/4 352/2/4
f 349/2/4 350/2/4 353/2/4
f 352/5/4 349/5/4 353/5/4
f 353/2/4 350/2/4 354/2/4
f 355/1/4 356/1/4 359/1/4
f 359/1/4 356/1/4 360/1/4
f 356/5/4 357/5/4 361/5/4
f 360/1/4 356/1/4 361/1/4
f 357/1/4 358/1/4 362/1/4
f 361/5/4 357/5/4 362/5/4
f 362/1/4 358/1/4 363/1/4
f 364/3/4 365/3/4 369/3/4
f 365/3/4 366/3/4 369/3/4
f 369/3/4 366/3/4 370/3/4
f 366/5/4 367/5/4 371/5/4
f 370/3/4 366/3/4 371/3/4
f 367/3/4 368/3/4 372/3/4
f 371/5/4 367/5/4 372/5/4
f 372/3/4 368/3/4 373/3/4
f 374/2/4 375/2/4 379/2/4
f 375/2/4 376/2/4 379/2/4
f 376/5/4 377/5/4 380/5/4
f 379/2/4 376/2/4 380/2/4
f 377/2/4 378/2/4 381/2/4
f 380/5/4 377/5/4 381/5/4
f 381/2/4 378/2/4 382/2/4
f 383/1/4 384/1/4 385/1/4
f 385/1/4 384/1/4 386/1/4
f 387/3/4 388/3/4 389/3/4
f 389/3/4 388/3/4 390/3/4
f 391/2/4 392/2/4 393/2/4
f 393/2/4 392/2/4 394/2/4
f 395/4/4 396/4/4 397/4/4
f 397/4/4 396/4/4 398/4/4
f 401/4/5 400/4/5 399/4/5
f 402/4/5 400/4/5 401/4/5
f 403/4/6 404/4/6 409/4/6
f 409/4/6 404/4/6 410/4/6
f 405/4/6 406/4/6 411/4/6
f 411/4/6 406/4/6 412/4/6
f 407/4/6 408/4/6 413/4/6
f 413/4/6 408/4/6 414/4/6
f 415/4/6 416/4/6 421/4/6
f 421/4/6 416/4/6 422/4/6
f 417/4/6 418/4/6 423/4/6
f 423/4/6 418/4/6 424/4/6
f 419/4/6 420/4/6 425/4/6
f 425/4/6 420/4/6 426/4/6
f 427/4/6 428/4/6 435/4/6
f 435/4/6 428/4/6 436/4/6
f 433/4/6 434/4/6 437/4/6
f 437/4/6 434/4/6 438/4/6
f 429/4/6 430/4/6 439/4/6
f 439/4/6 430/4/6 440/4/6
f 431/4/6 432/4/6 441/4/6
f 441/4/6 432/4/6 442/4/6
f 439/4/6 440/4/6 443/4/6
f 443/4/6 440/4/6 444/4/6
f 441/4/6 442/4/6 445/4/6
f 445/4/6 442/4/6 446/4/6
f 443/4/6 444/4/6 447/4/6
f 447/4/6 444/4/6 448/4/6
f 445/4/6 446/4/6 449/4/6
f 449/4/6 446/4/6 450/4/6
f 447/4/6 448/4/6 451/4/6
f 451/4/6 448/4/6 452/4/6
f 449/4/6 450/4/6 453/4/6
f 453/4/6 450/4/6 454/4/6
f 451/4/6 452/4/6 455/4/6
f 455/4/6 452/4/6 456/4/6
f 453/4/6 454/4/6 457/4/6
f 457/4/6 454/4/6 458/4/6
f 459/4/6 460/4/6 463/4/6
f 463/4/6 460/4/6 464/4/6
f 461/4/6 462/4/6 465/4/6
f 465/4/6 462/4/6 466/4/6
f 467/4/6 468/4/6 471/4/6
f 471/4/6 468/4/6 472/4/6
f 469/4/6 470/4/6 473/4/6
f 473/4/6 470/4/6 474/4/6
f 475/4/6 476/4/6 479/4/6
f 477/4/6 478/4/6 480/4/6
f 475/4/6 479/4/6 481/4/6
f 480/4/6 478/4/6 482/4/6
f 475/4/6 481/4/6 483/4/6
f 482/4/6 478/4/6 488/4/6
f 486/4/6 487/4/6 489/4/6
f 487/4/6 488/4/6 489/4/6
f 475/4/6 483/4/6 489/4/6
f 483/4/6 484/4/6 489/4/6
f 485/4/6 486/4/6 489/4/6
f 484/4/6 485/4/6 489/4/6
f 488/4/6 478/4/6 490/4/6
f 489/4/6 488/4/6 490/4/6
f 491/1/6 492/1/6 497/1/6
f 497/1/6 492/1/6 498/1/6
f 493/3/6 494/3/6 499/3/6
f 499/3/6 494/3/6 500/3/6
f 495/2/6 496/2/6 501/2/6
f 501/2/6 496/2/6 502/2/6
f 503/1/6 504/1/6 509/1/6
f 509/1/6 504/1/6 510/1/6
f 505/3/6 506/3/6 511/3/6
f 511/3/6 506/3/6 512/3/6
f 507/2/6 508/2/6 513/2/6
f 513/2/6 508/2/6 514/2/6
f 515/1/6 516/1/6 521/1/6
f 521/1/6 516/1/6 522/1/6
f 517/3/6 518/3/6 523/3/6
f 523/3/6 518/3/6 524/3/6
f 519/2/6 520/2/6 525/2/6
f 525/2/6 520/2/6 526/2/6
