# MagicaVoxel @ Ephtracy

# group
g kosmetyki5

# material
mtllib kosmetyki5.mtl
usemtl palette

# normals
vn -1 0 0
vn 1 0 0
vn 0 0 1
vn 0 0 -1
vn 0 -1 0
vn 0 1 0

# texcoords
vt 0.0800781 0.5
vt 0.181641 0.5
vt 0.224609 0.5
vt 0.333984 0.5
vt 0.759766 0.5

# verts
v -5.5 0 5.5
v -5.5 0 -3.5
v -5.5 2 5.5
v -5.5 2 4.5
v -5.5 3 4.5
v -5.5 3 3.5
v -5.5 4 3.5
v -5.5 4 2.5
v -5.5 5 2.5
v -5.5 5 -3.5
v -4.5 2 5.5
v -4.5 2 4.5
v -4.5 3 4.5
v -4.5 3 3.5
v -4.5 4 5.5
v -4.5 4 3.5
v -4.5 5 5.5
v -4.5 5 3.5
v -4.5 5 2.5
v -4.5 5 0.5
v -4.5 5 -0.5
v -4.5 5 -2.5
v -4.5 6 5.5
v -4.5 6 3.5
v -4.5 6 2.5
v -4.5 6 0.5
v -4.5 6 -0.5
v -4.5 6 -2.5
v -2.5 1 3.5
v -2.5 1 2.5
v -2.5 1 0.5
v -2.5 1 -0.5
v -2.5 2 3.5
v -2.5 2 2.5
v -2.5 2 0.5
v -2.5 2 -0.5
v -1.5 2 5.5
v -1.5 2 3.5
v -1.5 2 2.5
v -1.5 2 0.5
v -1.5 2 -0.5
v -1.5 2 -2.5
v -1.5 4 5.5
v -1.5 4 3.5
v -1.5 4 2.5
v -1.5 4 0.5
v -1.5 4 -0.5
v -1.5 4 -2.5
v -1.5 5 5.5
v -1.5 5 3.5
v -1.5 5 2.5
v -1.5 5 0.5
v -1.5 5 -0.5
v -1.5 5 -2.5
v -1.5 6 5.5
v -1.5 6 3.5
v -1.5 6 2.5
v -1.5 6 0.5
v -1.5 6 -0.5
v -1.5 6 -2.5
v 0.5 1 3.5
v 0.5 1 2.5
v 0.5 1 0.5
v 0.5 1 -0.5
v 0.5 2 3.5
v 0.5 2 2.5
v 0.5 2 0.5
v 0.5 2 -0.5
v 1.5 2 5.5
v 1.5 2 3.5
v 1.5 2 2.5
v 1.5 2 0.5
v 1.5 2 -0.5
v 1.5 2 -2.5
v 1.5 4 5.5
v 1.5 4 3.5
v 1.5 4 2.5
v 1.5 4 0.5
v 1.5 4 -0.5
v 1.5 4 -2.5
v 1.5 5 5.5
v 1.5 5 3.5
v 1.5 5 2.5
v 1.5 5 0.5
v 1.5 5 -0.5
v 1.5 5 -2.5
v 1.5 6 5.5
v 1.5 6 3.5
v 1.5 6 2.5
v 1.5 6 0.5
v 1.5 6 -0.5
v 1.5 6 -2.5
v 3.5 1 3.5
v 3.5 1 2.5
v 3.5 1 0.5
v 3.5 1 -0.5
v 3.5 4 3.5
v 3.5 4 2.5
v 3.5 4 0.5
v 3.5 4 -0.5
v 3.5 5 0.5
v 3.5 5 -0.5
v -4.5 1 3.5
v -4.5 1 2.5
v -4.5 1 0.5
v -4.5 1 -0.5
v -4.5 4 3.5
v -4.5 4 2.5
v -4.5 4 0.5
v -4.5 4 -0.5
v -4.5 5 0.5
v -4.5 5 -0.5
v -2.5 2 5.5
v -2.5 2 3.5
v -2.5 2 2.5
v -2.5 2 0.5
v -2.5 2 -0.5
v -2.5 2 -2.5
v -2.5 4 5.5
v -2.5 4 3.5
v -2.5 4 2.5
v -2.5 4 0.5
v -2.5 4 -0.5
v -2.5 4 -2.5
v -2.5 5 5.5
v -2.5 5 3.5
v -2.5 5 2.5
v -2.5 5 0.5
v -2.5 5 -0.5
v -2.5 5 -2.5
v -2.5 6 5.5
v -2.5 6 3.5
v -2.5 6 2.5
v -2.5 6 0.5
v -2.5 6 -0.5
v -2.5 6 -2.5
v -1.5 1 3.5
v -1.5 1 2.5
v -1.5 1 0.5
v -1.5 1 -0.5
v -1.5 2 3.5
v -1.5 2 2.5
v -1.5 2 0.5
v -1.5 2 -0.5
v 0.5 2 5.5
v 0.5 2 3.5
v 0.5 2 2.5
v 0.5 2 0.5
v 0.5 2 -0.5
v 0.5 2 -2.5
v 0.5 4 5.5
v 0.5 4 3.5
v 0.5 4 2.5
v 0.5 4 0.5
v 0.5 4 -0.5
v 0.5 4 -2.5
v 0.5 5 5.5
v 0.5 5 3.5
v 0.5 5 2.5
v 0.5 5 0.5
v 0.5 5 -0.5
v 0.5 5 -2.5
v 0.5 6 5.5
v 0.5 6 3.5
v 0.5 6 2.5
v 0.5 6 0.5
v 0.5 6 -0.5
v 0.5 6 -2.5
v 1.5 1 3.5
v 1.5 1 2.5
v 1.5 1 0.5
v 1.5 1 -0.5
v 1.5 2 3.5
v 1.5 2 2.5
v 1.5 2 0.5
v 1.5 2 -0.5
v 3.5 2 5.5
v 3.5 2 4.5
v 3.5 3 4.5
v 3.5 3 3.5
v 3.5 4 5.5
v 3.5 4 3.5
v 3.5 5 5.5
v 3.5 5 3.5
v 3.5 5 2.5
v 3.5 5 0.5
v 3.5 5 -0.5
v 3.5 5 -2.5
v 3.5 6 5.5
v 3.5 6 3.5
v 3.5 6 2.5
v 3.5 6 0.5
v 3.5 6 -0.5
v 3.5 6 -2.5
v 4.5 0 5.5
v 4.5 0 -3.5
v 4.5 2 5.5
v 4.5 2 4.5
v 4.5 3 4.5
v 4.5 3 3.5
v 4.5 4 3.5
v 4.5 4 2.5
v 4.5 5 2.5
v 4.5 5 -3.5
v -5.5 0 5.5
v -5.5 2 5.5
v -4.5 1 5.5
v -4.5 2 5.5
v -4.5 4 5.5
v -4.5 5 5.5
v -4.5 6 5.5
v -2.5 1 5.5
v -2.5 2 5.5
v -2.5 4 5.5
v -2.5 5 5.5
v -2.5 6 5.5
v -1.5 1 5.5
v -1.5 2 5.5
v -1.5 4 5.5
v -1.5 5 5.5
v -1.5 6 5.5
v 0.5 1 5.5
v 0.5 2 5.5
v 0.5 4 5.5
v 0.5 5 5.5
v 0.5 6 5.5
v 1.5 1 5.5
v 1.5 2 5.5
v 1.5 4 5.5
v 1.5 5 5.5
v 1.5 6 5.5
v 3.5 1 5.5
v 3.5 2 5.5
v 3.5 4 5.5
v 3.5 5 5.5
v 3.5 6 5.5
v 4.5 0 5.5
v 4.5 2 5.5
v -5.5 2 4.5
v -5.5 3 4.5
v -4.5 2 4.5
v -4.5 3 4.5
v 3.5 2 4.5
v 3.5 3 4.5
v 4.5 2 4.5
v 4.5 3 4.5
v -5.5 3 3.5
v -5.5 4 3.5
v -4.5 3 3.5
v -4.5 4 3.5
v 3.5 3 3.5
v 3.5 4 3.5
v 4.5 3 3.5
v 4.5 4 3.5
v -5.5 4 2.5
v -5.5 5 2.5
v -4.5 1 2.5
v -4.5 4 2.5
v -4.5 5 2.5
v -4.5 6 2.5
v -2.5 1 2.5
v -2.5 2 2.5
v -2.5 4 2.5
v -2.5 5 2.5
v -2.5 6 2.5
v -1.5 1 2.5
v -1.5 2 2.5
v -1.5 4 2.5
v -1.5 5 2.5
v -1.5 6 2.5
v 0.5 1 2.5
v 0.5 2 2.5
v 0.5 4 2.5
v 0.5 5 2.5
v 0.5 6 2.5
v 1.5 1 2.5
v 1.5 2 2.5
v 1.5 4 2.5
v 1.5 5 2.5
v 1.5 6 2.5
v 3.5 1 2.5
v 3.5 4 2.5
v 3.5 5 2.5
v 3.5 6 2.5
v 4.5 4 2.5
v 4.5 5 2.5
v -4.5 1 -0.5
v -4.5 4 -0.5
v -4.5 5 -0.5
v -4.5 6 -0.5
v -2.5 1 -0.5
v -2.5 2 -0.5
v -2.5 4 -0.5
v -2.5 5 -0.5
v -2.5 6 -0.5
v -1.5 1 -0.5
v -1.5 2 -0.5
v -1.5 4 -0.5
v -1.5 5 -0.5
v -1.5 6 -0.5
v 0.5 1 -0.5
v 0.5 2 -0.5
v 0.5 4 -0.5
v 0.5 5 -0.5
v 0.5 6 -0.5
v 1.5 1 -0.5
v 1.5 2 -0.5
v 1.5 4 -0.5
v 1.5 5 -0.5
v 1.5 6 -0.5
v 3.5 1 -0.5
v 3.5 4 -0.5
v 3.5 5 -0.5
v 3.5 6 -0.5
v -2.5 2 -2.5
v -2.5 4 -2.5
v -2.5 5 -2.5
v -1.5 2 -2.5
v -1.5 4 -2.5
v -1.5 5 -2.5
v 0.5 2 -2.5
v 0.5 4 -2.5
v 0.5 5 -2.5
v 1.5 2 -2.5
v 1.5 4 -2.5
v 1.5 5 -2.5
v -4.5 1 3.5
v -4.5 4 3.5
v -4.5 5 3.5
v -4.5 6 3.5
v -2.5 1 3.5
v -2.5 2 3.5
v -2.5 4 3.5
v -2.5 5 3.5
v -2.5 6 3.5
v -1.5 1 3.5
v -1.5 2 3.5
v -1.5 4 3.5
v -1.5 5 3.5
v -1.5 6 3.5
v 0.5 1 3.5
v 0.5 2 3.5
v 0.5 4 3.5
v 0.5 5 3.5
v 0.5 6 3.5
v 1.5 1 3.5
v 1.5 2 3.5
v 1.5 4 3.5
v 1.5 5 3.5
v 1.5 6 3.5
v 3.5 1 3.5
v 3.5 4 3.5
v 3.5 5 3.5
v 3.5 6 3.5
v -4.5 1 0.5
v -4.5 4 0.5
v -4.5 5 0.5
v -4.5 6 0.5
v -2.5 1 0.5
v -2.5 2 0.5
v -2.5 4 0.5
v -2.5 5 0.5
v -2.5 6 0.5
v -1.5 1 0.5
v -1.5 2 0.5
v -1.5 4 0.5
v -1.5 5 0.5
v -1.5 6 0.5
v 0.5 1 0.5
v 0.5 2 0.5
v 0.5 4 0.5
v 0.5 5 0.5
v 0.5 6 0.5
v 1.5 1 0.5
v 1.5 2 0.5
v 1.5 4 0.5
v 1.5 5 0.5
v 1.5 6 0.5
v 3.5 1 0.5
v 3.5 4 0.5
v 3.5 5 0.5
v 3.5 6 0.5
v -4.5 5 -2.5
v -4.5 6 -2.5
v -2.5 5 -2.5
v -2.5 6 -2.5
v -1.5 5 -2.5
v -1.5 6 -2.5
v 0.5 5 -2.5
v 0.5 6 -2.5
v 1.5 5 -2.5
v 1.5 6 -2.5
v 3.5 5 -2.5
v 3.5 6 -2.5
v -5.5 0 -3.5
v -5.5 5 -3.5
v 4.5 0 -3.5
v 4.5 5 -3.5
v -5.5 0 5.5
v 4.5 0 5.5
v -5.5 0 -3.5
v 4.5 0 -3.5
v -4.5 1 3.5
v -2.5 1 3.5
v -1.5 1 3.5
v 0.5 1 3.5
v 1.5 1 3.5
v 3.5 1 3.5
v -4.5 1 2.5
v -2.5 1 2.5
v -1.5 1 2.5
v 0.5 1 2.5
v 1.5 1 2.5
v 3.5 1 2.5
v -4.5 1 0.5
v -2.5 1 0.5
v -1.5 1 0.5
v 0.5 1 0.5
v 1.5 1 0.5
v 3.5 1 0.5
v -4.5 1 -0.5
v -2.5 1 -0.5
v -1.5 1 -0.5
v 0.5 1 -0.5
v 1.5 1 -0.5
v 3.5 1 -0.5
v -5.5 2 5.5
v -4.5 2 5.5
v -2.5 2 5.5
v -1.5 2 5.5
v 0.5 2 5.5
v 1.5 2 5.5
v 3.5 2 5.5
v 4.5 2 5.5
v -5.5 2 4.5
v -4.5 2 4.5
v 3.5 2 4.5
v 4.5 2 4.5
v -2.5 2 3.5
v -1.5 2 3.5
v 0.5 2 3.5
v 1.5 2 3.5
v -2.5 2 2.5
v -1.5 2 2.5
v 0.5 2 2.5
v 1.5 2 2.5
v -2.5 2 0.5
v -1.5 2 0.5
v 0.5 2 0.5
v 1.5 2 0.5
v -2.5 2 -0.5
v -1.5 2 -0.5
v 0.5 2 -0.5
v 1.5 2 -0.5
v -2.5 2 -2.5
v -1.5 2 -2.5
v 0.5 2 -2.5
v 1.5 2 -2.5
v -5.5 3 4.5
v -4.5 3 4.5
v 3.5 3 4.5
v 4.5 3 4.5
v -5.5 3 3.5
v -4.5 3 3.5
v 3.5 3 3.5
v 4.5 3 3.5
v -5.5 4 3.5
v -4.5 4 3.5
v 3.5 4 3.5
v 4.5 4 3.5
v -5.5 4 2.5
v -4.5 4 2.5
v 3.5 4 2.5
v 4.5 4 2.5
v -5.5 5 2.5
v -4.5 5 2.5
v 3.5 5 2.5
v 4.5 5 2.5
v -4.5 5 0.5
v 3.5 5 0.5
v -4.5 5 -0.5
v 3.5 5 -0.5
v -4.5 5 -2.5
v -2.5 5 -2.5
v -1.5 5 -2.5
v 0.5 5 -2.5
v 1.5 5 -2.5
v 3.5 5 -2.5
v -5.5 5 -3.5
v 4.5 5 -3.5
v -4.5 6 5.5
v -2.5 6 5.5
v -1.5 6 5.5
v 0.5 6 5.5
v 1.5 6 5.5
v 3.5 6 5.5
v -4.5 6 3.5
v -2.5 6 3.5
v -1.5 6 3.5
v 0.5 6 3.5
v 1.5 6 3.5
v 3.5 6 3.5
v -4.5 6 2.5
v -2.5 6 2.5
v -1.5 6 2.5
v 0.5 6 2.5
v 1.5 6 2.5
v 3.5 6 2.5
v -4.5 6 0.5
v -2.5 6 0.5
v -1.5 6 0.5
v 0.5 6 0.5
v 1.5 6 0.5
v 3.5 6 0.5
v -4.5 6 -0.5
v -2.5 6 -0.5
v -1.5 6 -0.5
v 0.5 6 -0.5
v 1.5 6 -0.5
v 3.5 6 -0.5
v -4.5 6 -2.5
v -2.5 6 -2.5
v -1.5 6 -2.5
v 0.5 6 -2.5
v 1.5 6 -2.5
v 3.5 6 -2.5

# faces
f 3/1/1 2/1/1 1/1/1
f 4/1/1 2/1/1 3/1/1
f 5/1/1 2/1/1 4/1/1
f 6/1/1 2/1/1 5/1/1
f 7/1/1 2/1/1 6/1/1
f 8/1/1 2/1/1 7/1/1
f 9/1/1 2/1/1 8/1/1
f 10/1/1 2/1/1 9/1/1
f 13/3/1 12/3/1 11/3/1
f 15/3/1 13/3/1 11/3/1
f 15/3/1 14/3/1 13/3/1
f 16/3/1 14/3/1 15/3/1
f 17/5/1 16/5/1 15/5/1
f 18/5/1 16/5/1 17/5/1
f 23/3/1 18/3/1 17/3/1
f 24/3/1 18/3/1 23/3/1
f 25/3/1 20/3/1 19/3/1
f 26/3/1 20/3/1 25/3/1
f 27/3/1 22/3/1 21/3/1
f 28/3/1 22/3/1 27/3/1
f 33/1/1 30/1/1 29/1/1
f 34/1/1 30/1/1 33/1/1
f 35/1/1 32/1/1 31/1/1
f 36/1/1 32/1/1 35/1/1
f 43/2/1 38/2/1 37/2/1
f 44/2/1 38/2/1 43/2/1
f 45/2/1 40/2/1 39/2/1
f 46/2/1 40/2/1 45/2/1
f 47/2/1 42/2/1 41/2/1
f 48/2/1 42/2/1 47/2/1
f 49/5/1 44/5/1 43/5/1
f 50/5/1 44/5/1 49/5/1
f 51/5/1 46/5/1 45/5/1
f 52/5/1 46/5/1 51/5/1
f 53/5/1 48/5/1 47/5/1
f 54/5/1 48/5/1 53/5/1
f 55/2/1 50/2/1 49/2/1
f 56/2/1 50/2/1 55/2/1
f 57/2/1 52/2/1 51/2/1
f 58/2/1 52/2/1 57/2/1
f 59/2/1 54/2/1 53/2/1
f 60/2/1 54/2/1 59/2/1
f 65/1/1 62/1/1 61/1/1
f 66/1/1 62/1/1 65/1/1
f 67/1/1 64/1/1 63/1/1
f 68/1/1 64/1/1 67/1/1
f 75/4/1 70/4/1 69/4/1
f 76/4/1 70/4/1 75/4/1
f 77/4/1 72/4/1 71/4/1
f 78/4/1 72/4/1 77/4/1
f 79/4/1 74/4/1 73/4/1
f 80/4/1 74/4/1 79/4/1
f 81/5/1 76/5/1 75/5/1
f 82/5/1 76/5/1 81/5/1
f 83/5/1 78/5/1 77/5/1
f 84/5/1 78/5/1 83/5/1
f 85/5/1 80/5/1 79/5/1
f 86/5/1 80/5/1 85/5/1
f 87/4/1 82/4/1 81/4/1
f 88/4/1 82/4/1 87/4/1
f 89/4/1 84/4/1 83/4/1
f 90/4/1 84/4/1 89/4/1
f 91/4/1 86/4/1 85/4/1
f 92/4/1 86/4/1 91/4/1
f 97/1/1 94/1/1 93/1/1
f 98/1/1 94/1/1 97/1/1
f 99/1/1 96/1/1 95/1/1
f 100/1/1 96/1/1 99/1/1
f 101/1/1 100/1/1 99/1/1
f 102/1/1 100/1/1 101/1/1
f 103/1/2 104/1/2 107/1/2
f 107/1/2 104/1/2 108/1/2
f 105/1/2 106/1/2 109/1/2
f 109/1/2 106/1/2 110/1/2
f 109/1/2 110/1/2 111/1/2
f 111/1/2 110/1/2 112/1/2
f 113/3/2 114/3/2 119/3/2
f 119/3/2 114/3/2 120/3/2
f 115/3/2 116/3/2 121/3/2
f 121/3/2 116/3/2 122/3/2
f 117/3/2 118/3/2 123/3/2
f 123/3/2 118/3/2 124/3/2
f 119/5/2 120/5/2 125/5/2
f 125/5/2 120/5/2 126/5/2
f 121/5/2 122/5/2 127/5/2
f 127/5/2 122/5/2 128/5/2
f 123/5/2 124/5/2 129/5/2
f 129/5/2 124/5/2 130/5/2
f 125/3/2 126/3/2 131/3/2
f 131/3/2 126/3/2 132/3/2
f 127/3/2 128/3/2 133/3/2
f 133/3/2 128/3/2 134/3/2
f 129/3/2 130/3/2 135/3/2
f 135/3/2 130/3/2 136/3/2
f 137/1/2 138/1/2 141/1/2
f 141/1/2 138/1/2 142/1/2
f 139/1/2 140/1/2 143/1/2
f 143/1/2 140/1/2 144/1/2
f 145/2/2 146/2/2 151/2/2
f 151/2/2 146/2/2 152/2/2
f 147/2/2 148/2/2 153/2/2
f 153/2/2 148/2/2 154/2/2
f 149/2/2 150/2/2 155/2/2
f 155/2/2 150/2/2 156/2/2
f 151/5/2 152/5/2 157/5/2
f 157/5/2 152/5/2 158/5/2
f 153/5/2 154/5/2 159/5/2
f 159/5/2 154/5/2 160/5/2
f 155/5/2 156/5/2 161/5/2
f 161/5/2 156/5/2 162/5/2
f 157/2/2 158/2/2 163/2/2
f 163/2/2 158/2/2 164/2/2
f 159/2/2 160/2/2 165/2/2
f 165/2/2 160/2/2 166/2/2
f 161/2/2 162/2/2 167/2/2
f 167/2/2 162/2/2 168/2/2
f 169/1/2 170/1/2 173/1/2
f 173/1/2 170/1/2 174/1/2
f 171/1/2 172/1/2 175/1/2
f 175/1/2 172/1/2 176/1/2
f 177/4/2 178/4/2 179/4/2
f 177/4/2 179/4/2 181/4/2
f 179/4/2 180/4/2 181/4/2
f 181/4/2 180/4/2 182/4/2
f 181/5/2 182/5/2 183/5/2
f 183/5/2 182/5/2 184/5/2
f 183/4/2 184/4/2 189/4/2
f 189/4/2 184/4/2 190/4/2
f 185/4/2 186/4/2 191/4/2
f 191/4/2 186/4/2 192/4/2
f 187/4/2 188/4/2 193/4/2
f 193/4/2 188/4/2 194/4/2
f 195/1/2 196/1/2 197/1/2
f 197/1/2 196/1/2 198/1/2
f 198/1/2 196/1/2 199/1/2
f 199/1/2 196/1/2 200/1/2
f 200/1/2 196/1/2 201/1/2
f 201/1/2 196/1/2 202/1/2
f 202/1/2 196/1/2 203/1/2
f 203/1/2 196/1/2 204/1/2
f 207/1/3 206/1/3 205/1/3
f 208/1/3 206/1/3 207/1/3
f 212/1/3 207/1/3 205/1/3
f 212/3/3 208/3/3 207/3/3
f 212/3/3 209/3/3 208/3/3
f 213/3/3 209/3/3 212/3/3
f 214/5/3 210/5/3 209/5/3
f 214/3/3 209/3/3 213/3/3
f 215/3/3 211/3/3 210/3/3
f 215/5/3 210/5/3 214/5/3
f 216/3/3 211/3/3 215/3/3
f 217/1/3 213/1/3 212/1/3
f 217/1/3 212/1/3 205/1/3
f 218/1/3 213/1/3 217/1/3
f 222/1/3 217/1/3 205/1/3
f 222/2/3 218/2/3 217/2/3
f 222/2/3 219/2/3 218/2/3
f 223/2/3 219/2/3 222/2/3
f 224/5/3 220/5/3 219/5/3
f 224/2/3 219/2/3 223/2/3
f 225/2/3 221/2/3 220/2/3
f 225/5/3 220/5/3 224/5/3
f 226/2/3 221/2/3 225/2/3
f 227/1/3 223/1/3 222/1/3
f 227/1/3 222/1/3 205/1/3
f 228/1/3 223/1/3 227/1/3
f 232/1/3 227/1/3 205/1/3
f 232/4/3 228/4/3 227/4/3
f 232/4/3 229/4/3 228/4/3
f 233/4/3 229/4/3 232/4/3
f 234/5/3 230/5/3 229/5/3
f 234/4/3 229/4/3 233/4/3
f 235/4/3 231/4/3 230/4/3
f 235/5/3 230/5/3 234/5/3
f 236/4/3 231/4/3 235/4/3
f 237/1/3 233/1/3 232/1/3
f 237/1/3 232/1/3 205/1/3
f 238/1/3 233/1/3 237/1/3
f 241/1/3 240/1/3 239/1/3
f 242/1/3 240/1/3 241/1/3
f 245/1/3 244/1/3 243/1/3
f 246/1/3 244/1/3 245/1/3
f 249/1/3 248/1/3 247/1/3
f 250/1/3 248/1/3 249/1/3
f 253/1/3 252/1/3 251/1/3
f 254/1/3 252/1/3 253/1/3
f 258/1/3 256/1/3 255/1/3
f 259/1/3 256/1/3 258/1/3
f 261/3/3 258/3/3 257/3/3
f 262/3/3 258/3/3 261/3/3
f 263/5/3 259/5/3 258/5/3
f 263/3/3 258/3/3 262/3/3
f 264/3/3 260/3/3 259/3/3
f 264/5/3 259/5/3 263/5/3
f 265/3/3 260/3/3 264/3/3
f 271/2/3 267/2/3 266/2/3
f 271/2/3 268/2/3 267/2/3
f 272/2/3 268/2/3 271/2/3
f 273/5/3 269/5/3 268/5/3
f 273/2/3 268/2/3 272/2/3
f 274/2/3 270/2/3 269/2/3
f 274/5/3 269/5/3 273/5/3
f 275/2/3 270/2/3 274/2/3
f 281/4/3 277/4/3 276/4/3
f 281/4/3 278/4/3 277/4/3
f 282/5/3 279/5/3 278/5/3
f 282/4/3 278/4/3 281/4/3
f 283/4/3 280/4/3 279/4/3
f 283/5/3 279/5/3 282/5/3
f 284/4/3 280/4/3 283/4/3
f 285/1/3 283/1/3 282/1/3
f 286/1/3 283/1/3 285/1/3
f 291/3/3 288/3/3 287/3/3
f 292/3/3 288/3/3 291/3/3
f 293/5/3 289/5/3 288/5/3
f 293/3/3 288/3/3 292/3/3
f 294/3/3 290/3/3 289/3/3
f 294/5/3 289/5/3 293/5/3
f 295/3/3 290/3/3 294/3/3
f 301/2/3 297/2/3 296/2/3
f 301/2/3 298/2/3 297/2/3
f 302/2/3 298/2/3 301/2/3
f 303/5/3 299/5/3 298/5/3
f 303/2/3 298/2/3 302/2/3
f 304/2/3 300/2/3 299/2/3
f 304/5/3 299/5/3 303/5/3
f 305/2/3 300/2/3 304/2/3
f 311/4/3 307/4/3 306/4/3
f 311/4/3 308/4/3 307/4/3
f 312/5/3 309/5/3 308/5/3
f 312/4/3 308/4/3 311/4/3
f 313/4/3 310/4/3 309/4/3
f 313/5/3 309/5/3 312/5/3
f 314/4/3 310/4/3 313/4/3
f 318/1/3 316/1/3 315/1/3
f 318/1/3 317/1/3 316/1/3
f 319/1/3 317/1/3 318/1/3
f 320/1/3 317/1/3 319/1/3
f 324/1/3 322/1/3 321/1/3
f 324/1/3 323/1/3 322/1/3
f 325/1/3 323/1/3 324/1/3
f 326/1/3 323/1/3 325/1/3
f 327/3/4 328/3/4 331/3/4
f 331/3/4 328/3/4 332/3/4
f 328/5/4 329/5/4 333/5/4
f 332/3/4 328/3/4 333/3/4
f 329/3/4 330/3/4 334/3/4
f 333/5/4 329/5/4 334/5/4
f 334/3/4 330/3/4 335/3/4
f 336/2/4 337/2/4 341/2/4
f 337/2/4 338/2/4 341/2/4
f 341/2/4 338/2/4 342/2/4
f 338/5/4 339/5/4 343/5/4
f 342/2/4 338/2/4 343/2/4
f 339/2/4 340/2/4 344/2/4
f 343/5/4 339/5/4 344/5/4
f 344/2/4 340/2/4 345/2/4
f 346/4/4 347/4/4 351/4/4
f 347/4/4 348/4/4 351/4/4
f 348/5/4 349/5/4 352/5/4
f 351/4/4 348/4/4 352/4/4
f 349/4/4 350/4/4 353/4/4
f 352/5/4 349/5/4 353/5/4
f 353/4/4 350/4/4 354/4/4
f 355/3/4 356/3/4 359/3/4
f 359/3/4 356/3/4 360/3/4
f 356/5/4 357/5/4 361/5/4
f 360/3/4 356/3/4 361/3/4
f 357/3/4 358/3/4 362/3/4
f 361/5/4 357/5/4 362/5/4
f 362/3/4 358/3/4 363/3/4
f 364/2/4 365/2/4 369/2/4
f 365/2/4 366/2/4 369/2/4
f 369/2/4 366/2/4 370/2/4
f 366/5/4 367/5/4 371/5/4
f 370/2/4 366/2/4 371/2/4
f 367/2/4 368/2/4 372/2/4
f 371/5/4 367/5/4 372/5/4
f 372/2/4 368/2/4 373/2/4
f 374/4/4 375/4/4 379/4/4
f 375/4/4 376/4/4 379/4/4
f 376/5/4 377/5/4 380/5/4
f 379/4/4 376/4/4 380/4/4
f 377/4/4 378/4/4 381/4/4
f 380/5/4 377/5/4 381/5/4
f 381/4/4 378/4/4 382/4/4
f 383/3/4 384/3/4 385/3/4
f 385/3/4 384/3/4 386/3/4
f 387/2/4 388/2/4 389/2/4
f 389/2/4 388/2/4 390/2/4
f 391/4/4 392/4/4 393/4/4
f 393/4/4 392/4/4 394/4/4
f 395/1/4 396/1/4 397/1/4
f 397/1/4 396/1/4 398/1/4
f 401/1/5 400/1/5 399/1/5
f 402/1/5 400/1/5 401/1/5
f 403/1/6 404/1/6 409/1/6
f 409/1/6 404/1/6 410/1/6
f 405/1/6 406/1/6 411/1/6
f 411/1/6 406/1/6 412/1/6
f 407/1/6 408/1/6 413/1/6
f 413/1/6 408/1/6 414/1/6
f 415/1/6 416/1/6 421/1/6
f 421/1/6 416/1/6 422/1/6
f 417/1/6 418/1/6 423/1/6
f 423/1/6 418/1/6 424/1/6
f 419/1/6 420/1/6 425/1/6
f 425/1/6 420/1/6 426/1/6
f 427/1/6 428/1/6 435/1/6
f 435/1/6 428/1/6 436/1/6
f 433/1/6 434/1/6 437/1/6
f 437/1/6 434/1/6 438/1/6
f 429/1/6 430/1/6 439/1/6
f 439/1/6 430/1/6 440/1/6
f 431/1/6 432/1/6 441/1/6
f 441/1/6 432/1/6 442/1/6
f 439/1/6 440/1/6 443/1/6
f 443/1/6 440/1/6 444/1/6
f 441/1/6 442/1/6 445/1/6
f 445/1/6 442/1/6 446/1/6
f 443/1/6 444/1/6 447/1/6
f 447/1/6 444/1/6 448/1/6
f 445/1/6 446/1/6 449/1/6
f 449/1/6 446/1/6 450/1/6
f 447/1/6 448/1/6 451/1/6
f 451/1/6 448/1/6 452/1/6
f 449/1/6 450/1/6 453/1/6
f 453/1/6 450/1/6 454/1/6
f 451/1/6 452/1/6 455/1/6
f 455/1/6 452/1/6 456/1/6
f 453/1/6 454/1/6 457/1/6
f 457/1/6 454/1/6 458/1/6
f 459/1/6 460/1/6 463/1/6
f 463/1/6 460/1/6 464/1/6
f 461/1/6 462/1/6 465/1/6
f 465/1/6 462/1/6 466/1/6
f 467/1/6 468/1/6 471/1/6
f 471/1/6 468/1/6 472/1/6
f 469/1/6 470/1/6 473/1/6
f 473/1/6 470/1/6 474/1/6
f 475/1/6 476/1/6 479/1/6
f 477/1/6 478/1/6 480/1/6
f 475/1/6 479/1/6 481/1/6
f 480/1/6 478/1/6 482/1/6
f 475/1/6 481/1/6 483/1/6
f 482/1/6 478/1/6 488/1/6
f 486/1/6 487/1/6 489/1/6
f 487/1/6 488/1/6 489/1/6
f 475/1/6 483/1/6 489/1/6
f 483/1/6 484/1/6 489/1/6
f 485/1/6 486/1/6 489/1/6
f 484/1/6 485/1/6 489/1/6
f 488/1/6 478/1/6 490/1/6
f 489/1/6 488/1/6 490/1/6
f 491/3/6 492/3/6 497/3/6
f 497/3/6 492/3/6 498/3/6
f 493/2/6 494/2/6 499/2/6
f 499/2/6 494/2/6 500/2/6
f 495/4/6 496/4/6 501/4/6
f 501/4/6 496/4/6 502/4/6
f 503/3/6 504/3/6 509/3/6
f 509/3/6 504/3/6 510/3/6
f 505/2/6 506/2/6 511/2/6
f 511/2/6 506/2/6 512/2/6
f 507/4/6 508/4/6 513/4/6
f 513/4/6 508/4/6 514/4/6
f 515/3/6 516/3/6 521/3/6
f 521/3/6 516/3/6 522/3/6
f 517/2/6 518/2/6 523/2/6
f 523/2/6 518/2/6 524/2/6
f 519/4/6 520/4/6 525/4/6
f 525/4/6 520/4/6 526/4/6
