# MagicaVoxel @ Ephtracy

# group
g polka kosmetyki1

# material
mtllib polka kosmetyki1.mtl
usemtl palette

# normals
vn -1 0 0
vn 1 0 0
vn 0 0 1
vn 0 0 -1
vn 0 -1 0
vn 0 1 0

# texcoords
vt 0.0605469 0.5
vt 0.251953 0.5
vt 0.279297 0.5
vt 0.337891 0.5

# verts
v -23 0 3
v -23 0 -17
v -23 8 3
v -23 8 2
v -23 9 2
v -23 9 1
v -23 12 1
v -23 12 -0
v -23 16 -0
v -23 16 -1
v -23 34 -1
v -23 34 -2
v -23 50 -2
v -23 50 -3
v -23 53 -3
v -23 53 -4
v -23 56 -4
v -23 56 -5
v -23 58 -5
v -23 58 -7
v -23 59 -7
v -23 59 -9
v -23 60 -9
v -23 60 -17
v -21 2 4
v -21 2 3
v -21 6 4
v -21 6 3
v -15 3 5
v -15 3 4
v -15 5 5
v -15 5 4
v -8 4 5
v -8 4 4
v -8 5 5
v -8 5 4
v -8 22 -3
v -8 22 -14
v -8 31 -3
v -8 31 -14
v -8 37 -4
v -8 37 -14
v -8 40 -4
v -8 40 -12
v -8 41 -4
v -8 41 -12
v -8 49 -4
v -8 49 -14
v 1 2 4
v 1 2 3
v 1 6 4
v 1 6 3
v 7 3 5
v 7 3 4
v 7 5 5
v 7 5 4
v 7 22 -3
v 7 22 -14
v 7 31 -3
v 7 31 -14
v 8 40 -3
v 8 40 -4
v 8 41 -3
v 8 41 -4
v 14 4 5
v 14 4 4
v 14 5 5
v 14 5 4
v 21 8 2
v 21 8 -14
v 21 9 2
v 21 9 1
v 21 12 1
v 21 12 -0
v 21 14 -1
v 21 14 -14
v 21 15 -1
v 21 15 -14
v 21 16 -0
v 21 16 -1
v 21 21 -3
v 21 21 -14
v 21 22 -3
v 21 22 -14
v 21 31 -3
v 21 31 -14
v 21 32 -3
v 21 32 -14
v 21 34 -1
v 21 34 -2
v 21 40 -3
v 21 40 -12
v 21 41 -3
v 21 41 -12
v 21 49 -2
v 21 49 -14
v -21 8 2
v -21 8 -14
v -21 9 2
v -21 9 1
v -21 12 1
v -21 12 -0
v -21 14 -1
v -21 14 -14
v -21 15 -1
v -21 15 -14
v -21 16 -0
v -21 16 -1
v -21 21 -3
v -21 21 -14
v -21 22 -3
v -21 22 -14
v -21 31 -3
v -21 31 -14
v -21 32 -3
v -21 32 -14
v -21 34 -1
v -21 34 -2
v -21 40 -3
v -21 40 -12
v -21 41 -3
v -21 41 -12
v -21 49 -2
v -21 49 -14
v -14 4 5
v -14 4 4
v -14 5 5
v -14 5 4
v -8 40 -3
v -8 40 -4
v -8 41 -3
v -8 41 -4
v -7 3 5
v -7 3 4
v -7 5 5
v -7 5 4
v -7 22 -3
v -7 22 -14
v -7 31 -3
v -7 31 -14
v -1 2 4
v -1 2 3
v -1 6 4
v -1 6 3
v 8 4 5
v 8 4 4
v 8 5 5
v 8 5 4
v 8 22 -3
v 8 22 -14
v 8 31 -3
v 8 31 -14
v 8 37 -4
v 8 37 -14
v 8 40 -4
v 8 40 -12
v 8 41 -4
v 8 41 -12
v 8 49 -4
v 8 49 -14
v 15 3 5
v 15 3 4
v 15 5 5
v 15 5 4
v 21 2 4
v 21 2 3
v 21 6 4
v 21 6 3
v 23 0 3
v 23 0 -17
v 23 8 3
v 23 8 2
v 23 9 2
v 23 9 1
v 23 12 1
v 23 12 -0
v 23 16 -0
v 23 16 -1
v 23 34 -1
v 23 34 -2
v 23 50 -2
v 23 50 -3
v 23 53 -3
v 23 53 -4
v 23 56 -4
v 23 56 -5
v 23 58 -5
v 23 58 -7
v 23 59 -7
v 23 59 -9
v 23 60 -9
v 23 60 -17
v -15 3 5
v -15 5 5
v -14 4 5
v -14 5 5
v -8 4 5
v -8 5 5
v -7 3 5
v -7 5 5
v 7 3 5
v 7 5 5
v 8 4 5
v 8 5 5
v 14 4 5
v 14 5 5
v 15 3 5
v 15 5 5
v -21 2 4
v -21 6 4
v -15 3 4
v -15 5 4
v -14 4 4
v -14 5 4
v -8 4 4
v -8 5 4
v -7 3 4
v -7 5 4
v -1 2 4
v -1 6 4
v 1 2 4
v 1 6 4
v 7 3 4
v 7 5 4
v 8 4 4
v 8 5 4
v 14 4 4
v 14 5 4
v 15 3 4
v 15 5 4
v 21 2 4
v 21 6 4
v -23 0 3
v -23 8 3
v -21 2 3
v -21 6 3
v -1 2 3
v -1 6 3
v 1 2 3
v 1 6 3
v 21 2 3
v 21 6 3
v 23 0 3
v 23 8 3
v -23 8 2
v -23 9 2
v -21 8 2
v -21 9 2
v 21 8 2
v 21 9 2
v 23 8 2
v 23 9 2
v -23 9 1
v -23 12 1
v -21 9 1
v -21 12 1
v 21 9 1
v 21 12 1
v 23 9 1
v 23 12 1
v -23 12 -0
v -23 16 -0
v -21 12 -0
v -21 16 -0
v 21 12 -0
v 21 16 -0
v 23 12 -0
v 23 16 -0
v -23 16 -1
v -23 34 -1
v -21 14 -1
v -21 15 -1
v -21 16 -1
v -21 34 -1
v 21 14 -1
v 21 15 -1
v 21 16 -1
v 21 34 -1
v 23 16 -1
v 23 34 -1
v -23 34 -2
v -23 50 -2
v -21 34 -2
v -21 49 -2
v 21 34 -2
v 21 49 -2
v 23 34 -2
v 23 50 -2
v -23 50 -3
v -23 53 -3
v -21 21 -3
v -21 22 -3
v -21 31 -3
v -21 32 -3
v -21 40 -3
v -21 41 -3
v -21 51 -3
v -21 52 -3
v -21 53 -3
v -9 52 -3
v -9 53 -3
v -8 22 -3
v -8 31 -3
v -8 40 -3
v -8 41 -3
v -7 22 -3
v -7 31 -3
v 7 22 -3
v 7 31 -3
v 8 22 -3
v 8 31 -3
v 8 40 -3
v 8 41 -3
v 9 52 -3
v 9 53 -3
v 21 21 -3
v 21 22 -3
v 21 31 -3
v 21 32 -3
v 21 40 -3
v 21 41 -3
v 21 51 -3
v 21 52 -3
v 21 53 -3
v 23 50 -3
v 23 53 -3
v -23 53 -4
v -23 56 -4
v -21 53 -4
v -21 54 -4
v -21 55 -4
v -21 56 -4
v -9 53 -4
v -8 37 -4
v -8 40 -4
v -8 41 -4
v -8 49 -4
v -7 38 -4
v -7 48 -4
v -6 39 -4
v -6 40 -4
v -6 41 -4
v -6 43 -4
v -6 44 -4
v -6 46 -4
v -6 47 -4
v -5 39 -4
v -5 40 -4
v -5 41 -4
v -5 42 -4
v -5 43 -4
v -5 44 -4
v -5 45 -4
v -5 46 -4
v -5 47 -4
v -5 55 -4
v -5 56 -4
v -4 39 -4
v -4 40 -4
v -4 41 -4
v -4 42 -4
v -4 45 -4
v -4 46 -4
v -3 40 -4
v -3 41 -4
v -3 42 -4
v -3 43 -4
v -3 45 -4
v -3 46 -4
v -3 47 -4
v -2 40 -4
v -2 41 -4
v -2 42 -4
v -2 43 -4
v -2 45 -4
v -2 46 -4
v -2 47 -4
v -1 39 -4
v -1 40 -4
v -1 41 -4
v -1 42 -4
v -1 43 -4
v -1 44 -4
v -1 46 -4
v -1 47 -4
v 1 39 -4
v 1 40 -4
v 1 41 -4
v 1 42 -4
v 1 43 -4
v 1 44 -4
v 1 46 -4
v 1 47 -4
v 2 40 -4
v 2 41 -4
v 2 42 -4
v 2 43 -4
v 2 45 -4
v 2 46 -4
v 2 47 -4
v 3 40 -4
v 3 41 -4
v 3 42 -4
v 3 43 -4
v 3 45 -4
v 3 46 -4
v 3 47 -4
v 4 39 -4
v 4 40 -4
v 4 41 -4
v 4 42 -4
v 4 45 -4
v 4 46 -4
v 5 39 -4
v 5 40 -4
v 5 41 -4
v 5 42 -4
v 5 43 -4
v 5 44 -4
v 5 45 -4
v 5 46 -4
v 5 47 -4
v 5 55 -4
v 5 56 -4
v 6 39 -4
v 6 40 -4
v 6 41 -4
v 6 43 -4
v 6 44 -4
v 6 46 -4
v 6 47 -4
v 7 38 -4
v 7 48 -4
v 8 37 -4
v 8 40 -4
v 8 41 -4
v 8 49 -4
v 9 53 -4
v 21 53 -4
v 21 54 -4
v 21 55 -4
v 21 56 -4
v 23 53 -4
v 23 56 -4
v -23 56 -5
v -23 58 -5
v -21 56 -5
v -5 56 -5
v 5 56 -5
v 21 56 -5
v 23 56 -5
v 23 58 -5
v -23 58 -7
v -23 59 -7
v 23 58 -7
v 23 59 -7
v -23 59 -9
v -23 60 -9
v 23 59 -9
v 23 60 -9
v -21 8 -14
v -21 14 -14
v -21 15 -14
v -21 21 -14
v -21 22 -14
v -21 31 -14
v -21 32 -14
v -21 49 -14
v -8 22 -14
v -8 31 -14
v -8 37 -14
v -8 49 -14
v -7 22 -14
v -7 31 -14
v 7 22 -14
v 7 31 -14
v 8 22 -14
v 8 31 -14
v 8 37 -14
v 8 49 -14
v 21 8 -14
v 21 14 -14
v 21 15 -14
v 21 21 -14
v 21 22 -14
v 21 31 -14
v 21 32 -14
v 21 49 -14
v -21 40 -12
v -21 41 -12
v -8 40 -12
v -8 41 -12
v 8 40 -12
v 8 41 -12
v 21 40 -12
v 21 41 -12
v -23 0 -17
v -23 60 -17
v 23 0 -17
v 23 60 -17
v -23 0 3
v 23 0 3
v -23 0 -17
v 23 0 -17
v -21 2 4
v -1 2 4
v 1 2 4
v 21 2 4
v -21 2 3
v -1 2 3
v 1 2 3
v 21 2 3
v -15 3 5
v -7 3 5
v 7 3 5
v 15 3 5
v -15 3 4
v -7 3 4
v 7 3 4
v 15 3 4
v -21 14 -1
v 21 14 -1
v -21 14 -14
v 21 14 -14
v -21 21 -3
v 21 21 -3
v -21 21 -14
v 21 21 -14
v -21 31 -3
v -8 31 -3
v -7 31 -3
v 7 31 -3
v 8 31 -3
v 21 31 -3
v -21 31 -14
v -8 31 -14
v -7 31 -14
v 7 31 -14
v 8 31 -14
v 21 31 -14
v -8 37 -4
v 8 37 -4
v -8 37 -14
v 8 37 -14
v -21 40 -3
v -8 40 -3
v 8 40 -3
v 21 40 -3
v -8 40 -4
v 8 40 -4
v -21 40 -12
v -8 40 -12
v 8 40 -12
v 21 40 -12
v -21 49 -2
v 21 49 -2
v -8 49 -4
v 8 49 -4
v -21 49 -14
v -8 49 -14
v 8 49 -14
v 21 49 -14
v -14 4 5
v -8 4 5
v 8 4 5
v 14 4 5
v -14 4 4
v -8 4 4
v 8 4 4
v 14 4 4
v -15 5 5
v -14 5 5
v -8 5 5
v -7 5 5
v 7 5 5
v 8 5 5
v 14 5 5
v 15 5 5
v -15 5 4
v -14 5 4
v -8 5 4
v -7 5 4
v 7 5 4
v 8 5 4
v 14 5 4
v 15 5 4
v -21 6 4
v -1 6 4
v 1 6 4
v 21 6 4
v -21 6 3
v -1 6 3
v 1 6 3
v 21 6 3
v -23 8 3
v 23 8 3
v -23 8 2
v -21 8 2
v 21 8 2
v 23 8 2
v -21 8 -14
v 21 8 -14
v -23 9 2
v -21 9 2
v 21 9 2
v 23 9 2
v -23 9 1
v -21 9 1
v 21 9 1
v 23 9 1
v -23 12 1
v -21 12 1
v 21 12 1
v 23 12 1
v -23 12 -0
v -21 12 -0
v 21 12 -0
v 23 12 -0
v -21 15 -1
v 21 15 -1
v -21 15 -14
v 21 15 -14
v -23 16 -0
v -21 16 -0
v 21 16 -0
v 23 16 -0
v -23 16 -1
v -21 16 -1
v 21 16 -1
v 23 16 -1
v -21 22 -3
v -8 22 -3
v -7 22 -3
v 7 22 -3
v 8 22 -3
v 21 22 -3
v -21 22 -14
v -8 22 -14
v -7 22 -14
v 7 22 -14
v 8 22 -14
v 21 22 -14
v -21 32 -3
v 21 32 -3
v -21 32 -14
v 21 32 -14
v -23 34 -1
v -21 34 -1
v 21 34 -1
v 23 34 -1
v -23 34 -2
v -21 34 -2
v 21 34 -2
v 23 34 -2
v -21 41 -3
v -8 41 -3
v 8 41 -3
v 21 41 -3
v -8 41 -4
v 8 41 -4
v -21 41 -12
v -8 41 -12
v 8 41 -12
v 21 41 -12
v -23 50 -2
v 23 50 -2
v -23 50 -3
v 23 50 -3
v -23 53 -3
v -21 53 -3
v -9 53 -3
v 9 53 -3
v 21 53 -3
v 23 53 -3
v -23 53 -4
v -21 53 -4
v -9 53 -4
v 9 53 -4
v 21 53 -4
v 23 53 -4
v -23 56 -4
v -21 56 -4
v -5 56 -4
v 5 56 -4
v 21 56 -4
v 23 56 -4
v -23 56 -5
v -21 56 -5
v -5 56 -5
v 5 56 -5
v 21 56 -5
v 23 56 -5
v -23 58 -5
v 23 58 -5
v -23 58 -7
v 23 58 -7
v -23 59 -7
v 23 59 -7
v -23 59 -9
v 23 59 -9
v -23 60 -9
v 23 60 -9
v -23 60 -17
v 23 60 -17

# faces
f 3/4/1 2/4/1 1/4/1
f 4/4/1 2/4/1 3/4/1
f 5/4/1 2/4/1 4/4/1
f 6/4/1 2/4/1 5/4/1
f 7/4/1 2/4/1 6/4/1
f 8/4/1 2/4/1 7/4/1
f 9/4/1 2/4/1 8/4/1
f 10/4/1 2/4/1 9/4/1
f 11/4/1 2/4/1 10/4/1
f 12/4/1 2/4/1 11/4/1
f 13/4/1 2/4/1 12/4/1
f 14/4/1 2/4/1 13/4/1
f 15/4/1 2/4/1 14/4/1
f 16/4/1 2/4/1 15/4/1
f 17/4/1 2/4/1 16/4/1
f 18/4/1 2/4/1 17/4/1
f 19/4/1 2/4/1 18/4/1
f 20/4/1 2/4/1 19/4/1
f 21/4/1 2/4/1 20/4/1
f 22/4/1 2/4/1 21/4/1
f 23/4/1 2/4/1 22/4/1
f 24/4/1 2/4/1 23/4/1
f 27/1/1 26/1/1 25/1/1
f 28/1/1 26/1/1 27/1/1
f 31/2/1 30/2/1 29/2/1
f 32/2/1 30/2/1 31/2/1
f 35/2/1 34/2/1 33/2/1
f 36/2/1 34/2/1 35/2/1
f 39/4/1 38/4/1 37/4/1
f 40/4/1 38/4/1 39/4/1
f 43/4/1 42/4/1 41/4/1
f 44/4/1 42/4/1 43/4/1
f 46/4/1 42/4/1 44/4/1
f 47/4/1 46/4/1 45/4/1
f 48/4/1 42/4/1 46/4/1
f 48/4/1 46/4/1 47/4/1
f 51/1/1 50/1/1 49/1/1
f 52/1/1 50/1/1 51/1/1
f 55/2/1 54/2/1 53/2/1
f 56/2/1 54/2/1 55/2/1
f 59/4/1 58/4/1 57/4/1
f 60/4/1 58/4/1 59/4/1
f 63/4/1 62/4/1 61/4/1
f 64/4/1 62/4/1 63/4/1
f 67/2/1 66/2/1 65/2/1
f 68/2/1 66/2/1 67/2/1
f 71/4/1 70/4/1 69/4/1
f 72/4/1 70/4/1 71/4/1
f 73/4/1 70/4/1 72/4/1
f 74/4/1 70/4/1 73/4/1
f 75/4/1 70/4/1 74/4/1
f 76/4/1 70/4/1 75/4/1
f 77/4/1 75/4/1 74/4/1
f 79/4/1 77/4/1 74/4/1
f 79/4/1 78/4/1 77/4/1
f 80/4/1 78/4/1 79/4/1
f 81/4/1 78/4/1 80/4/1
f 82/4/1 78/4/1 81/4/1
f 83/4/1 81/4/1 80/4/1
f 85/4/1 83/4/1 80/4/1
f 85/4/1 84/4/1 83/4/1
f 86/4/1 84/4/1 85/4/1
f 87/4/1 85/4/1 80/4/1
f 89/4/1 87/4/1 80/4/1
f 89/4/1 88/4/1 87/4/1
f 90/4/1 88/4/1 89/4/1
f 91/4/1 88/4/1 90/4/1
f 92/4/1 88/4/1 91/4/1
f 93/4/1 91/4/1 90/4/1
f 94/4/1 88/4/1 92/4/1
f 95/4/1 93/4/1 90/4/1
f 95/4/1 94/4/1 93/4/1
f 96/4/1 88/4/1 94/4/1
f 96/4/1 94/4/1 95/4/1
f 97/4/2 98/4/2 99/4/2
f 99/4/2 98/4/2 100/4/2
f 100/4/2 98/4/2 101/4/2
f 101/4/2 98/4/2 102/4/2
f 102/4/2 98/4/2 103/4/2
f 103/4/2 98/4/2 104/4/2
f 102/4/2 103/4/2 105/4/2
f 102/4/2 105/4/2 107/4/2
f 105/4/2 106/4/2 107/4/2
f 107/4/2 106/4/2 108/4/2
f 108/4/2 106/4/2 109/4/2
f 109/4/2 106/4/2 110/4/2
f 108/4/2 109/4/2 111/4/2
f 108/4/2 111/4/2 113/4/2
f 111/4/2 112/4/2 113/4/2
f 113/4/2 112/4/2 114/4/2
f 108/4/2 113/4/2 115/4/2
f 108/4/2 115/4/2 117/4/2
f 115/4/2 116/4/2 117/4/2
f 117/4/2 116/4/2 118/4/2
f 118/4/2 116/4/2 119/4/2
f 119/4/2 116/4/2 120/4/2
f 118/4/2 119/4/2 121/4/2
f 120/4/2 116/4/2 122/4/2
f 118/4/2 121/4/2 123/4/2
f 121/4/2 122/4/2 123/4/2
f 122/4/2 116/4/2 124/4/2
f 123/4/2 122/4/2 124/4/2
f 125/2/2 126/2/2 127/2/2
f 127/2/2 126/2/2 128/2/2
f 129/4/2 130/4/2 131/4/2
f 131/4/2 130/4/2 132/4/2
f 133/2/2 134/2/2 135/2/2
f 135/2/2 134/2/2 136/2/2
f 137/4/2 138/4/2 139/4/2
f 139/4/2 138/4/2 140/4/2
f 141/1/2 142/1/2 143/1/2
f 143/1/2 142/1/2 144/1/2
f 145/2/2 146/2/2 147/2/2
f 147/2/2 146/2/2 148/2/2
f 149/4/2 150/4/2 151/4/2
f 151/4/2 150/4/2 152/4/2
f 153/4/2 154/4/2 155/4/2
f 155/4/2 154/4/2 156/4/2
f 156/4/2 154/4/2 158/4/2
f 157/4/2 158/4/2 159/4/2
f 158/4/2 154/4/2 160/4/2
f 159/4/2 158/4/2 160/4/2
f 161/2/2 162/2/2 163/2/2
f 163/2/2 162/2/2 164/2/2
f 165/1/2 166/1/2 167/1/2
f 167/1/2 166/1/2 168/1/2
f 169/4/2 170/4/2 171/4/2
f 171/4/2 170/4/2 172/4/2
f 172/4/2 170/4/2 173/4/2
f 173/4/2 170/4/2 174/4/2
f 174/4/2 170/4/2 175/4/2
f 175/4/2 170/4/2 176/4/2
f 176/4/2 170/4/2 177/4/2
f 177/4/2 170/4/2 178/4/2
f 178/4/2 170/4/2 179/4/2
f 179/4/2 170/4/2 180/4/2
f 180/4/2 170/4/2 181/4/2
f 181/4/2 170/4/2 182/4/2
f 182/4/2 170/4/2 183/4/2
f 183/4/2 170/4/2 184/4/2
f 184/4/2 170/4/2 185/4/2
f 185/4/2 170/4/2 186/4/2
f 186/4/2 170/4/2 187/4/2
f 187/4/2 170/4/2 188/4/2
f 188/4/2 170/4/2 189/4/2
f 189/4/2 170/4/2 190/4/2
f 190/4/2 170/4/2 191/4/2
f 191/4/2 170/4/2 192/4/2
f 195/2/3 194/2/3 193/2/3
f 196/2/3 194/2/3 195/2/3
f 197/2/3 195/2/3 193/2/3
f 199/2/3 197/2/3 193/2/3
f 199/2/3 198/2/3 197/2/3
f 200/2/3 198/2/3 199/2/3
f 203/2/3 202/2/3 201/2/3
f 204/2/3 202/2/3 203/2/3
f 205/2/3 203/2/3 201/2/3
f 207/2/3 205/2/3 201/2/3
f 207/2/3 206/2/3 205/2/3
f 208/2/3 206/2/3 207/2/3
f 211/1/3 210/1/3 209/1/3
f 212/1/3 210/1/3 211/1/3
f 214/1/3 210/1/3 212/1/3
f 215/1/3 214/1/3 213/1/3
f 216/1/3 210/1/3 214/1/3
f 216/1/3 214/1/3 215/1/3
f 217/1/3 211/1/3 209/1/3
f 218/1/3 210/1/3 216/1/3
f 219/1/3 217/1/3 209/1/3
f 219/1/3 218/1/3 217/1/3
f 220/1/3 210/1/3 218/1/3
f 220/1/3 218/1/3 219/1/3
f 223/1/3 222/1/3 221/1/3
f 224/1/3 222/1/3 223/1/3
f 226/1/3 222/1/3 224/1/3
f 227/1/3 226/1/3 225/1/3
f 228/1/3 222/1/3 226/1/3
f 228/1/3 226/1/3 227/1/3
f 229/1/3 223/1/3 221/1/3
f 230/1/3 222/1/3 228/1/3
f 231/1/3 229/1/3 221/1/3
f 231/1/3 230/1/3 229/1/3
f 232/1/3 222/1/3 230/1/3
f 232/1/3 230/1/3 231/1/3
f 235/4/3 234/4/3 233/4/3
f 236/4/3 234/4/3 235/4/3
f 237/4/3 235/4/3 233/4/3
f 238/4/3 234/4/3 236/4/3
f 239/4/3 237/4/3 233/4/3
f 239/4/3 238/4/3 237/4/3
f 240/4/3 234/4/3 238/4/3
f 240/4/3 238/4/3 239/4/3
f 241/4/3 239/4/3 233/4/3
f 242/4/3 234/4/3 240/4/3
f 243/4/3 241/4/3 233/4/3
f 243/4/3 242/4/3 241/4/3
f 244/4/3 234/4/3 242/4/3
f 244/4/3 242/4/3 243/4/3
f 247/4/3 246/4/3 245/4/3
f 248/4/3 246/4/3 247/4/3
f 251/4/3 250/4/3 249/4/3
f 252/4/3 250/4/3 251/4/3
f 255/4/3 254/4/3 253/4/3
f 256/4/3 254/4/3 255/4/3
f 259/4/3 258/4/3 257/4/3
f 260/4/3 258/4/3 259/4/3
f 263/4/3 262/4/3 261/4/3
f 264/4/3 262/4/3 263/4/3
f 267/4/3 266/4/3 265/4/3
f 268/4/3 266/4/3 267/4/3
f 273/4/3 270/4/3 269/4/3
f 274/4/3 270/4/3 273/4/3
f 275/4/3 272/4/3 271/4/3
f 276/4/3 272/4/3 275/4/3
f 279/4/3 278/4/3 277/4/3
f 280/4/3 278/4/3 279/4/3
f 283/4/3 282/4/3 281/4/3
f 284/4/3 282/4/3 283/4/3
f 286/4/3 282/4/3 284/4/3
f 287/4/3 286/4/3 285/4/3
f 288/4/3 282/4/3 286/4/3
f 288/4/3 286/4/3 287/4/3
f 297/4/3 290/4/3 289/4/3
f 298/4/3 290/4/3 297/4/3
f 299/4/3 290/4/3 298/4/3
f 300/1/3 298/1/3 297/1/3
f 300/3/3 299/3/3 298/3/3
f 301/3/3 299/3/3 300/3/3
f 302/4/3 292/4/3 291/4/3
f 303/4/3 294/4/3 293/4/3
f 304/4/3 296/4/3 295/4/3
f 305/4/3 296/4/3 304/4/3
f 306/4/3 303/4/3 302/4/3
f 306/4/3 302/4/3 291/4/3
f 307/4/3 294/4/3 303/4/3
f 307/4/3 303/4/3 306/4/3
f 308/4/3 306/4/3 291/4/3
f 309/4/3 294/4/3 307/4/3
f 310/4/3 308/4/3 291/4/3
f 310/4/3 309/4/3 308/4/3
f 311/4/3 294/4/3 309/4/3
f 311/4/3 309/4/3 310/4/3
f 314/1/3 300/1/3 297/1/3
f 314/2/3 301/2/3 300/2/3
f 315/2/3 301/2/3 314/2/3
f 316/4/3 310/4/3 291/4/3
f 317/4/3 310/4/3 316/4/3
f 318/4/3 294/4/3 311/4/3
f 319/4/3 294/4/3 318/4/3
f 320/4/3 313/4/3 312/4/3
f 321/4/3 313/4/3 320/4/3
f 322/4/3 297/4/3 289/4/3
f 322/1/3 314/1/3 297/1/3
f 323/3/3 315/3/3 314/3/3
f 323/1/3 314/1/3 322/1/3
f 324/3/3 315/3/3 323/3/3
f 325/4/3 324/4/3 323/4/3
f 325/4/3 323/4/3 322/4/3
f 325/4/3 322/4/3 289/4/3
f 326/4/3 324/4/3 325/4/3
f 329/4/3 328/4/3 327/4/3
f 330/4/3 328/4/3 329/4/3
f 331/4/3 328/4/3 330/4/3
f 332/4/3 328/4/3 331/4/3
f 333/4/3 330/4/3 329/4/3
f 338/4/3 335/4/3 334/4/3
f 338/4/3 337/4/3 336/4/3
f 338/4/3 336/4/3 335/4/3
f 339/4/3 337/4/3 338/4/3
f 340/1/3 339/1/3 338/1/3
f 341/1/3 339/1/3 340/1/3
f 342/1/3 339/1/3 341/1/3
f 343/1/3 339/1/3 342/1/3
f 344/1/3 339/1/3 343/1/3
f 345/1/3 339/1/3 344/1/3
f 346/1/3 339/1/3 345/1/3
f 347/1/3 340/1/3 338/1/3
f 347/3/3 341/3/3 340/3/3
f 348/2/3 342/2/3 341/2/3
f 348/3/3 341/3/3 347/3/3
f 349/1/3 343/1/3 342/1/3
f 349/2/3 342/2/3 348/2/3
f 350/1/3 343/1/3 349/1/3
f 351/3/3 344/3/3 343/3/3
f 351/1/3 343/1/3 350/1/3
f 352/1/3 345/1/3 344/1/3
f 352/3/3 344/3/3 351/3/3
f 353/1/3 345/1/3 352/1/3
f 354/3/3 346/3/3 345/3/3
f 354/1/3 345/1/3 353/1/3
f 355/1/3 339/1/3 346/1/3
f 355/3/3 346/3/3 354/3/3
f 356/1/3 331/1/3 330/1/3
f 356/3/3 332/3/3 331/3/3
f 357/3/3 332/3/3 356/3/3
f 358/1/3 347/1/3 338/1/3
f 358/1/3 348/1/3 347/1/3
f 358/1/3 350/1/3 349/1/3
f 358/1/3 349/1/3 348/1/3
f 359/1/3 350/1/3 358/1/3
f 360/1/3 350/1/3 359/1/3
f 361/3/3 351/3/3 350/3/3
f 361/1/3 350/1/3 360/1/3
f 362/2/3 354/2/3 353/2/3
f 362/1/3 353/1/3 352/1/3
f 362/1/3 352/1/3 351/1/3
f 363/1/3 355/1/3 354/1/3
f 363/2/3 354/2/3 362/2/3
f 364/1/3 360/1/3 359/1/3
f 364/3/3 359/3/3 358/3/3
f 365/3/3 361/3/3 360/3/3
f 365/1/3 360/1/3 364/1/3
f 366/3/3 351/3/3 361/3/3
f 366/3/3 361/3/3 365/3/3
f 367/1/3 362/1/3 351/1/3
f 367/3/3 351/3/3 366/3/3
f 368/3/3 363/3/3 362/3/3
f 368/1/3 362/1/3 367/1/3
f 369/1/3 355/1/3 363/1/3
f 369/3/3 363/3/3 368/3/3
f 370/1/3 339/1/3 355/1/3
f 370/1/3 355/1/3 369/1/3
f 371/3/3 365/3/3 364/3/3
f 371/3/3 364/3/3 358/3/3
f 372/2/3 366/2/3 365/2/3
f 372/3/3 365/3/3 371/3/3
f 373/1/3 367/1/3 366/1/3
f 373/2/3 366/2/3 372/2/3
f 374/3/3 368/3/3 367/3/3
f 374/1/3 367/1/3 373/1/3
f 375/2/3 369/2/3 368/2/3
f 375/3/3 368/3/3 374/3/3
f 376/3/3 370/3/3 369/3/3
f 376/2/3 369/2/3 375/2/3
f 377/1/3 339/1/3 370/1/3
f 377/3/3 370/3/3 376/3/3
f 378/3/3 371/3/3 358/3/3
f 378/1/3 358/1/3 338/1/3
f 379/1/3 372/1/3 371/1/3
f 379/3/3 371/3/3 378/3/3
f 380/3/3 373/3/3 372/3/3
f 380/1/3 372/1/3 379/1/3
f 381/1/3 374/1/3 373/1/3
f 381/3/3 373/3/3 380/3/3
f 381/1/3 375/1/3 374/1/3
f 382/1/3 375/1/3 381/1/3
f 383/1/3 375/1/3 382/1/3
f 384/2/3 376/2/3 375/2/3
f 384/1/3 377/1/3 376/1/3
f 385/1/3 339/1/3 377/1/3
f 385/1/3 377/1/3 384/1/3
f 386/2/3 379/2/3 378/2/3
f 386/1/3 378/1/3 338/1/3
f 387/1/3 380/1/3 379/1/3
f 387/2/3 379/2/3 386/2/3
f 387/1/3 381/1/3 380/1/3
f 388/1/3 381/1/3 387/1/3
f 389/3/3 382/3/3 381/3/3
f 389/1/3 381/1/3 388/1/3
f 390/2/3 383/2/3 382/2/3
f 390/3/3 382/3/3 389/3/3
f 391/1/3 375/1/3 383/1/3
f 391/2/3 383/2/3 390/2/3
f 392/2/3 384/2/3 375/2/3
f 392/2/3 385/2/3 384/2/3
f 393/1/3 339/1/3 385/1/3
f 393/2/3 385/2/3 392/2/3
f 394/1/3 388/1/3 387/1/3
f 394/3/3 387/3/3 386/3/3
f 395/3/3 389/3/3 388/3/3
f 395/1/3 388/1/3 394/1/3
f 396/1/3 390/1/3 389/1/3
f 396/3/3 389/3/3 395/3/3
f 396/1/3 391/1/3 390/1/3
f 397/1/3 391/1/3 396/1/3
f 398/1/3 375/1/3 391/1/3
f 398/1/3 391/1/3 397/1/3
f 398/2/3 392/2/3 375/2/3
f 399/1/3 393/1/3 392/1/3
f 399/2/3 392/2/3 398/2/3
f 400/1/3 339/1/3 393/1/3
f 400/1/3 393/1/3 399/1/3
f 401/3/3 395/3/3 394/3/3
f 401/3/3 394/3/3 386/3/3
f 402/2/3 396/2/3 395/2/3
f 402/3/3 395/3/3 401/3/3
f 403/1/3 397/1/3 396/1/3
f 403/2/3 396/2/3 402/2/3
f 404/3/3 398/3/3 397/3/3
f 404/1/3 397/1/3 403/1/3
f 405/2/3 399/2/3 398/2/3
f 405/3/3 398/3/3 404/3/3
f 406/3/3 400/3/3 399/3/3
f 406/2/3 399/2/3 405/2/3
f 407/1/3 339/1/3 400/1/3
f 407/3/3 400/3/3 406/3/3
f 408/1/3 386/1/3 338/1/3
f 408/3/3 401/3/3 386/3/3
f 409/1/3 402/1/3 401/1/3
f 409/3/3 401/3/3 408/3/3
f 410/3/3 403/3/3 402/3/3
f 410/1/3 402/1/3 409/1/3
f 410/3/3 404/3/3 403/3/3
f 411/3/3 404/3/3 410/3/3
f 412/3/3 406/3/3 405/3/3
f 412/1/3 405/1/3 404/1/3
f 413/1/3 407/1/3 406/1/3
f 413/3/3 406/3/3 412/3/3
f 414/1/3 408/1/3 338/1/3
f 414/1/3 411/1/3 410/1/3
f 414/1/3 409/1/3 408/1/3
f 414/1/3 410/1/3 409/1/3
f 415/1/3 411/1/3 414/1/3
f 416/1/3 411/1/3 415/1/3
f 417/3/3 404/3/3 411/3/3
f 417/1/3 411/1/3 416/1/3
f 418/1/3 412/1/3 404/1/3
f 418/3/3 404/3/3 417/3/3
f 419/1/3 412/1/3 418/1/3
f 420/2/3 413/2/3 412/2/3
f 420/1/3 412/1/3 419/1/3
f 421/1/3 407/1/3 413/1/3
f 421/2/3 413/2/3 420/2/3
f 422/1/3 339/1/3 407/1/3
f 422/1/3 407/1/3 421/1/3
f 423/2/3 357/2/3 356/2/3
f 423/1/3 356/1/3 330/1/3
f 424/2/3 357/2/3 423/2/3
f 425/1/3 414/1/3 338/1/3
f 425/3/3 415/3/3 414/3/3
f 426/2/3 416/2/3 415/2/3
f 426/3/3 415/3/3 425/3/3
f 427/1/3 417/1/3 416/1/3
f 427/2/3 416/2/3 426/2/3
f 427/1/3 418/1/3 417/1/3
f 428/3/3 419/3/3 418/3/3
f 428/1/3 418/1/3 427/1/3
f 429/1/3 421/1/3 420/1/3
f 429/3/3 419/3/3 428/3/3
f 429/1/3 420/1/3 419/1/3
f 430/3/3 422/3/3 421/3/3
f 430/1/3 421/1/3 429/1/3
f 431/1/3 339/1/3 422/1/3
f 431/3/3 422/3/3 430/3/3
f 432/1/3 428/1/3 427/1/3
f 432/4/3 338/4/3 334/4/3
f 432/1/3 431/1/3 430/1/3
f 432/1/3 425/1/3 338/1/3
f 432/1/3 427/1/3 426/1/3
f 432/1/3 426/1/3 425/1/3
f 432/1/3 429/1/3 428/1/3
f 432/1/3 430/1/3 429/1/3
f 433/1/3 339/1/3 431/1/3
f 433/1/3 431/1/3 432/1/3
f 433/4/3 337/4/3 339/4/3
f 434/4/3 432/4/3 334/4/3
f 434/4/3 433/4/3 432/4/3
f 435/4/3 433/4/3 434/4/3
f 436/4/3 433/4/3 435/4/3
f 437/4/3 337/4/3 433/4/3
f 437/4/3 433/4/3 436/4/3
f 438/4/3 330/4/3 333/4/3
f 439/4/3 330/4/3 438/4/3
f 440/1/3 423/1/3 330/1/3
f 440/4/3 330/4/3 439/4/3
f 441/3/3 424/3/3 423/3/3
f 441/1/3 423/1/3 440/1/3
f 442/3/3 424/3/3 441/3/3
f 443/4/3 440/4/3 439/4/3
f 443/4/3 441/4/3 440/4/3
f 443/4/3 442/4/3 441/4/3
f 444/4/3 442/4/3 443/4/3
f 447/4/3 446/4/3 445/4/3
f 448/4/3 446/4/3 447/4/3
f 449/4/3 446/4/3 448/4/3
f 450/4/3 446/4/3 449/4/3
f 451/4/3 446/4/3 450/4/3
f 452/4/3 446/4/3 451/4/3
f 455/4/3 454/4/3 453/4/3
f 456/4/3 454/4/3 455/4/3
f 459/4/3 458/4/3 457/4/3
f 460/4/3 458/4/3 459/4/3
f 469/4/3 466/4/3 465/4/3
f 470/4/3 466/4/3 469/4/3
f 471/4/3 468/4/3 467/4/3
f 472/4/3 468/4/3 471/4/3
f 475/4/3 474/4/3 473/4/3
f 476/4/3 474/4/3 475/4/3
f 479/4/3 471/4/3 467/4/3
f 481/4/3 462/4/3 461/4/3
f 482/4/3 462/4/3 481/4/3
f 483/4/3 464/4/3 463/4/3
f 484/4/3 464/4/3 483/4/3
f 485/4/3 478/4/3 477/4/3
f 486/4/3 478/4/3 485/4/3
f 487/4/3 480/4/3 479/4/3
f 487/4/3 479/4/3 467/4/3
f 488/4/3 480/4/3 487/4/3
f 489/4/4 490/4/4 491/4/4
f 491/4/4 490/4/4 492/4/4
f 493/4/4 494/4/4 495/4/4
f 495/4/4 494/4/4 496/4/4
f 497/4/4 498/4/4 499/4/4
f 499/4/4 498/4/4 500/4/4
f 503/4/5 502/4/5 501/4/5
f 504/4/5 502/4/5 503/4/5
f 509/1/5 506/1/5 505/1/5
f 510/1/5 506/1/5 509/1/5
f 511/1/5 508/1/5 507/1/5
f 512/1/5 508/1/5 511/1/5
f 517/2/5 514/2/5 513/2/5
f 518/2/5 514/2/5 517/2/5
f 519/2/5 516/2/5 515/2/5
f 520/2/5 516/2/5 519/2/5
f 523/4/5 522/4/5 521/4/5
f 524/4/5 522/4/5 523/4/5
f 527/4/5 526/4/5 525/4/5
f 528/4/5 526/4/5 527/4/5
f 535/4/5 530/4/5 529/4/5
f 536/4/5 530/4/5 535/4/5
f 537/4/5 532/4/5 531/4/5
f 538/4/5 532/4/5 537/4/5
f 539/4/5 534/4/5 533/4/5
f 540/4/5 534/4/5 539/4/5
f 543/4/5 542/4/5 541/4/5
f 544/4/5 542/4/5 543/4/5
f 549/4/5 546/4/5 545/4/5
f 550/4/5 548/4/5 547/4/5
f 551/4/5 549/4/5 545/4/5
f 552/4/5 549/4/5 551/4/5
f 553/4/5 548/4/5 550/4/5
f 554/4/5 548/4/5 553/4/5
f 557/4/5 556/4/5 555/4/5
f 558/4/5 556/4/5 557/4/5
f 559/4/5 557/4/5 555/4/5
f 560/4/5 557/4/5 559/4/5
f 561/4/5 556/4/5 558/4/5
f 562/4/5 556/4/5 561/4/5
f 563/2/6 564/2/6 567/2/6
f 567/2/6 564/2/6 568/2/6
f 565/2/6 566/2/6 569/2/6
f 569/2/6 566/2/6 570/2/6
f 571/2/6 572/2/6 579/2/6
f 579/2/6 572/2/6 580/2/6
f 573/2/6 574/2/6 581/2/6
f 581/2/6 574/2/6 582/2/6
f 575/2/6 576/2/6 583/2/6
f 583/2/6 576/2/6 584/2/6
f 577/2/6 578/2/6 585/2/6
f 585/2/6 578/2/6 586/2/6
f 587/1/6 588/1/6 591/1/6
f 591/1/6 588/1/6 592/1/6
f 589/1/6 590/1/6 593/1/6
f 593/1/6 590/1/6 594/1/6
f 595/4/6 596/4/6 597/4/6
f 597/4/6 596/4/6 598/4/6
f 598/4/6 596/4/6 599/4/6
f 599/4/6 596/4/6 600/4/6
f 598/4/6 599/4/6 601/4/6
f 601/4/6 599/4/6 602/4/6
f 603/4/6 604/4/6 607/4/6
f 607/4/6 604/4/6 608/4/6
f 605/4/6 606/4/6 609/4/6
f 609/4/6 606/4/6 610/4/6
f 611/4/6 612/4/6 615/4/6
f 615/4/6 612/4/6 616/4/6
f 613/4/6 614/4/6 617/4/6
f 617/4/6 614/4/6 618/4/6
f 619/4/6 620/4/6 621/4/6
f 621/4/6 620/4/6 622/4/6
f 623/4/6 624/4/6 627/4/6
f 627/4/6 624/4/6 628/4/6
f 625/4/6 626/4/6 629/4/6
f 629/4/6 626/4/6 630/4/6
f 631/4/6 632/4/6 637/4/6
f 637/4/6 632/4/6 638/4/6
f 633/4/6 634/4/6 639/4/6
f 639/4/6 634/4/6 640/4/6
f 635/4/6 636/4/6 641/4/6
f 641/4/6 636/4/6 642/4/6
f 643/4/6 644/4/6 645/4/6
f 645/4/6 644/4/6 646/4/6
f 647/4/6 648/4/6 651/4/6
f 651/4/6 648/4/6 652/4/6
f 649/4/6 650/4/6 653/4/6
f 653/4/6 650/4/6 654/4/6
f 655/4/6 656/4/6 659/4/6
f 657/4/6 658/4/6 660/4/6
f 655/4/6 659/4/6 661/4/6
f 661/4/6 659/4/6 662/4/6
f 660/4/6 658/4/6 663/4/6
f 663/4/6 658/4/6 664/4/6
f 665/4/6 666/4/6 667/4/6
f 667/4/6 666/4/6 668/4/6
f 669/4/6 670/4/6 675/4/6
f 670/3/6 671/3/6 676/3/6
f 675/4/6 670/4/6 676/4/6
f 671/2/6 672/2/6 677/2/6
f 676/3/6 671/3/6 677/3/6
f 672/3/6 673/3/6 678/3/6
f 677/2/6 672/2/6 678/2/6
f 673/4/6 674/4/6 679/4/6
f 678/3/6 673/3/6 679/3/6
f 679/4/6 674/4/6 680/4/6
f 681/4/6 682/4/6 687/4/6
f 682/3/6 683/3/6 688/3/6
f 687/4/6 682/4/6 688/4/6
f 683/2/6 684/2/6 689/2/6
f 688/3/6 683/3/6 689/3/6
f 684/3/6 685/3/6 690/3/6
f 689/2/6 684/2/6 690/2/6
f 685/4/6 686/4/6 691/4/6
f 690/3/6 685/3/6 691/3/6
f 691/4/6 686/4/6 692/4/6
f 693/4/6 694/4/6 695/4/6
f 695/4/6 694/4/6 696/4/6
f 697/4/6 698/4/6 699/4/6
f 699/4/6 698/4/6 700/4/6
f 701/4/6 702/4/6 703/4/6
f 703/4/6 702/4/6 704/4/6
